%TF.GenerationSoftware,KiCad,Pcbnew,7.0.6*%
%TF.CreationDate,2025-03-25T12:17:55+01:00*%
%TF.ProjectId,Stepper ESP,53746570-7065-4722-9045-53502e6b6963,rev?*%
%TF.SameCoordinates,Original*%
%TF.FileFunction,Paste,Top*%
%TF.FilePolarity,Positive*%
%FSLAX46Y46*%
G04 Gerber Fmt 4.6, Leading zero omitted, Abs format (unit mm)*
G04 Created by KiCad (PCBNEW 7.0.6) date 2025-03-25 12:17:55*
%MOMM*%
%LPD*%
G01*
G04 APERTURE LIST*
G04 Aperture macros list*
%AMRoundRect*
0 Rectangle with rounded corners*
0 $1 Rounding radius*
0 $2 $3 $4 $5 $6 $7 $8 $9 X,Y pos of 4 corners*
0 Add a 4 corners polygon primitive as box body*
4,1,4,$2,$3,$4,$5,$6,$7,$8,$9,$2,$3,0*
0 Add four circle primitives for the rounded corners*
1,1,$1+$1,$2,$3*
1,1,$1+$1,$4,$5*
1,1,$1+$1,$6,$7*
1,1,$1+$1,$8,$9*
0 Add four rect primitives between the rounded corners*
20,1,$1+$1,$2,$3,$4,$5,0*
20,1,$1+$1,$4,$5,$6,$7,0*
20,1,$1+$1,$6,$7,$8,$9,0*
20,1,$1+$1,$8,$9,$2,$3,0*%
G04 Aperture macros list end*
%ADD10C,0.010000*%
%ADD11R,0.625000X0.400000*%
%ADD12R,0.350000X0.275000*%
%ADD13R,1.100000X1.900000*%
%ADD14R,0.800000X0.400000*%
%ADD15R,0.400000X0.800000*%
%ADD16R,1.200000X1.200000*%
%ADD17R,0.800000X0.800000*%
%ADD18R,0.762000X0.254000*%
%ADD19R,0.254000X0.762000*%
%ADD20R,3.800000X3.800000*%
%ADD21R,1.050000X0.650000*%
%ADD22RoundRect,0.200000X0.200000X0.275000X-0.200000X0.275000X-0.200000X-0.275000X0.200000X-0.275000X0*%
%ADD23RoundRect,0.200000X-0.200000X-0.275000X0.200000X-0.275000X0.200000X0.275000X-0.200000X0.275000X0*%
%ADD24RoundRect,0.200000X-0.275000X0.200000X-0.275000X-0.200000X0.275000X-0.200000X0.275000X0.200000X0*%
%ADD25RoundRect,0.250000X0.625000X-0.312500X0.625000X0.312500X-0.625000X0.312500X-0.625000X-0.312500X0*%
%ADD26RoundRect,0.200000X0.275000X-0.200000X0.275000X0.200000X-0.275000X0.200000X-0.275000X-0.200000X0*%
%ADD27RoundRect,0.250000X-0.362500X-1.425000X0.362500X-1.425000X0.362500X1.425000X-0.362500X1.425000X0*%
%ADD28R,0.600000X1.240000*%
%ADD29R,0.300000X1.240000*%
%ADD30RoundRect,0.218750X-0.218750X-0.256250X0.218750X-0.256250X0.218750X0.256250X-0.218750X0.256250X0*%
%ADD31R,0.400000X0.480000*%
%ADD32R,0.900000X1.300000*%
%ADD33R,1.300000X0.900000*%
%ADD34R,0.500000X0.500000*%
%ADD35R,0.380000X0.400000*%
%ADD36RoundRect,0.250000X-1.500000X-0.550000X1.500000X-0.550000X1.500000X0.550000X-1.500000X0.550000X0*%
G04 APERTURE END LIST*
%TO.C,U4*%
G36*
X126250000Y-63737000D02*
G01*
X125100000Y-63737000D01*
X125100000Y-63337000D01*
X126250000Y-63337000D01*
X126250000Y-63737000D01*
G37*
%TO.C,U3*%
D10*
X107850000Y-52850000D02*
X106650000Y-52850000D01*
X106650000Y-52250000D01*
X107250000Y-51650000D01*
X107850000Y-51650000D01*
X107850000Y-52850000D01*
G36*
X107850000Y-52850000D02*
G01*
X106650000Y-52850000D01*
X106650000Y-52250000D01*
X107250000Y-51650000D01*
X107850000Y-51650000D01*
X107850000Y-52850000D01*
G37*
%TD*%
D11*
%TO.C,U4*%
X124562500Y-63862001D03*
X124562500Y-64511999D03*
X124562500Y-65162001D03*
X124562500Y-65811999D03*
X126787500Y-65811999D03*
X126787500Y-65162001D03*
X126787500Y-64511999D03*
X126787500Y-63862001D03*
D12*
X126000000Y-63500000D03*
X125350000Y-63500000D03*
D13*
X125675000Y-64837000D03*
%TD*%
D14*
%TO.C,U3*%
X101900000Y-47950000D03*
X101900000Y-48800000D03*
X101900000Y-49650000D03*
X101900000Y-50500000D03*
X101900000Y-51350000D03*
X101900000Y-52200000D03*
X101900000Y-53050000D03*
X101900000Y-53900000D03*
X101900000Y-54750000D03*
X101900000Y-55600000D03*
X101900000Y-56450000D03*
X101900000Y-57300000D03*
X101900000Y-58150000D03*
X101900000Y-59000000D03*
X101900000Y-59850000D03*
D15*
X102950000Y-60900000D03*
X103800000Y-60900000D03*
X104650000Y-60900000D03*
X105500000Y-60900000D03*
X106350000Y-60900000D03*
X107200000Y-60900000D03*
X108050000Y-60900000D03*
X108900000Y-60900000D03*
X109750000Y-60900000D03*
X110600000Y-60900000D03*
X111450000Y-60900000D03*
X112300000Y-60900000D03*
X113150000Y-60900000D03*
X114000000Y-60900000D03*
X114850000Y-60900000D03*
D14*
X115900000Y-59850000D03*
X115900000Y-59000000D03*
X115900000Y-58150000D03*
X115900000Y-57300000D03*
X115900000Y-56450000D03*
X115900000Y-55600000D03*
X115900000Y-54750000D03*
X115900000Y-53900000D03*
X115900000Y-53050000D03*
X115900000Y-52200000D03*
X115900000Y-51350000D03*
X115900000Y-50500000D03*
X115900000Y-49650000D03*
X115900000Y-48800000D03*
X115900000Y-47950000D03*
D15*
X114850000Y-46900000D03*
X114000000Y-46900000D03*
X113150000Y-46900000D03*
X112300000Y-46900000D03*
X111450000Y-46900000D03*
X110600000Y-46900000D03*
X109750000Y-46900000D03*
X108900000Y-46900000D03*
X108050000Y-46900000D03*
X107200000Y-46900000D03*
X106350000Y-46900000D03*
X105500000Y-46900000D03*
X104650000Y-46900000D03*
X103800000Y-46900000D03*
X102950000Y-46900000D03*
D16*
X108900000Y-53900000D03*
X108900000Y-52250000D03*
X110550000Y-52250000D03*
X110550000Y-53900000D03*
X110550000Y-55550000D03*
X108900000Y-55550000D03*
X107250000Y-55550000D03*
X107250000Y-53900000D03*
D17*
X101900000Y-46900000D03*
X101900000Y-60900000D03*
X115900000Y-60900000D03*
X115900000Y-46900000D03*
%TD*%
D18*
%TO.C,U2*%
X97574300Y-70000000D03*
X97574300Y-70499999D03*
X97574300Y-71000001D03*
X97574300Y-71500000D03*
X97574300Y-71999999D03*
X97574300Y-72500001D03*
X97574300Y-73000000D03*
D19*
X98500000Y-73925700D03*
X98999999Y-73925700D03*
X99500001Y-73925700D03*
X100000000Y-73925700D03*
X100499999Y-73925700D03*
X101000001Y-73925700D03*
X101500000Y-73925700D03*
D18*
X102425700Y-73000000D03*
X102425700Y-72500001D03*
X102425700Y-71999999D03*
X102425700Y-71500000D03*
X102425700Y-71000001D03*
X102425700Y-70499999D03*
X102425700Y-70000000D03*
D19*
X101500000Y-69074300D03*
X101000001Y-69074300D03*
X100499999Y-69074300D03*
X100000000Y-69074300D03*
X99500001Y-69074300D03*
X98999999Y-69074300D03*
X98500000Y-69074300D03*
D20*
X100000000Y-71500000D03*
%TD*%
D21*
%TO.C,SW2*%
X118500000Y-49675000D03*
X122650000Y-49675000D03*
X118500000Y-51825000D03*
X122650000Y-51825000D03*
%TD*%
%TO.C,SW1*%
X118425000Y-42425000D03*
X122575000Y-42425000D03*
X118425000Y-44575000D03*
X122575000Y-44575000D03*
%TD*%
D22*
%TO.C,R15*%
X117175000Y-77250000D03*
X118825000Y-77250000D03*
%TD*%
D23*
%TO.C,R14*%
X123635000Y-61500000D03*
X121985000Y-61500000D03*
%TD*%
%TO.C,R13*%
X121985000Y-56500000D03*
X123635000Y-56500000D03*
%TD*%
D22*
%TO.C,R12*%
X91775000Y-71750000D03*
X93425000Y-71750000D03*
%TD*%
D24*
%TO.C,R11*%
X129500000Y-58175000D03*
X129500000Y-59825000D03*
%TD*%
%TO.C,R10*%
X126250000Y-58175000D03*
X126250000Y-59825000D03*
%TD*%
D25*
%TO.C,R9*%
X101790000Y-66212500D03*
X101790000Y-63287500D03*
%TD*%
%TO.C,R8*%
X98750000Y-66175000D03*
X98750000Y-63250000D03*
%TD*%
D24*
%TO.C,R7*%
X129037500Y-65486999D03*
X129037500Y-67136999D03*
%TD*%
%TO.C,R6*%
X129037500Y-63886999D03*
X129037500Y-62236999D03*
%TD*%
D26*
%TO.C,R5*%
X122250000Y-65325000D03*
X122250000Y-63675000D03*
%TD*%
D23*
%TO.C,R4*%
X108425000Y-65000000D03*
X110075000Y-65000000D03*
%TD*%
D27*
%TO.C,R3*%
X98037500Y-79000000D03*
X103962500Y-79000000D03*
%TD*%
D24*
%TO.C,R2*%
X114000000Y-70765000D03*
X114000000Y-72415000D03*
%TD*%
%TO.C,R1*%
X106500000Y-70765000D03*
X106500000Y-72415000D03*
%TD*%
D28*
%TO.C,J1*%
X107230000Y-74450000D03*
X108030000Y-74450000D03*
D29*
X109180000Y-74450000D03*
X110180000Y-74450000D03*
X110680000Y-74450000D03*
X111680000Y-74450000D03*
D28*
X112830000Y-74450000D03*
X113630000Y-74450000D03*
X113630000Y-74450000D03*
X112830000Y-74450000D03*
D29*
X112180000Y-74450000D03*
X111180000Y-74450000D03*
X109680000Y-74450000D03*
X108680000Y-74450000D03*
D28*
X108030000Y-74450000D03*
X107230000Y-74450000D03*
%TD*%
D30*
%TO.C,D5*%
X119022500Y-56500000D03*
X120597500Y-56500000D03*
%TD*%
%TO.C,D4*%
X119022500Y-61500000D03*
X120597500Y-61500000D03*
%TD*%
%TO.C,D3*%
X117175000Y-79500000D03*
X118750000Y-79500000D03*
%TD*%
D31*
%TO.C,D2*%
X109750000Y-72250000D03*
X109750000Y-70930000D03*
%TD*%
%TO.C,D1*%
X111750000Y-72250000D03*
X111750000Y-70930000D03*
%TD*%
D32*
%TO.C,C14*%
X126100000Y-50250000D03*
X128400000Y-50250000D03*
%TD*%
D33*
%TO.C,C13*%
X126000000Y-55650000D03*
X126000000Y-53350000D03*
%TD*%
D32*
%TO.C,C12*%
X129050000Y-69750000D03*
X126750000Y-69750000D03*
%TD*%
D34*
%TO.C,C11*%
X127000000Y-67750000D03*
X126000000Y-67750000D03*
%TD*%
%TO.C,C10*%
X115400000Y-65750000D03*
X116400000Y-65750000D03*
%TD*%
D32*
%TO.C,C9*%
X117150000Y-63750000D03*
X114850000Y-63750000D03*
%TD*%
D33*
%TO.C,C8*%
X129250000Y-55650000D03*
X129250000Y-53350000D03*
%TD*%
D32*
%TO.C,C7*%
X106900000Y-68750000D03*
X104600000Y-68750000D03*
%TD*%
D35*
%TO.C,C6*%
X97719000Y-76500000D03*
X98281000Y-76500000D03*
%TD*%
D34*
%TO.C,C5*%
X94750000Y-72250000D03*
X94750000Y-71250000D03*
%TD*%
D32*
%TO.C,C4*%
X93750000Y-73750000D03*
X91450000Y-73750000D03*
%TD*%
%TO.C,C3*%
X104600000Y-66250000D03*
X106900000Y-66250000D03*
%TD*%
%TO.C,C2*%
X104600000Y-63500000D03*
X106900000Y-63500000D03*
%TD*%
D36*
%TO.C,C1*%
X118100000Y-71250000D03*
X123500000Y-71250000D03*
%TD*%
M02*
