G04 #@! TF.GenerationSoftware,KiCad,Pcbnew,7.0.6*
G04 #@! TF.CreationDate,2025-03-25T12:27:29+01:00*
G04 #@! TF.ProjectId,Stepper ESP,53746570-7065-4722-9045-53502e6b6963,rev?*
G04 #@! TF.SameCoordinates,Original*
G04 #@! TF.FileFunction,Copper,L2,Bot*
G04 #@! TF.FilePolarity,Positive*
%FSLAX46Y46*%
G04 Gerber Fmt 4.6, Leading zero omitted, Abs format (unit mm)*
G04 Created by KiCad (PCBNEW 7.0.6) date 2025-03-25 12:27:29*
%MOMM*%
%LPD*%
G01*
G04 APERTURE LIST*
G04 Aperture macros list*
%AMRoundRect*
0 Rectangle with rounded corners*
0 $1 Rounding radius*
0 $2 $3 $4 $5 $6 $7 $8 $9 X,Y pos of 4 corners*
0 Add a 4 corners polygon primitive as box body*
4,1,4,$2,$3,$4,$5,$6,$7,$8,$9,$2,$3,0*
0 Add four circle primitives for the rounded corners*
1,1,$1+$1,$2,$3*
1,1,$1+$1,$4,$5*
1,1,$1+$1,$6,$7*
1,1,$1+$1,$8,$9*
0 Add four rect primitives between the rounded corners*
20,1,$1+$1,$2,$3,$4,$5,0*
20,1,$1+$1,$4,$5,$6,$7,0*
20,1,$1+$1,$6,$7,$8,$9,0*
20,1,$1+$1,$8,$9,$2,$3,0*%
G04 Aperture macros list end*
G04 #@! TA.AperFunction,ComponentPad*
%ADD10O,1.000000X1.800000*%
G04 #@! TD*
G04 #@! TA.AperFunction,ComponentPad*
%ADD11O,1.000000X2.100000*%
G04 #@! TD*
G04 #@! TA.AperFunction,ComponentPad*
%ADD12RoundRect,0.250000X0.725000X-0.600000X0.725000X0.600000X-0.725000X0.600000X-0.725000X-0.600000X0*%
G04 #@! TD*
G04 #@! TA.AperFunction,ComponentPad*
%ADD13O,1.950000X1.700000*%
G04 #@! TD*
G04 #@! TA.AperFunction,ViaPad*
%ADD14C,0.300000*%
G04 #@! TD*
G04 #@! TA.AperFunction,ViaPad*
%ADD15C,0.800000*%
G04 #@! TD*
G04 #@! TA.AperFunction,Conductor*
%ADD16C,0.250000*%
G04 #@! TD*
G04 #@! TA.AperFunction,Conductor*
%ADD17C,0.500000*%
G04 #@! TD*
G04 APERTURE END LIST*
D10*
X106110000Y-79250000D03*
D11*
X106110000Y-75050000D03*
X114750000Y-75050000D03*
D10*
X114750000Y-79250000D03*
D12*
X93000000Y-66000000D03*
D13*
X93000000Y-63500000D03*
X93000000Y-61000000D03*
X93000000Y-58500000D03*
D14*
X117750000Y-54250000D03*
X96500000Y-52250000D03*
X96500000Y-59750000D03*
X96500000Y-65799500D03*
X96329365Y-68599089D03*
X98849500Y-52250000D03*
X98500000Y-75500000D03*
X98849014Y-51500000D03*
X97000000Y-51500000D03*
X97000000Y-59500000D03*
X97000000Y-65799500D03*
X98500000Y-75000000D03*
X97000000Y-68599500D03*
D15*
X91500000Y-68250000D03*
X99375000Y-53375000D03*
X122250000Y-67000000D03*
D14*
X112250000Y-63250000D03*
X113000000Y-71000000D03*
X110750000Y-71500000D03*
X95250000Y-70000000D03*
X95585523Y-68664477D03*
X99000000Y-60000000D03*
X96000000Y-66250000D03*
X97500000Y-65799500D03*
X97500000Y-68599500D03*
X100585523Y-75164477D03*
X106500000Y-62250000D03*
X109500000Y-63500000D03*
X111000000Y-66500000D03*
X105574000Y-72500000D03*
X103500000Y-72500000D03*
X103750000Y-54250000D03*
D15*
X100411789Y-49589267D03*
X103250000Y-64250000D03*
D14*
X110000000Y-66500000D03*
X105099500Y-72000000D03*
D15*
X109000000Y-70000000D03*
X107477872Y-73139500D03*
D14*
X103854027Y-70508076D03*
X108250000Y-59974500D03*
X123500000Y-60250000D03*
X103250000Y-59500000D03*
X123500000Y-58000000D03*
D15*
X99762299Y-55762299D03*
X99750000Y-54750000D03*
X116500000Y-76250000D03*
X91000000Y-70000000D03*
X101750000Y-68000000D03*
X98275499Y-68000000D03*
X92500000Y-70500000D03*
X103500000Y-73249503D03*
X103714500Y-67500000D03*
X124500000Y-67250000D03*
X117000000Y-67500000D03*
X114750000Y-69750000D03*
X101250000Y-79000000D03*
X91500000Y-75000000D03*
X104500000Y-71500000D03*
X105250000Y-76250000D03*
D16*
X96500000Y-52250000D02*
X98849500Y-52250000D01*
X96500000Y-65799500D02*
X96500000Y-59750000D01*
X96050000Y-68878454D02*
X96329365Y-68599089D01*
X96050000Y-73936396D02*
X96050000Y-68878454D01*
X97613604Y-75500000D02*
X96050000Y-73936396D01*
X98500000Y-75500000D02*
X97613604Y-75500000D01*
X96500000Y-69099500D02*
X97000000Y-68599500D01*
X96500000Y-73750000D02*
X96500000Y-69099500D01*
X98500000Y-75000000D02*
X97750000Y-75000000D01*
X97750000Y-75000000D02*
X96500000Y-73750000D01*
X97000000Y-51500000D02*
X98849014Y-51500000D01*
D17*
X100612299Y-61612299D02*
X103250000Y-64250000D01*
X100612299Y-54410217D02*
X100612299Y-61612299D01*
X99375000Y-53375000D02*
X99577082Y-53375000D01*
X99708651Y-49589267D02*
X100411789Y-49589267D01*
X99577082Y-53375000D02*
X100612299Y-54410217D01*
X99150000Y-50147918D02*
X99708651Y-49589267D01*
X99150000Y-50851375D02*
X99150000Y-50147918D01*
X99449014Y-51150389D02*
X99150000Y-50851375D01*
X99449014Y-53300986D02*
X99449014Y-51150389D01*
X99375000Y-53375000D02*
X99449014Y-53300986D01*
X92450000Y-67300000D02*
X91500000Y-68250000D01*
X94014949Y-67300000D02*
X92450000Y-67300000D01*
X94425000Y-58325000D02*
X94425000Y-66889949D01*
X94425000Y-66889949D02*
X94014949Y-67300000D01*
X99375000Y-53375000D02*
X94425000Y-58325000D01*
D16*
X97000000Y-61328248D02*
X97000000Y-59500000D01*
X97000000Y-65799500D02*
X97000000Y-61328248D01*
D17*
X96000000Y-75000000D02*
X91500000Y-75000000D01*
X100000000Y-79000000D02*
X96000000Y-75000000D01*
X101250000Y-79000000D02*
X100000000Y-79000000D01*
D16*
X95585523Y-69664477D02*
X95585523Y-68664477D01*
X95250000Y-70000000D02*
X95585523Y-69664477D01*
X97500000Y-65799500D02*
X97500000Y-61500000D01*
X97500000Y-61500000D02*
X99000000Y-60000000D01*
X100585523Y-71685023D02*
X100585523Y-75164477D01*
X97500000Y-68599500D02*
X100585523Y-71685023D01*
D17*
X117500000Y-67000000D02*
X117000000Y-67500000D01*
X122250000Y-67000000D02*
X117500000Y-67000000D01*
D16*
X96024500Y-66274500D02*
X96000000Y-66250000D01*
X104126828Y-66274500D02*
X96024500Y-66274500D01*
X105326328Y-65075000D02*
X104126828Y-66274500D01*
X112250000Y-63250000D02*
X110425000Y-65075000D01*
X110425000Y-65075000D02*
X105326328Y-65075000D01*
X112500000Y-71500000D02*
X113000000Y-71000000D01*
X110750000Y-71500000D02*
X112500000Y-71500000D01*
X95525000Y-59999598D02*
X99762299Y-55762299D01*
X95600000Y-66825000D02*
X95525000Y-66750000D01*
X102925000Y-69579049D02*
X102925000Y-67513299D01*
X95525000Y-66750000D02*
X95525000Y-59999598D01*
X103854027Y-70508076D02*
X102925000Y-69579049D01*
X102925000Y-67513299D02*
X102236701Y-66825000D01*
X102236701Y-66825000D02*
X95600000Y-66825000D01*
D17*
X103650500Y-73400003D02*
X103650500Y-76400500D01*
D16*
X103500000Y-73249503D02*
X103650500Y-73400003D01*
D17*
X103650500Y-76400500D02*
X104350000Y-77100000D01*
D16*
X109500000Y-63500000D02*
X107750000Y-63500000D01*
X111000000Y-66750000D02*
X111000000Y-66500000D01*
X107750000Y-63500000D02*
X106500000Y-62250000D01*
X105574000Y-72500000D02*
X105574000Y-72176000D01*
X105574000Y-72176000D02*
X111000000Y-66750000D01*
X109000000Y-70000000D02*
X107477872Y-71522128D01*
X107477872Y-71522128D02*
X107477872Y-73139500D01*
X105225000Y-71275000D02*
X110000000Y-66500000D01*
X105225000Y-71874500D02*
X105225000Y-71275000D01*
X105099500Y-72000000D02*
X105225000Y-71874500D01*
X103500000Y-70825801D02*
X103500000Y-72500000D01*
X103424199Y-70750000D02*
X103500000Y-70825801D01*
X102475000Y-69800801D02*
X103424199Y-70750000D01*
X102475000Y-68300305D02*
X102475000Y-69800801D01*
X108250000Y-59974500D02*
X123224500Y-59974500D01*
X123224500Y-59974500D02*
X123500000Y-60250000D01*
X122000000Y-59500000D02*
X123500000Y-58000000D01*
X103250000Y-59500000D02*
X122000000Y-59500000D01*
X103750000Y-54250000D02*
X117750000Y-54250000D01*
X95000000Y-59500000D02*
X99750000Y-54750000D01*
X95000000Y-67000000D02*
X95000000Y-59500000D01*
X95425000Y-67425000D02*
X95000000Y-67000000D01*
X97825194Y-67425000D02*
X95425000Y-67425000D01*
X97975194Y-67275000D02*
X97825194Y-67425000D01*
X98725804Y-67425000D02*
X98575804Y-67275000D01*
X101299695Y-67425000D02*
X98725804Y-67425000D01*
X102050305Y-67275000D02*
X101449695Y-67275000D01*
X101449695Y-67275000D02*
X101299695Y-67425000D01*
X102475000Y-67699695D02*
X102050305Y-67275000D01*
X102475000Y-68300305D02*
X102475000Y-67699695D01*
X98575804Y-67275000D02*
X97975194Y-67275000D01*
D17*
X104500000Y-75500000D02*
X104500000Y-71500000D01*
X105250000Y-76250000D02*
X104500000Y-75500000D01*
X115650000Y-77100000D02*
X116500000Y-76250000D01*
X104350000Y-77100000D02*
X115650000Y-77100000D01*
X93000000Y-68000000D02*
X91000000Y-70000000D01*
X98275499Y-68000000D02*
X93000000Y-68000000D01*
X101750000Y-68000000D02*
X98275499Y-68000000D01*
X105564500Y-65650000D02*
X103714500Y-67500000D01*
X124500000Y-67250000D02*
X122900000Y-65650000D01*
X122900000Y-65650000D02*
X105564500Y-65650000D01*
X114750000Y-69750000D02*
X117000000Y-67500000D01*
M02*
