G04 #@! TF.GenerationSoftware,KiCad,Pcbnew,7.0.6*
G04 #@! TF.CreationDate,2025-03-25T12:27:29+01:00*
G04 #@! TF.ProjectId,Stepper ESP,53746570-7065-4722-9045-53502e6b6963,rev?*
G04 #@! TF.SameCoordinates,Original*
G04 #@! TF.FileFunction,Legend,Top*
G04 #@! TF.FilePolarity,Positive*
%FSLAX46Y46*%
G04 Gerber Fmt 4.6, Leading zero omitted, Abs format (unit mm)*
G04 Created by KiCad (PCBNEW 7.0.6) date 2025-03-25 12:27:29*
%MOMM*%
%LPD*%
G01*
G04 APERTURE LIST*
G04 Aperture macros list*
%AMRoundRect*
0 Rectangle with rounded corners*
0 $1 Rounding radius*
0 $2 $3 $4 $5 $6 $7 $8 $9 X,Y pos of 4 corners*
0 Add a 4 corners polygon primitive as box body*
4,1,4,$2,$3,$4,$5,$6,$7,$8,$9,$2,$3,0*
0 Add four circle primitives for the rounded corners*
1,1,$1+$1,$2,$3*
1,1,$1+$1,$4,$5*
1,1,$1+$1,$6,$7*
1,1,$1+$1,$8,$9*
0 Add four rect primitives between the rounded corners*
20,1,$1+$1,$2,$3,$4,$5,0*
20,1,$1+$1,$4,$5,$6,$7,0*
20,1,$1+$1,$6,$7,$8,$9,0*
20,1,$1+$1,$8,$9,$2,$3,0*%
G04 Aperture macros list end*
%ADD10C,0.125000*%
%ADD11C,0.150000*%
%ADD12C,0.080000*%
%ADD13C,0.060000*%
%ADD14C,0.098425*%
%ADD15C,0.152400*%
%ADD16C,0.127000*%
%ADD17C,0.200000*%
%ADD18C,0.120000*%
%ADD19C,0.010000*%
%ADD20R,0.625000X0.400000*%
%ADD21R,0.350000X0.275000*%
%ADD22R,1.100000X1.900000*%
%ADD23RoundRect,0.102000X-0.400000X-0.200000X0.400000X-0.200000X0.400000X0.200000X-0.400000X0.200000X0*%
%ADD24RoundRect,0.102000X-0.200000X-0.400000X0.200000X-0.400000X0.200000X0.400000X-0.200000X0.400000X0*%
%ADD25RoundRect,0.102000X-0.600000X-0.600000X0.600000X-0.600000X0.600000X0.600000X-0.600000X0.600000X0*%
%ADD26RoundRect,0.102000X-0.400000X-0.400000X0.400000X-0.400000X0.400000X0.400000X-0.400000X0.400000X0*%
%ADD27R,0.762000X0.254000*%
%ADD28R,0.254000X0.762000*%
%ADD29R,3.800000X3.800000*%
%ADD30RoundRect,0.102000X-0.525000X-0.325000X0.525000X-0.325000X0.525000X0.325000X-0.525000X0.325000X0*%
%ADD31RoundRect,0.200000X0.200000X0.275000X-0.200000X0.275000X-0.200000X-0.275000X0.200000X-0.275000X0*%
%ADD32RoundRect,0.200000X-0.200000X-0.275000X0.200000X-0.275000X0.200000X0.275000X-0.200000X0.275000X0*%
%ADD33RoundRect,0.200000X-0.275000X0.200000X-0.275000X-0.200000X0.275000X-0.200000X0.275000X0.200000X0*%
%ADD34RoundRect,0.250000X0.625000X-0.312500X0.625000X0.312500X-0.625000X0.312500X-0.625000X-0.312500X0*%
%ADD35RoundRect,0.200000X0.275000X-0.200000X0.275000X0.200000X-0.275000X0.200000X-0.275000X-0.200000X0*%
%ADD36RoundRect,0.250000X-0.362500X-1.425000X0.362500X-1.425000X0.362500X1.425000X-0.362500X1.425000X0*%
%ADD37C,0.650000*%
%ADD38R,0.600000X1.240000*%
%ADD39R,0.300000X1.240000*%
%ADD40O,1.000000X1.800000*%
%ADD41O,1.000000X2.100000*%
%ADD42RoundRect,0.218750X-0.218750X-0.256250X0.218750X-0.256250X0.218750X0.256250X-0.218750X0.256250X0*%
%ADD43RoundRect,0.102000X0.200000X-0.240000X0.200000X0.240000X-0.200000X0.240000X-0.200000X-0.240000X0*%
%ADD44RoundRect,0.102000X-0.450000X-0.650000X0.450000X-0.650000X0.450000X0.650000X-0.450000X0.650000X0*%
%ADD45RoundRect,0.102000X0.650000X-0.450000X0.650000X0.450000X-0.650000X0.450000X-0.650000X-0.450000X0*%
%ADD46RoundRect,0.102000X0.450000X0.650000X-0.450000X0.650000X-0.450000X-0.650000X0.450000X-0.650000X0*%
%ADD47RoundRect,0.102000X-0.250000X-0.250000X0.250000X-0.250000X0.250000X0.250000X-0.250000X0.250000X0*%
%ADD48RoundRect,0.102000X-0.190000X-0.200000X0.190000X-0.200000X0.190000X0.200000X-0.190000X0.200000X0*%
%ADD49RoundRect,0.102000X-0.250000X0.250000X-0.250000X-0.250000X0.250000X-0.250000X0.250000X0.250000X0*%
%ADD50RoundRect,0.250000X-1.500000X-0.550000X1.500000X-0.550000X1.500000X0.550000X-1.500000X0.550000X0*%
%ADD51RoundRect,0.250000X0.725000X-0.600000X0.725000X0.600000X-0.725000X0.600000X-0.725000X-0.600000X0*%
%ADD52O,1.950000X1.700000*%
G04 APERTURE END LIST*
D10*
X99677690Y-42451283D02*
X100177690Y-42451283D01*
X100177690Y-42451283D02*
X99820547Y-42617950D01*
X99820547Y-42617950D02*
X100177690Y-42784616D01*
X100177690Y-42784616D02*
X99677690Y-42784616D01*
X99630071Y-43356045D02*
X99653880Y-43308426D01*
X99653880Y-43308426D02*
X99701500Y-43260807D01*
X99701500Y-43260807D02*
X99772928Y-43189379D01*
X99772928Y-43189379D02*
X99796738Y-43141760D01*
X99796738Y-43141760D02*
X99796738Y-43094141D01*
X99677690Y-43117950D02*
X99701500Y-43070331D01*
X99701500Y-43070331D02*
X99749119Y-43022712D01*
X99749119Y-43022712D02*
X99844357Y-42998903D01*
X99844357Y-42998903D02*
X100011023Y-42998903D01*
X100011023Y-42998903D02*
X100106261Y-43022712D01*
X100106261Y-43022712D02*
X100153880Y-43070331D01*
X100153880Y-43070331D02*
X100177690Y-43117950D01*
X100177690Y-43117950D02*
X100177690Y-43213188D01*
X100177690Y-43213188D02*
X100153880Y-43260807D01*
X100153880Y-43260807D02*
X100106261Y-43308426D01*
X100106261Y-43308426D02*
X100011023Y-43332236D01*
X100011023Y-43332236D02*
X99844357Y-43332236D01*
X99844357Y-43332236D02*
X99749119Y-43308426D01*
X99749119Y-43308426D02*
X99701500Y-43260807D01*
X99701500Y-43260807D02*
X99677690Y-43213188D01*
X99677690Y-43213188D02*
X99677690Y-43117950D01*
X100177690Y-43475094D02*
X100177690Y-43760808D01*
X99677690Y-43617951D02*
X100177690Y-43617951D01*
X100177690Y-43856046D02*
X100177690Y-44141760D01*
X99677690Y-43998903D02*
X100177690Y-43998903D01*
X99701500Y-44665569D02*
X99677690Y-44736997D01*
X99677690Y-44736997D02*
X99677690Y-44856045D01*
X99677690Y-44856045D02*
X99701500Y-44903664D01*
X99701500Y-44903664D02*
X99725309Y-44927473D01*
X99725309Y-44927473D02*
X99772928Y-44951283D01*
X99772928Y-44951283D02*
X99820547Y-44951283D01*
X99820547Y-44951283D02*
X99868166Y-44927473D01*
X99868166Y-44927473D02*
X99891976Y-44903664D01*
X99891976Y-44903664D02*
X99915785Y-44856045D01*
X99915785Y-44856045D02*
X99939595Y-44760807D01*
X99939595Y-44760807D02*
X99963404Y-44713188D01*
X99963404Y-44713188D02*
X99987214Y-44689378D01*
X99987214Y-44689378D02*
X100034833Y-44665569D01*
X100034833Y-44665569D02*
X100082452Y-44665569D01*
X100082452Y-44665569D02*
X100130071Y-44689378D01*
X100130071Y-44689378D02*
X100153880Y-44713188D01*
X100153880Y-44713188D02*
X100177690Y-44760807D01*
X100177690Y-44760807D02*
X100177690Y-44879854D01*
X100177690Y-44879854D02*
X100153880Y-44951283D01*
X100011023Y-45094140D02*
X100011023Y-45284616D01*
X100177690Y-45165568D02*
X99749119Y-45165568D01*
X99749119Y-45165568D02*
X99701500Y-45189378D01*
X99701500Y-45189378D02*
X99677690Y-45236997D01*
X99677690Y-45236997D02*
X99677690Y-45284616D01*
X99701500Y-45641758D02*
X99677690Y-45594139D01*
X99677690Y-45594139D02*
X99677690Y-45498901D01*
X99677690Y-45498901D02*
X99701500Y-45451282D01*
X99701500Y-45451282D02*
X99749119Y-45427473D01*
X99749119Y-45427473D02*
X99939595Y-45427473D01*
X99939595Y-45427473D02*
X99987214Y-45451282D01*
X99987214Y-45451282D02*
X100011023Y-45498901D01*
X100011023Y-45498901D02*
X100011023Y-45594139D01*
X100011023Y-45594139D02*
X99987214Y-45641758D01*
X99987214Y-45641758D02*
X99939595Y-45665568D01*
X99939595Y-45665568D02*
X99891976Y-45665568D01*
X99891976Y-45665568D02*
X99844357Y-45427473D01*
X100011023Y-45879853D02*
X99511023Y-45879853D01*
X99987214Y-45879853D02*
X100011023Y-45927472D01*
X100011023Y-45927472D02*
X100011023Y-46022710D01*
X100011023Y-46022710D02*
X99987214Y-46070329D01*
X99987214Y-46070329D02*
X99963404Y-46094139D01*
X99963404Y-46094139D02*
X99915785Y-46117948D01*
X99915785Y-46117948D02*
X99772928Y-46117948D01*
X99772928Y-46117948D02*
X99725309Y-46094139D01*
X99725309Y-46094139D02*
X99701500Y-46070329D01*
X99701500Y-46070329D02*
X99677690Y-46022710D01*
X99677690Y-46022710D02*
X99677690Y-45927472D01*
X99677690Y-45927472D02*
X99701500Y-45879853D01*
X100011023Y-46332234D02*
X99511023Y-46332234D01*
X99987214Y-46332234D02*
X100011023Y-46379853D01*
X100011023Y-46379853D02*
X100011023Y-46475091D01*
X100011023Y-46475091D02*
X99987214Y-46522710D01*
X99987214Y-46522710D02*
X99963404Y-46546520D01*
X99963404Y-46546520D02*
X99915785Y-46570329D01*
X99915785Y-46570329D02*
X99772928Y-46570329D01*
X99772928Y-46570329D02*
X99725309Y-46546520D01*
X99725309Y-46546520D02*
X99701500Y-46522710D01*
X99701500Y-46522710D02*
X99677690Y-46475091D01*
X99677690Y-46475091D02*
X99677690Y-46379853D01*
X99677690Y-46379853D02*
X99701500Y-46332234D01*
X99701500Y-46975091D02*
X99677690Y-46927472D01*
X99677690Y-46927472D02*
X99677690Y-46832234D01*
X99677690Y-46832234D02*
X99701500Y-46784615D01*
X99701500Y-46784615D02*
X99749119Y-46760806D01*
X99749119Y-46760806D02*
X99939595Y-46760806D01*
X99939595Y-46760806D02*
X99987214Y-46784615D01*
X99987214Y-46784615D02*
X100011023Y-46832234D01*
X100011023Y-46832234D02*
X100011023Y-46927472D01*
X100011023Y-46927472D02*
X99987214Y-46975091D01*
X99987214Y-46975091D02*
X99939595Y-46998901D01*
X99939595Y-46998901D02*
X99891976Y-46998901D01*
X99891976Y-46998901D02*
X99844357Y-46760806D01*
X99677690Y-47213186D02*
X100011023Y-47213186D01*
X99915785Y-47213186D02*
X99963404Y-47236996D01*
X99963404Y-47236996D02*
X99987214Y-47260805D01*
X99987214Y-47260805D02*
X100011023Y-47308424D01*
X100011023Y-47308424D02*
X100011023Y-47356043D01*
X99206023Y-42403664D02*
X98872690Y-42522712D01*
X98872690Y-42522712D02*
X99206023Y-42641759D01*
X98872690Y-43475092D02*
X98872690Y-43189378D01*
X98872690Y-43332235D02*
X99372690Y-43332235D01*
X99372690Y-43332235D02*
X99301261Y-43284616D01*
X99301261Y-43284616D02*
X99253642Y-43236997D01*
X99253642Y-43236997D02*
X99229833Y-43189378D01*
X98920309Y-43689377D02*
X98896500Y-43713187D01*
X98896500Y-43713187D02*
X98872690Y-43689377D01*
X98872690Y-43689377D02*
X98896500Y-43665568D01*
X98896500Y-43665568D02*
X98920309Y-43689377D01*
X98920309Y-43689377D02*
X98872690Y-43689377D01*
X99372690Y-44022710D02*
X99372690Y-44070329D01*
X99372690Y-44070329D02*
X99348880Y-44117948D01*
X99348880Y-44117948D02*
X99325071Y-44141758D01*
X99325071Y-44141758D02*
X99277452Y-44165567D01*
X99277452Y-44165567D02*
X99182214Y-44189377D01*
X99182214Y-44189377D02*
X99063166Y-44189377D01*
X99063166Y-44189377D02*
X98967928Y-44165567D01*
X98967928Y-44165567D02*
X98920309Y-44141758D01*
X98920309Y-44141758D02*
X98896500Y-44117948D01*
X98896500Y-44117948D02*
X98872690Y-44070329D01*
X98872690Y-44070329D02*
X98872690Y-44022710D01*
X98872690Y-44022710D02*
X98896500Y-43975091D01*
X98896500Y-43975091D02*
X98920309Y-43951282D01*
X98920309Y-43951282D02*
X98967928Y-43927472D01*
X98967928Y-43927472D02*
X99063166Y-43903663D01*
X99063166Y-43903663D02*
X99182214Y-43903663D01*
X99182214Y-43903663D02*
X99277452Y-43927472D01*
X99277452Y-43927472D02*
X99325071Y-43951282D01*
X99325071Y-43951282D02*
X99348880Y-43975091D01*
X99348880Y-43975091D02*
X99372690Y-44022710D01*
X98567690Y-42546521D02*
X98567690Y-42641759D01*
X98567690Y-42641759D02*
X98543880Y-42689378D01*
X98543880Y-42689378D02*
X98496261Y-42736997D01*
X98496261Y-42736997D02*
X98401023Y-42760807D01*
X98401023Y-42760807D02*
X98234357Y-42760807D01*
X98234357Y-42760807D02*
X98139119Y-42736997D01*
X98139119Y-42736997D02*
X98091500Y-42689378D01*
X98091500Y-42689378D02*
X98067690Y-42641759D01*
X98067690Y-42641759D02*
X98067690Y-42546521D01*
X98067690Y-42546521D02*
X98091500Y-42498902D01*
X98091500Y-42498902D02*
X98139119Y-42451283D01*
X98139119Y-42451283D02*
X98234357Y-42427474D01*
X98234357Y-42427474D02*
X98401023Y-42427474D01*
X98401023Y-42427474D02*
X98496261Y-42451283D01*
X98496261Y-42451283D02*
X98543880Y-42498902D01*
X98543880Y-42498902D02*
X98567690Y-42546521D01*
X98067690Y-43046522D02*
X98091500Y-42998903D01*
X98091500Y-42998903D02*
X98139119Y-42975093D01*
X98139119Y-42975093D02*
X98567690Y-42975093D01*
X98067690Y-43236998D02*
X98401023Y-43236998D01*
X98567690Y-43236998D02*
X98543880Y-43213189D01*
X98543880Y-43213189D02*
X98520071Y-43236998D01*
X98520071Y-43236998D02*
X98543880Y-43260808D01*
X98543880Y-43260808D02*
X98567690Y-43236998D01*
X98567690Y-43236998D02*
X98520071Y-43236998D01*
X98401023Y-43427474D02*
X98067690Y-43546522D01*
X98067690Y-43546522D02*
X98401023Y-43665569D01*
X98091500Y-44046521D02*
X98067690Y-43998902D01*
X98067690Y-43998902D02*
X98067690Y-43903664D01*
X98067690Y-43903664D02*
X98091500Y-43856045D01*
X98091500Y-43856045D02*
X98139119Y-43832236D01*
X98139119Y-43832236D02*
X98329595Y-43832236D01*
X98329595Y-43832236D02*
X98377214Y-43856045D01*
X98377214Y-43856045D02*
X98401023Y-43903664D01*
X98401023Y-43903664D02*
X98401023Y-43998902D01*
X98401023Y-43998902D02*
X98377214Y-44046521D01*
X98377214Y-44046521D02*
X98329595Y-44070331D01*
X98329595Y-44070331D02*
X98281976Y-44070331D01*
X98281976Y-44070331D02*
X98234357Y-43832236D01*
X98067690Y-44284616D02*
X98401023Y-44284616D01*
X98305785Y-44284616D02*
X98353404Y-44308426D01*
X98353404Y-44308426D02*
X98377214Y-44332235D01*
X98377214Y-44332235D02*
X98401023Y-44379854D01*
X98401023Y-44379854D02*
X98401023Y-44427473D01*
X98567690Y-44951283D02*
X98472452Y-44951283D01*
X98567690Y-45141759D02*
X98472452Y-45141759D01*
X98091500Y-45332235D02*
X98067690Y-45403663D01*
X98067690Y-45403663D02*
X98067690Y-45522711D01*
X98067690Y-45522711D02*
X98091500Y-45570330D01*
X98091500Y-45570330D02*
X98115309Y-45594139D01*
X98115309Y-45594139D02*
X98162928Y-45617949D01*
X98162928Y-45617949D02*
X98210547Y-45617949D01*
X98210547Y-45617949D02*
X98258166Y-45594139D01*
X98258166Y-45594139D02*
X98281976Y-45570330D01*
X98281976Y-45570330D02*
X98305785Y-45522711D01*
X98305785Y-45522711D02*
X98329595Y-45427473D01*
X98329595Y-45427473D02*
X98353404Y-45379854D01*
X98353404Y-45379854D02*
X98377214Y-45356044D01*
X98377214Y-45356044D02*
X98424833Y-45332235D01*
X98424833Y-45332235D02*
X98472452Y-45332235D01*
X98472452Y-45332235D02*
X98520071Y-45356044D01*
X98520071Y-45356044D02*
X98543880Y-45379854D01*
X98543880Y-45379854D02*
X98567690Y-45427473D01*
X98567690Y-45427473D02*
X98567690Y-45546520D01*
X98567690Y-45546520D02*
X98543880Y-45617949D01*
X98401023Y-45832234D02*
X97901023Y-45832234D01*
X98377214Y-45832234D02*
X98401023Y-45879853D01*
X98401023Y-45879853D02*
X98401023Y-45975091D01*
X98401023Y-45975091D02*
X98377214Y-46022710D01*
X98377214Y-46022710D02*
X98353404Y-46046520D01*
X98353404Y-46046520D02*
X98305785Y-46070329D01*
X98305785Y-46070329D02*
X98162928Y-46070329D01*
X98162928Y-46070329D02*
X98115309Y-46046520D01*
X98115309Y-46046520D02*
X98091500Y-46022710D01*
X98091500Y-46022710D02*
X98067690Y-45975091D01*
X98067690Y-45975091D02*
X98067690Y-45879853D01*
X98067690Y-45879853D02*
X98091500Y-45832234D01*
X98067690Y-46284615D02*
X98401023Y-46284615D01*
X98305785Y-46284615D02*
X98353404Y-46308425D01*
X98353404Y-46308425D02*
X98377214Y-46332234D01*
X98377214Y-46332234D02*
X98401023Y-46379853D01*
X98401023Y-46379853D02*
X98401023Y-46427472D01*
X98067690Y-46665568D02*
X98091500Y-46617949D01*
X98091500Y-46617949D02*
X98115309Y-46594139D01*
X98115309Y-46594139D02*
X98162928Y-46570330D01*
X98162928Y-46570330D02*
X98305785Y-46570330D01*
X98305785Y-46570330D02*
X98353404Y-46594139D01*
X98353404Y-46594139D02*
X98377214Y-46617949D01*
X98377214Y-46617949D02*
X98401023Y-46665568D01*
X98401023Y-46665568D02*
X98401023Y-46736996D01*
X98401023Y-46736996D02*
X98377214Y-46784615D01*
X98377214Y-46784615D02*
X98353404Y-46808425D01*
X98353404Y-46808425D02*
X98305785Y-46832234D01*
X98305785Y-46832234D02*
X98162928Y-46832234D01*
X98162928Y-46832234D02*
X98115309Y-46808425D01*
X98115309Y-46808425D02*
X98091500Y-46784615D01*
X98091500Y-46784615D02*
X98067690Y-46736996D01*
X98067690Y-46736996D02*
X98067690Y-46665568D01*
X98067690Y-46998901D02*
X98401023Y-47260806D01*
X98401023Y-46998901D02*
X98067690Y-47260806D01*
X98067690Y-47403663D02*
X98401023Y-47665568D01*
X98401023Y-47403663D02*
X98067690Y-47665568D01*
X98401023Y-47808425D02*
X98067690Y-47927473D01*
X98401023Y-48046520D02*
X98067690Y-47927473D01*
X98067690Y-47927473D02*
X97948642Y-47879854D01*
X97948642Y-47879854D02*
X97924833Y-47856044D01*
X97924833Y-47856044D02*
X97901023Y-47808425D01*
X98567690Y-48213187D02*
X98472452Y-48213187D01*
X98567690Y-48403663D02*
X98472452Y-48403663D01*
X98067690Y-48998900D02*
X98567690Y-48998900D01*
X98329595Y-48998900D02*
X98329595Y-49284614D01*
X98067690Y-49284614D02*
X98567690Y-49284614D01*
X98091500Y-49713186D02*
X98067690Y-49665567D01*
X98067690Y-49665567D02*
X98067690Y-49570329D01*
X98067690Y-49570329D02*
X98091500Y-49522710D01*
X98091500Y-49522710D02*
X98139119Y-49498901D01*
X98139119Y-49498901D02*
X98329595Y-49498901D01*
X98329595Y-49498901D02*
X98377214Y-49522710D01*
X98377214Y-49522710D02*
X98401023Y-49570329D01*
X98401023Y-49570329D02*
X98401023Y-49665567D01*
X98401023Y-49665567D02*
X98377214Y-49713186D01*
X98377214Y-49713186D02*
X98329595Y-49736996D01*
X98329595Y-49736996D02*
X98281976Y-49736996D01*
X98281976Y-49736996D02*
X98234357Y-49498901D01*
X98067690Y-49951281D02*
X98401023Y-49951281D01*
X98305785Y-49951281D02*
X98353404Y-49975091D01*
X98353404Y-49975091D02*
X98377214Y-49998900D01*
X98377214Y-49998900D02*
X98401023Y-50046519D01*
X98401023Y-50046519D02*
X98401023Y-50094138D01*
X98091500Y-50236996D02*
X98067690Y-50284615D01*
X98067690Y-50284615D02*
X98067690Y-50379853D01*
X98067690Y-50379853D02*
X98091500Y-50427472D01*
X98091500Y-50427472D02*
X98139119Y-50451281D01*
X98139119Y-50451281D02*
X98162928Y-50451281D01*
X98162928Y-50451281D02*
X98210547Y-50427472D01*
X98210547Y-50427472D02*
X98234357Y-50379853D01*
X98234357Y-50379853D02*
X98234357Y-50308424D01*
X98234357Y-50308424D02*
X98258166Y-50260805D01*
X98258166Y-50260805D02*
X98305785Y-50236996D01*
X98305785Y-50236996D02*
X98329595Y-50236996D01*
X98329595Y-50236996D02*
X98377214Y-50260805D01*
X98377214Y-50260805D02*
X98401023Y-50308424D01*
X98401023Y-50308424D02*
X98401023Y-50379853D01*
X98401023Y-50379853D02*
X98377214Y-50427472D01*
X98091500Y-50641758D02*
X98067690Y-50689377D01*
X98067690Y-50689377D02*
X98067690Y-50784615D01*
X98067690Y-50784615D02*
X98091500Y-50832234D01*
X98091500Y-50832234D02*
X98139119Y-50856043D01*
X98139119Y-50856043D02*
X98162928Y-50856043D01*
X98162928Y-50856043D02*
X98210547Y-50832234D01*
X98210547Y-50832234D02*
X98234357Y-50784615D01*
X98234357Y-50784615D02*
X98234357Y-50713186D01*
X98234357Y-50713186D02*
X98258166Y-50665567D01*
X98258166Y-50665567D02*
X98305785Y-50641758D01*
X98305785Y-50641758D02*
X98329595Y-50641758D01*
X98329595Y-50641758D02*
X98377214Y-50665567D01*
X98377214Y-50665567D02*
X98401023Y-50713186D01*
X98401023Y-50713186D02*
X98401023Y-50784615D01*
X98401023Y-50784615D02*
X98377214Y-50832234D01*
D11*
X124913095Y-64291819D02*
X124913095Y-65101342D01*
X124913095Y-65101342D02*
X124960714Y-65196580D01*
X124960714Y-65196580D02*
X125008333Y-65244200D01*
X125008333Y-65244200D02*
X125103571Y-65291819D01*
X125103571Y-65291819D02*
X125294047Y-65291819D01*
X125294047Y-65291819D02*
X125389285Y-65244200D01*
X125389285Y-65244200D02*
X125436904Y-65196580D01*
X125436904Y-65196580D02*
X125484523Y-65101342D01*
X125484523Y-65101342D02*
X125484523Y-64291819D01*
X126389285Y-64625152D02*
X126389285Y-65291819D01*
X126151190Y-64244200D02*
X125913095Y-64958485D01*
X125913095Y-64958485D02*
X126532142Y-64958485D01*
X126025595Y-61266818D02*
X126025595Y-62076341D01*
X126025595Y-62076341D02*
X126073214Y-62171579D01*
X126073214Y-62171579D02*
X126120833Y-62219199D01*
X126120833Y-62219199D02*
X126216071Y-62266818D01*
X126216071Y-62266818D02*
X126406547Y-62266818D01*
X126406547Y-62266818D02*
X126501785Y-62219199D01*
X126501785Y-62219199D02*
X126549404Y-62171579D01*
X126549404Y-62171579D02*
X126597023Y-62076341D01*
X126597023Y-62076341D02*
X126597023Y-61266818D01*
X127501785Y-61600151D02*
X127501785Y-62266818D01*
X127263690Y-61219199D02*
X127025595Y-61933484D01*
X127025595Y-61933484D02*
X127644642Y-61933484D01*
X98238095Y-59454819D02*
X98238095Y-60264342D01*
X98238095Y-60264342D02*
X98285714Y-60359580D01*
X98285714Y-60359580D02*
X98333333Y-60407200D01*
X98333333Y-60407200D02*
X98428571Y-60454819D01*
X98428571Y-60454819D02*
X98619047Y-60454819D01*
X98619047Y-60454819D02*
X98714285Y-60407200D01*
X98714285Y-60407200D02*
X98761904Y-60359580D01*
X98761904Y-60359580D02*
X98809523Y-60264342D01*
X98809523Y-60264342D02*
X98809523Y-59454819D01*
X99190476Y-59454819D02*
X99809523Y-59454819D01*
X99809523Y-59454819D02*
X99476190Y-59835771D01*
X99476190Y-59835771D02*
X99619047Y-59835771D01*
X99619047Y-59835771D02*
X99714285Y-59883390D01*
X99714285Y-59883390D02*
X99761904Y-59931009D01*
X99761904Y-59931009D02*
X99809523Y-60026247D01*
X99809523Y-60026247D02*
X99809523Y-60264342D01*
X99809523Y-60264342D02*
X99761904Y-60359580D01*
X99761904Y-60359580D02*
X99714285Y-60407200D01*
X99714285Y-60407200D02*
X99619047Y-60454819D01*
X99619047Y-60454819D02*
X99333333Y-60454819D01*
X99333333Y-60454819D02*
X99238095Y-60407200D01*
X99238095Y-60407200D02*
X99190476Y-60359580D01*
X99238095Y-70954819D02*
X99238095Y-71764342D01*
X99238095Y-71764342D02*
X99285714Y-71859580D01*
X99285714Y-71859580D02*
X99333333Y-71907200D01*
X99333333Y-71907200D02*
X99428571Y-71954819D01*
X99428571Y-71954819D02*
X99619047Y-71954819D01*
X99619047Y-71954819D02*
X99714285Y-71907200D01*
X99714285Y-71907200D02*
X99761904Y-71859580D01*
X99761904Y-71859580D02*
X99809523Y-71764342D01*
X99809523Y-71764342D02*
X99809523Y-70954819D01*
X100238095Y-71050057D02*
X100285714Y-71002438D01*
X100285714Y-71002438D02*
X100380952Y-70954819D01*
X100380952Y-70954819D02*
X100619047Y-70954819D01*
X100619047Y-70954819D02*
X100714285Y-71002438D01*
X100714285Y-71002438D02*
X100761904Y-71050057D01*
X100761904Y-71050057D02*
X100809523Y-71145295D01*
X100809523Y-71145295D02*
X100809523Y-71240533D01*
X100809523Y-71240533D02*
X100761904Y-71383390D01*
X100761904Y-71383390D02*
X100190476Y-71954819D01*
X100190476Y-71954819D02*
X100809523Y-71954819D01*
X96558300Y-69454819D02*
X96558300Y-69692914D01*
X96320205Y-69597676D02*
X96558300Y-69692914D01*
X96558300Y-69692914D02*
X96796395Y-69597676D01*
X96415443Y-69883390D02*
X96558300Y-69692914D01*
X96558300Y-69692914D02*
X96701157Y-69883390D01*
X96558300Y-69454819D02*
X96558300Y-69692914D01*
X96320205Y-69597676D02*
X96558300Y-69692914D01*
X96558300Y-69692914D02*
X96796395Y-69597676D01*
X96415443Y-69883390D02*
X96558300Y-69692914D01*
X96558300Y-69692914D02*
X96701157Y-69883390D01*
X119816667Y-48522200D02*
X119959524Y-48569819D01*
X119959524Y-48569819D02*
X120197619Y-48569819D01*
X120197619Y-48569819D02*
X120292857Y-48522200D01*
X120292857Y-48522200D02*
X120340476Y-48474580D01*
X120340476Y-48474580D02*
X120388095Y-48379342D01*
X120388095Y-48379342D02*
X120388095Y-48284104D01*
X120388095Y-48284104D02*
X120340476Y-48188866D01*
X120340476Y-48188866D02*
X120292857Y-48141247D01*
X120292857Y-48141247D02*
X120197619Y-48093628D01*
X120197619Y-48093628D02*
X120007143Y-48046009D01*
X120007143Y-48046009D02*
X119911905Y-47998390D01*
X119911905Y-47998390D02*
X119864286Y-47950771D01*
X119864286Y-47950771D02*
X119816667Y-47855533D01*
X119816667Y-47855533D02*
X119816667Y-47760295D01*
X119816667Y-47760295D02*
X119864286Y-47665057D01*
X119864286Y-47665057D02*
X119911905Y-47617438D01*
X119911905Y-47617438D02*
X120007143Y-47569819D01*
X120007143Y-47569819D02*
X120245238Y-47569819D01*
X120245238Y-47569819D02*
X120388095Y-47617438D01*
X120721429Y-47569819D02*
X120959524Y-48569819D01*
X120959524Y-48569819D02*
X121150000Y-47855533D01*
X121150000Y-47855533D02*
X121340476Y-48569819D01*
X121340476Y-48569819D02*
X121578572Y-47569819D01*
X121911905Y-47665057D02*
X121959524Y-47617438D01*
X121959524Y-47617438D02*
X122054762Y-47569819D01*
X122054762Y-47569819D02*
X122292857Y-47569819D01*
X122292857Y-47569819D02*
X122388095Y-47617438D01*
X122388095Y-47617438D02*
X122435714Y-47665057D01*
X122435714Y-47665057D02*
X122483333Y-47760295D01*
X122483333Y-47760295D02*
X122483333Y-47855533D01*
X122483333Y-47855533D02*
X122435714Y-47998390D01*
X122435714Y-47998390D02*
X121864286Y-48569819D01*
X121864286Y-48569819D02*
X122483333Y-48569819D01*
X119741667Y-41272200D02*
X119884524Y-41319819D01*
X119884524Y-41319819D02*
X120122619Y-41319819D01*
X120122619Y-41319819D02*
X120217857Y-41272200D01*
X120217857Y-41272200D02*
X120265476Y-41224580D01*
X120265476Y-41224580D02*
X120313095Y-41129342D01*
X120313095Y-41129342D02*
X120313095Y-41034104D01*
X120313095Y-41034104D02*
X120265476Y-40938866D01*
X120265476Y-40938866D02*
X120217857Y-40891247D01*
X120217857Y-40891247D02*
X120122619Y-40843628D01*
X120122619Y-40843628D02*
X119932143Y-40796009D01*
X119932143Y-40796009D02*
X119836905Y-40748390D01*
X119836905Y-40748390D02*
X119789286Y-40700771D01*
X119789286Y-40700771D02*
X119741667Y-40605533D01*
X119741667Y-40605533D02*
X119741667Y-40510295D01*
X119741667Y-40510295D02*
X119789286Y-40415057D01*
X119789286Y-40415057D02*
X119836905Y-40367438D01*
X119836905Y-40367438D02*
X119932143Y-40319819D01*
X119932143Y-40319819D02*
X120170238Y-40319819D01*
X120170238Y-40319819D02*
X120313095Y-40367438D01*
X120646429Y-40319819D02*
X120884524Y-41319819D01*
X120884524Y-41319819D02*
X121075000Y-40605533D01*
X121075000Y-40605533D02*
X121265476Y-41319819D01*
X121265476Y-41319819D02*
X121503572Y-40319819D01*
X122408333Y-41319819D02*
X121836905Y-41319819D01*
X122122619Y-41319819D02*
X122122619Y-40319819D01*
X122122619Y-40319819D02*
X122027381Y-40462676D01*
X122027381Y-40462676D02*
X121932143Y-40557914D01*
X121932143Y-40557914D02*
X121836905Y-40605533D01*
X120607142Y-77704819D02*
X120273809Y-77228628D01*
X120035714Y-77704819D02*
X120035714Y-76704819D01*
X120035714Y-76704819D02*
X120416666Y-76704819D01*
X120416666Y-76704819D02*
X120511904Y-76752438D01*
X120511904Y-76752438D02*
X120559523Y-76800057D01*
X120559523Y-76800057D02*
X120607142Y-76895295D01*
X120607142Y-76895295D02*
X120607142Y-77038152D01*
X120607142Y-77038152D02*
X120559523Y-77133390D01*
X120559523Y-77133390D02*
X120511904Y-77181009D01*
X120511904Y-77181009D02*
X120416666Y-77228628D01*
X120416666Y-77228628D02*
X120035714Y-77228628D01*
X121559523Y-77704819D02*
X120988095Y-77704819D01*
X121273809Y-77704819D02*
X121273809Y-76704819D01*
X121273809Y-76704819D02*
X121178571Y-76847676D01*
X121178571Y-76847676D02*
X121083333Y-76942914D01*
X121083333Y-76942914D02*
X120988095Y-76990533D01*
X122464285Y-76704819D02*
X121988095Y-76704819D01*
X121988095Y-76704819D02*
X121940476Y-77181009D01*
X121940476Y-77181009D02*
X121988095Y-77133390D01*
X121988095Y-77133390D02*
X122083333Y-77085771D01*
X122083333Y-77085771D02*
X122321428Y-77085771D01*
X122321428Y-77085771D02*
X122416666Y-77133390D01*
X122416666Y-77133390D02*
X122464285Y-77181009D01*
X122464285Y-77181009D02*
X122511904Y-77276247D01*
X122511904Y-77276247D02*
X122511904Y-77514342D01*
X122511904Y-77514342D02*
X122464285Y-77609580D01*
X122464285Y-77609580D02*
X122416666Y-77657200D01*
X122416666Y-77657200D02*
X122321428Y-77704819D01*
X122321428Y-77704819D02*
X122083333Y-77704819D01*
X122083333Y-77704819D02*
X121988095Y-77657200D01*
X121988095Y-77657200D02*
X121940476Y-77609580D01*
X122167142Y-60524819D02*
X121833809Y-60048628D01*
X121595714Y-60524819D02*
X121595714Y-59524819D01*
X121595714Y-59524819D02*
X121976666Y-59524819D01*
X121976666Y-59524819D02*
X122071904Y-59572438D01*
X122071904Y-59572438D02*
X122119523Y-59620057D01*
X122119523Y-59620057D02*
X122167142Y-59715295D01*
X122167142Y-59715295D02*
X122167142Y-59858152D01*
X122167142Y-59858152D02*
X122119523Y-59953390D01*
X122119523Y-59953390D02*
X122071904Y-60001009D01*
X122071904Y-60001009D02*
X121976666Y-60048628D01*
X121976666Y-60048628D02*
X121595714Y-60048628D01*
X123119523Y-60524819D02*
X122548095Y-60524819D01*
X122833809Y-60524819D02*
X122833809Y-59524819D01*
X122833809Y-59524819D02*
X122738571Y-59667676D01*
X122738571Y-59667676D02*
X122643333Y-59762914D01*
X122643333Y-59762914D02*
X122548095Y-59810533D01*
X123976666Y-59858152D02*
X123976666Y-60524819D01*
X123738571Y-59477200D02*
X123500476Y-60191485D01*
X123500476Y-60191485D02*
X124119523Y-60191485D01*
X122167142Y-55524819D02*
X121833809Y-55048628D01*
X121595714Y-55524819D02*
X121595714Y-54524819D01*
X121595714Y-54524819D02*
X121976666Y-54524819D01*
X121976666Y-54524819D02*
X122071904Y-54572438D01*
X122071904Y-54572438D02*
X122119523Y-54620057D01*
X122119523Y-54620057D02*
X122167142Y-54715295D01*
X122167142Y-54715295D02*
X122167142Y-54858152D01*
X122167142Y-54858152D02*
X122119523Y-54953390D01*
X122119523Y-54953390D02*
X122071904Y-55001009D01*
X122071904Y-55001009D02*
X121976666Y-55048628D01*
X121976666Y-55048628D02*
X121595714Y-55048628D01*
X123119523Y-55524819D02*
X122548095Y-55524819D01*
X122833809Y-55524819D02*
X122833809Y-54524819D01*
X122833809Y-54524819D02*
X122738571Y-54667676D01*
X122738571Y-54667676D02*
X122643333Y-54762914D01*
X122643333Y-54762914D02*
X122548095Y-54810533D01*
X123452857Y-54524819D02*
X124071904Y-54524819D01*
X124071904Y-54524819D02*
X123738571Y-54905771D01*
X123738571Y-54905771D02*
X123881428Y-54905771D01*
X123881428Y-54905771D02*
X123976666Y-54953390D01*
X123976666Y-54953390D02*
X124024285Y-55001009D01*
X124024285Y-55001009D02*
X124071904Y-55096247D01*
X124071904Y-55096247D02*
X124071904Y-55334342D01*
X124071904Y-55334342D02*
X124024285Y-55429580D01*
X124024285Y-55429580D02*
X123976666Y-55477200D01*
X123976666Y-55477200D02*
X123881428Y-55524819D01*
X123881428Y-55524819D02*
X123595714Y-55524819D01*
X123595714Y-55524819D02*
X123500476Y-55477200D01*
X123500476Y-55477200D02*
X123452857Y-55429580D01*
D10*
X90678571Y-70724809D02*
X90511905Y-70486714D01*
X90392857Y-70724809D02*
X90392857Y-70224809D01*
X90392857Y-70224809D02*
X90583333Y-70224809D01*
X90583333Y-70224809D02*
X90630952Y-70248619D01*
X90630952Y-70248619D02*
X90654762Y-70272428D01*
X90654762Y-70272428D02*
X90678571Y-70320047D01*
X90678571Y-70320047D02*
X90678571Y-70391476D01*
X90678571Y-70391476D02*
X90654762Y-70439095D01*
X90654762Y-70439095D02*
X90630952Y-70462904D01*
X90630952Y-70462904D02*
X90583333Y-70486714D01*
X90583333Y-70486714D02*
X90392857Y-70486714D01*
X91154762Y-70724809D02*
X90869048Y-70724809D01*
X91011905Y-70724809D02*
X91011905Y-70224809D01*
X91011905Y-70224809D02*
X90964286Y-70296238D01*
X90964286Y-70296238D02*
X90916667Y-70343857D01*
X90916667Y-70343857D02*
X90869048Y-70367666D01*
X91345238Y-70272428D02*
X91369047Y-70248619D01*
X91369047Y-70248619D02*
X91416666Y-70224809D01*
X91416666Y-70224809D02*
X91535714Y-70224809D01*
X91535714Y-70224809D02*
X91583333Y-70248619D01*
X91583333Y-70248619D02*
X91607142Y-70272428D01*
X91607142Y-70272428D02*
X91630952Y-70320047D01*
X91630952Y-70320047D02*
X91630952Y-70367666D01*
X91630952Y-70367666D02*
X91607142Y-70439095D01*
X91607142Y-70439095D02*
X91321428Y-70724809D01*
X91321428Y-70724809D02*
X91630952Y-70724809D01*
D11*
X131384819Y-59642857D02*
X130908628Y-59976190D01*
X131384819Y-60214285D02*
X130384819Y-60214285D01*
X130384819Y-60214285D02*
X130384819Y-59833333D01*
X130384819Y-59833333D02*
X130432438Y-59738095D01*
X130432438Y-59738095D02*
X130480057Y-59690476D01*
X130480057Y-59690476D02*
X130575295Y-59642857D01*
X130575295Y-59642857D02*
X130718152Y-59642857D01*
X130718152Y-59642857D02*
X130813390Y-59690476D01*
X130813390Y-59690476D02*
X130861009Y-59738095D01*
X130861009Y-59738095D02*
X130908628Y-59833333D01*
X130908628Y-59833333D02*
X130908628Y-60214285D01*
X131384819Y-58690476D02*
X131384819Y-59261904D01*
X131384819Y-58976190D02*
X130384819Y-58976190D01*
X130384819Y-58976190D02*
X130527676Y-59071428D01*
X130527676Y-59071428D02*
X130622914Y-59166666D01*
X130622914Y-59166666D02*
X130670533Y-59261904D01*
X131384819Y-57738095D02*
X131384819Y-58309523D01*
X131384819Y-58023809D02*
X130384819Y-58023809D01*
X130384819Y-58023809D02*
X130527676Y-58119047D01*
X130527676Y-58119047D02*
X130622914Y-58214285D01*
X130622914Y-58214285D02*
X130670533Y-58309523D01*
X128134819Y-59642857D02*
X127658628Y-59976190D01*
X128134819Y-60214285D02*
X127134819Y-60214285D01*
X127134819Y-60214285D02*
X127134819Y-59833333D01*
X127134819Y-59833333D02*
X127182438Y-59738095D01*
X127182438Y-59738095D02*
X127230057Y-59690476D01*
X127230057Y-59690476D02*
X127325295Y-59642857D01*
X127325295Y-59642857D02*
X127468152Y-59642857D01*
X127468152Y-59642857D02*
X127563390Y-59690476D01*
X127563390Y-59690476D02*
X127611009Y-59738095D01*
X127611009Y-59738095D02*
X127658628Y-59833333D01*
X127658628Y-59833333D02*
X127658628Y-60214285D01*
X128134819Y-58690476D02*
X128134819Y-59261904D01*
X128134819Y-58976190D02*
X127134819Y-58976190D01*
X127134819Y-58976190D02*
X127277676Y-59071428D01*
X127277676Y-59071428D02*
X127372914Y-59166666D01*
X127372914Y-59166666D02*
X127420533Y-59261904D01*
X127134819Y-58071428D02*
X127134819Y-57976190D01*
X127134819Y-57976190D02*
X127182438Y-57880952D01*
X127182438Y-57880952D02*
X127230057Y-57833333D01*
X127230057Y-57833333D02*
X127325295Y-57785714D01*
X127325295Y-57785714D02*
X127515771Y-57738095D01*
X127515771Y-57738095D02*
X127753866Y-57738095D01*
X127753866Y-57738095D02*
X127944342Y-57785714D01*
X127944342Y-57785714D02*
X128039580Y-57833333D01*
X128039580Y-57833333D02*
X128087200Y-57880952D01*
X128087200Y-57880952D02*
X128134819Y-57976190D01*
X128134819Y-57976190D02*
X128134819Y-58071428D01*
X128134819Y-58071428D02*
X128087200Y-58166666D01*
X128087200Y-58166666D02*
X128039580Y-58214285D01*
X128039580Y-58214285D02*
X127944342Y-58261904D01*
X127944342Y-58261904D02*
X127753866Y-58309523D01*
X127753866Y-58309523D02*
X127515771Y-58309523D01*
X127515771Y-58309523D02*
X127325295Y-58261904D01*
X127325295Y-58261904D02*
X127230057Y-58214285D01*
X127230057Y-58214285D02*
X127182438Y-58166666D01*
X127182438Y-58166666D02*
X127134819Y-58071428D01*
X100424819Y-64916666D02*
X99948628Y-65249999D01*
X100424819Y-65488094D02*
X99424819Y-65488094D01*
X99424819Y-65488094D02*
X99424819Y-65107142D01*
X99424819Y-65107142D02*
X99472438Y-65011904D01*
X99472438Y-65011904D02*
X99520057Y-64964285D01*
X99520057Y-64964285D02*
X99615295Y-64916666D01*
X99615295Y-64916666D02*
X99758152Y-64916666D01*
X99758152Y-64916666D02*
X99853390Y-64964285D01*
X99853390Y-64964285D02*
X99901009Y-65011904D01*
X99901009Y-65011904D02*
X99948628Y-65107142D01*
X99948628Y-65107142D02*
X99948628Y-65488094D01*
X100424819Y-64440475D02*
X100424819Y-64249999D01*
X100424819Y-64249999D02*
X100377200Y-64154761D01*
X100377200Y-64154761D02*
X100329580Y-64107142D01*
X100329580Y-64107142D02*
X100186723Y-64011904D01*
X100186723Y-64011904D02*
X99996247Y-63964285D01*
X99996247Y-63964285D02*
X99615295Y-63964285D01*
X99615295Y-63964285D02*
X99520057Y-64011904D01*
X99520057Y-64011904D02*
X99472438Y-64059523D01*
X99472438Y-64059523D02*
X99424819Y-64154761D01*
X99424819Y-64154761D02*
X99424819Y-64345237D01*
X99424819Y-64345237D02*
X99472438Y-64440475D01*
X99472438Y-64440475D02*
X99520057Y-64488094D01*
X99520057Y-64488094D02*
X99615295Y-64535713D01*
X99615295Y-64535713D02*
X99853390Y-64535713D01*
X99853390Y-64535713D02*
X99948628Y-64488094D01*
X99948628Y-64488094D02*
X99996247Y-64440475D01*
X99996247Y-64440475D02*
X100043866Y-64345237D01*
X100043866Y-64345237D02*
X100043866Y-64154761D01*
X100043866Y-64154761D02*
X99996247Y-64059523D01*
X99996247Y-64059523D02*
X99948628Y-64011904D01*
X99948628Y-64011904D02*
X99853390Y-63964285D01*
X97384819Y-64879166D02*
X96908628Y-65212499D01*
X97384819Y-65450594D02*
X96384819Y-65450594D01*
X96384819Y-65450594D02*
X96384819Y-65069642D01*
X96384819Y-65069642D02*
X96432438Y-64974404D01*
X96432438Y-64974404D02*
X96480057Y-64926785D01*
X96480057Y-64926785D02*
X96575295Y-64879166D01*
X96575295Y-64879166D02*
X96718152Y-64879166D01*
X96718152Y-64879166D02*
X96813390Y-64926785D01*
X96813390Y-64926785D02*
X96861009Y-64974404D01*
X96861009Y-64974404D02*
X96908628Y-65069642D01*
X96908628Y-65069642D02*
X96908628Y-65450594D01*
X96813390Y-64307737D02*
X96765771Y-64402975D01*
X96765771Y-64402975D02*
X96718152Y-64450594D01*
X96718152Y-64450594D02*
X96622914Y-64498213D01*
X96622914Y-64498213D02*
X96575295Y-64498213D01*
X96575295Y-64498213D02*
X96480057Y-64450594D01*
X96480057Y-64450594D02*
X96432438Y-64402975D01*
X96432438Y-64402975D02*
X96384819Y-64307737D01*
X96384819Y-64307737D02*
X96384819Y-64117261D01*
X96384819Y-64117261D02*
X96432438Y-64022023D01*
X96432438Y-64022023D02*
X96480057Y-63974404D01*
X96480057Y-63974404D02*
X96575295Y-63926785D01*
X96575295Y-63926785D02*
X96622914Y-63926785D01*
X96622914Y-63926785D02*
X96718152Y-63974404D01*
X96718152Y-63974404D02*
X96765771Y-64022023D01*
X96765771Y-64022023D02*
X96813390Y-64117261D01*
X96813390Y-64117261D02*
X96813390Y-64307737D01*
X96813390Y-64307737D02*
X96861009Y-64402975D01*
X96861009Y-64402975D02*
X96908628Y-64450594D01*
X96908628Y-64450594D02*
X97003866Y-64498213D01*
X97003866Y-64498213D02*
X97194342Y-64498213D01*
X97194342Y-64498213D02*
X97289580Y-64450594D01*
X97289580Y-64450594D02*
X97337200Y-64402975D01*
X97337200Y-64402975D02*
X97384819Y-64307737D01*
X97384819Y-64307737D02*
X97384819Y-64117261D01*
X97384819Y-64117261D02*
X97337200Y-64022023D01*
X97337200Y-64022023D02*
X97289580Y-63974404D01*
X97289580Y-63974404D02*
X97194342Y-63926785D01*
X97194342Y-63926785D02*
X97003866Y-63926785D01*
X97003866Y-63926785D02*
X96908628Y-63974404D01*
X96908628Y-63974404D02*
X96861009Y-64022023D01*
X96861009Y-64022023D02*
X96813390Y-64117261D01*
X130922319Y-66478665D02*
X130446128Y-66811998D01*
X130922319Y-67050093D02*
X129922319Y-67050093D01*
X129922319Y-67050093D02*
X129922319Y-66669141D01*
X129922319Y-66669141D02*
X129969938Y-66573903D01*
X129969938Y-66573903D02*
X130017557Y-66526284D01*
X130017557Y-66526284D02*
X130112795Y-66478665D01*
X130112795Y-66478665D02*
X130255652Y-66478665D01*
X130255652Y-66478665D02*
X130350890Y-66526284D01*
X130350890Y-66526284D02*
X130398509Y-66573903D01*
X130398509Y-66573903D02*
X130446128Y-66669141D01*
X130446128Y-66669141D02*
X130446128Y-67050093D01*
X129922319Y-66145331D02*
X129922319Y-65478665D01*
X129922319Y-65478665D02*
X130922319Y-65907236D01*
X130922319Y-63228665D02*
X130446128Y-63561998D01*
X130922319Y-63800093D02*
X129922319Y-63800093D01*
X129922319Y-63800093D02*
X129922319Y-63419141D01*
X129922319Y-63419141D02*
X129969938Y-63323903D01*
X129969938Y-63323903D02*
X130017557Y-63276284D01*
X130017557Y-63276284D02*
X130112795Y-63228665D01*
X130112795Y-63228665D02*
X130255652Y-63228665D01*
X130255652Y-63228665D02*
X130350890Y-63276284D01*
X130350890Y-63276284D02*
X130398509Y-63323903D01*
X130398509Y-63323903D02*
X130446128Y-63419141D01*
X130446128Y-63419141D02*
X130446128Y-63800093D01*
X129922319Y-62371522D02*
X129922319Y-62561998D01*
X129922319Y-62561998D02*
X129969938Y-62657236D01*
X129969938Y-62657236D02*
X130017557Y-62704855D01*
X130017557Y-62704855D02*
X130160414Y-62800093D01*
X130160414Y-62800093D02*
X130350890Y-62847712D01*
X130350890Y-62847712D02*
X130731842Y-62847712D01*
X130731842Y-62847712D02*
X130827080Y-62800093D01*
X130827080Y-62800093D02*
X130874700Y-62752474D01*
X130874700Y-62752474D02*
X130922319Y-62657236D01*
X130922319Y-62657236D02*
X130922319Y-62466760D01*
X130922319Y-62466760D02*
X130874700Y-62371522D01*
X130874700Y-62371522D02*
X130827080Y-62323903D01*
X130827080Y-62323903D02*
X130731842Y-62276284D01*
X130731842Y-62276284D02*
X130493747Y-62276284D01*
X130493747Y-62276284D02*
X130398509Y-62323903D01*
X130398509Y-62323903D02*
X130350890Y-62371522D01*
X130350890Y-62371522D02*
X130303271Y-62466760D01*
X130303271Y-62466760D02*
X130303271Y-62657236D01*
X130303271Y-62657236D02*
X130350890Y-62752474D01*
X130350890Y-62752474D02*
X130398509Y-62800093D01*
X130398509Y-62800093D02*
X130493747Y-62847712D01*
X121274819Y-64666666D02*
X120798628Y-64999999D01*
X121274819Y-65238094D02*
X120274819Y-65238094D01*
X120274819Y-65238094D02*
X120274819Y-64857142D01*
X120274819Y-64857142D02*
X120322438Y-64761904D01*
X120322438Y-64761904D02*
X120370057Y-64714285D01*
X120370057Y-64714285D02*
X120465295Y-64666666D01*
X120465295Y-64666666D02*
X120608152Y-64666666D01*
X120608152Y-64666666D02*
X120703390Y-64714285D01*
X120703390Y-64714285D02*
X120751009Y-64761904D01*
X120751009Y-64761904D02*
X120798628Y-64857142D01*
X120798628Y-64857142D02*
X120798628Y-65238094D01*
X120274819Y-63761904D02*
X120274819Y-64238094D01*
X120274819Y-64238094D02*
X120751009Y-64285713D01*
X120751009Y-64285713D02*
X120703390Y-64238094D01*
X120703390Y-64238094D02*
X120655771Y-64142856D01*
X120655771Y-64142856D02*
X120655771Y-63904761D01*
X120655771Y-63904761D02*
X120703390Y-63809523D01*
X120703390Y-63809523D02*
X120751009Y-63761904D01*
X120751009Y-63761904D02*
X120846247Y-63714285D01*
X120846247Y-63714285D02*
X121084342Y-63714285D01*
X121084342Y-63714285D02*
X121179580Y-63761904D01*
X121179580Y-63761904D02*
X121227200Y-63809523D01*
X121227200Y-63809523D02*
X121274819Y-63904761D01*
X121274819Y-63904761D02*
X121274819Y-64142856D01*
X121274819Y-64142856D02*
X121227200Y-64238094D01*
X121227200Y-64238094D02*
X121179580Y-64285713D01*
X107333333Y-66954819D02*
X107000000Y-66478628D01*
X106761905Y-66954819D02*
X106761905Y-65954819D01*
X106761905Y-65954819D02*
X107142857Y-65954819D01*
X107142857Y-65954819D02*
X107238095Y-66002438D01*
X107238095Y-66002438D02*
X107285714Y-66050057D01*
X107285714Y-66050057D02*
X107333333Y-66145295D01*
X107333333Y-66145295D02*
X107333333Y-66288152D01*
X107333333Y-66288152D02*
X107285714Y-66383390D01*
X107285714Y-66383390D02*
X107238095Y-66431009D01*
X107238095Y-66431009D02*
X107142857Y-66478628D01*
X107142857Y-66478628D02*
X106761905Y-66478628D01*
X108190476Y-66288152D02*
X108190476Y-66954819D01*
X107952381Y-65907200D02*
X107714286Y-66621485D01*
X107714286Y-66621485D02*
X108333333Y-66621485D01*
X100833333Y-76834819D02*
X100500000Y-76358628D01*
X100261905Y-76834819D02*
X100261905Y-75834819D01*
X100261905Y-75834819D02*
X100642857Y-75834819D01*
X100642857Y-75834819D02*
X100738095Y-75882438D01*
X100738095Y-75882438D02*
X100785714Y-75930057D01*
X100785714Y-75930057D02*
X100833333Y-76025295D01*
X100833333Y-76025295D02*
X100833333Y-76168152D01*
X100833333Y-76168152D02*
X100785714Y-76263390D01*
X100785714Y-76263390D02*
X100738095Y-76311009D01*
X100738095Y-76311009D02*
X100642857Y-76358628D01*
X100642857Y-76358628D02*
X100261905Y-76358628D01*
X101166667Y-75834819D02*
X101785714Y-75834819D01*
X101785714Y-75834819D02*
X101452381Y-76215771D01*
X101452381Y-76215771D02*
X101595238Y-76215771D01*
X101595238Y-76215771D02*
X101690476Y-76263390D01*
X101690476Y-76263390D02*
X101738095Y-76311009D01*
X101738095Y-76311009D02*
X101785714Y-76406247D01*
X101785714Y-76406247D02*
X101785714Y-76644342D01*
X101785714Y-76644342D02*
X101738095Y-76739580D01*
X101738095Y-76739580D02*
X101690476Y-76787200D01*
X101690476Y-76787200D02*
X101595238Y-76834819D01*
X101595238Y-76834819D02*
X101309524Y-76834819D01*
X101309524Y-76834819D02*
X101214286Y-76787200D01*
X101214286Y-76787200D02*
X101166667Y-76739580D01*
X115884819Y-71756666D02*
X115408628Y-72089999D01*
X115884819Y-72328094D02*
X114884819Y-72328094D01*
X114884819Y-72328094D02*
X114884819Y-71947142D01*
X114884819Y-71947142D02*
X114932438Y-71851904D01*
X114932438Y-71851904D02*
X114980057Y-71804285D01*
X114980057Y-71804285D02*
X115075295Y-71756666D01*
X115075295Y-71756666D02*
X115218152Y-71756666D01*
X115218152Y-71756666D02*
X115313390Y-71804285D01*
X115313390Y-71804285D02*
X115361009Y-71851904D01*
X115361009Y-71851904D02*
X115408628Y-71947142D01*
X115408628Y-71947142D02*
X115408628Y-72328094D01*
X114980057Y-71375713D02*
X114932438Y-71328094D01*
X114932438Y-71328094D02*
X114884819Y-71232856D01*
X114884819Y-71232856D02*
X114884819Y-70994761D01*
X114884819Y-70994761D02*
X114932438Y-70899523D01*
X114932438Y-70899523D02*
X114980057Y-70851904D01*
X114980057Y-70851904D02*
X115075295Y-70804285D01*
X115075295Y-70804285D02*
X115170533Y-70804285D01*
X115170533Y-70804285D02*
X115313390Y-70851904D01*
X115313390Y-70851904D02*
X115884819Y-71423332D01*
X115884819Y-71423332D02*
X115884819Y-70804285D01*
X108384819Y-71756666D02*
X107908628Y-72089999D01*
X108384819Y-72328094D02*
X107384819Y-72328094D01*
X107384819Y-72328094D02*
X107384819Y-71947142D01*
X107384819Y-71947142D02*
X107432438Y-71851904D01*
X107432438Y-71851904D02*
X107480057Y-71804285D01*
X107480057Y-71804285D02*
X107575295Y-71756666D01*
X107575295Y-71756666D02*
X107718152Y-71756666D01*
X107718152Y-71756666D02*
X107813390Y-71804285D01*
X107813390Y-71804285D02*
X107861009Y-71851904D01*
X107861009Y-71851904D02*
X107908628Y-71947142D01*
X107908628Y-71947142D02*
X107908628Y-72328094D01*
X108384819Y-70804285D02*
X108384819Y-71375713D01*
X108384819Y-71089999D02*
X107384819Y-71089999D01*
X107384819Y-71089999D02*
X107527676Y-71185237D01*
X107527676Y-71185237D02*
X107622914Y-71280475D01*
X107622914Y-71280475D02*
X107670533Y-71375713D01*
X116666666Y-74954819D02*
X116666666Y-75669104D01*
X116666666Y-75669104D02*
X116619047Y-75811961D01*
X116619047Y-75811961D02*
X116523809Y-75907200D01*
X116523809Y-75907200D02*
X116380952Y-75954819D01*
X116380952Y-75954819D02*
X116285714Y-75954819D01*
X117666666Y-75954819D02*
X117095238Y-75954819D01*
X117380952Y-75954819D02*
X117380952Y-74954819D01*
X117380952Y-74954819D02*
X117285714Y-75097676D01*
X117285714Y-75097676D02*
X117190476Y-75192914D01*
X117190476Y-75192914D02*
X117095238Y-75240533D01*
X119071905Y-55524819D02*
X119071905Y-54524819D01*
X119071905Y-54524819D02*
X119310000Y-54524819D01*
X119310000Y-54524819D02*
X119452857Y-54572438D01*
X119452857Y-54572438D02*
X119548095Y-54667676D01*
X119548095Y-54667676D02*
X119595714Y-54762914D01*
X119595714Y-54762914D02*
X119643333Y-54953390D01*
X119643333Y-54953390D02*
X119643333Y-55096247D01*
X119643333Y-55096247D02*
X119595714Y-55286723D01*
X119595714Y-55286723D02*
X119548095Y-55381961D01*
X119548095Y-55381961D02*
X119452857Y-55477200D01*
X119452857Y-55477200D02*
X119310000Y-55524819D01*
X119310000Y-55524819D02*
X119071905Y-55524819D01*
X120548095Y-54524819D02*
X120071905Y-54524819D01*
X120071905Y-54524819D02*
X120024286Y-55001009D01*
X120024286Y-55001009D02*
X120071905Y-54953390D01*
X120071905Y-54953390D02*
X120167143Y-54905771D01*
X120167143Y-54905771D02*
X120405238Y-54905771D01*
X120405238Y-54905771D02*
X120500476Y-54953390D01*
X120500476Y-54953390D02*
X120548095Y-55001009D01*
X120548095Y-55001009D02*
X120595714Y-55096247D01*
X120595714Y-55096247D02*
X120595714Y-55334342D01*
X120595714Y-55334342D02*
X120548095Y-55429580D01*
X120548095Y-55429580D02*
X120500476Y-55477200D01*
X120500476Y-55477200D02*
X120405238Y-55524819D01*
X120405238Y-55524819D02*
X120167143Y-55524819D01*
X120167143Y-55524819D02*
X120071905Y-55477200D01*
X120071905Y-55477200D02*
X120024286Y-55429580D01*
X119071905Y-60524819D02*
X119071905Y-59524819D01*
X119071905Y-59524819D02*
X119310000Y-59524819D01*
X119310000Y-59524819D02*
X119452857Y-59572438D01*
X119452857Y-59572438D02*
X119548095Y-59667676D01*
X119548095Y-59667676D02*
X119595714Y-59762914D01*
X119595714Y-59762914D02*
X119643333Y-59953390D01*
X119643333Y-59953390D02*
X119643333Y-60096247D01*
X119643333Y-60096247D02*
X119595714Y-60286723D01*
X119595714Y-60286723D02*
X119548095Y-60381961D01*
X119548095Y-60381961D02*
X119452857Y-60477200D01*
X119452857Y-60477200D02*
X119310000Y-60524819D01*
X119310000Y-60524819D02*
X119071905Y-60524819D01*
X120500476Y-59858152D02*
X120500476Y-60524819D01*
X120262381Y-59477200D02*
X120024286Y-60191485D01*
X120024286Y-60191485D02*
X120643333Y-60191485D01*
X120011905Y-79954819D02*
X120011905Y-78954819D01*
X120011905Y-78954819D02*
X120250000Y-78954819D01*
X120250000Y-78954819D02*
X120392857Y-79002438D01*
X120392857Y-79002438D02*
X120488095Y-79097676D01*
X120488095Y-79097676D02*
X120535714Y-79192914D01*
X120535714Y-79192914D02*
X120583333Y-79383390D01*
X120583333Y-79383390D02*
X120583333Y-79526247D01*
X120583333Y-79526247D02*
X120535714Y-79716723D01*
X120535714Y-79716723D02*
X120488095Y-79811961D01*
X120488095Y-79811961D02*
X120392857Y-79907200D01*
X120392857Y-79907200D02*
X120250000Y-79954819D01*
X120250000Y-79954819D02*
X120011905Y-79954819D01*
X120916667Y-78954819D02*
X121535714Y-78954819D01*
X121535714Y-78954819D02*
X121202381Y-79335771D01*
X121202381Y-79335771D02*
X121345238Y-79335771D01*
X121345238Y-79335771D02*
X121440476Y-79383390D01*
X121440476Y-79383390D02*
X121488095Y-79431009D01*
X121488095Y-79431009D02*
X121535714Y-79526247D01*
X121535714Y-79526247D02*
X121535714Y-79764342D01*
X121535714Y-79764342D02*
X121488095Y-79859580D01*
X121488095Y-79859580D02*
X121440476Y-79907200D01*
X121440476Y-79907200D02*
X121345238Y-79954819D01*
X121345238Y-79954819D02*
X121059524Y-79954819D01*
X121059524Y-79954819D02*
X120964286Y-79907200D01*
X120964286Y-79907200D02*
X120916667Y-79859580D01*
D12*
X108940678Y-71960190D02*
X108620678Y-71960190D01*
X108620678Y-71960190D02*
X108620678Y-71884000D01*
X108620678Y-71884000D02*
X108635916Y-71838285D01*
X108635916Y-71838285D02*
X108666392Y-71807809D01*
X108666392Y-71807809D02*
X108696868Y-71792571D01*
X108696868Y-71792571D02*
X108757820Y-71777333D01*
X108757820Y-71777333D02*
X108803535Y-71777333D01*
X108803535Y-71777333D02*
X108864487Y-71792571D01*
X108864487Y-71792571D02*
X108894963Y-71807809D01*
X108894963Y-71807809D02*
X108925440Y-71838285D01*
X108925440Y-71838285D02*
X108940678Y-71884000D01*
X108940678Y-71884000D02*
X108940678Y-71960190D01*
X108651154Y-71655428D02*
X108635916Y-71640190D01*
X108635916Y-71640190D02*
X108620678Y-71609714D01*
X108620678Y-71609714D02*
X108620678Y-71533523D01*
X108620678Y-71533523D02*
X108635916Y-71503047D01*
X108635916Y-71503047D02*
X108651154Y-71487809D01*
X108651154Y-71487809D02*
X108681630Y-71472571D01*
X108681630Y-71472571D02*
X108712106Y-71472571D01*
X108712106Y-71472571D02*
X108757820Y-71487809D01*
X108757820Y-71487809D02*
X108940678Y-71670666D01*
X108940678Y-71670666D02*
X108940678Y-71472571D01*
X110940678Y-71960190D02*
X110620678Y-71960190D01*
X110620678Y-71960190D02*
X110620678Y-71884000D01*
X110620678Y-71884000D02*
X110635916Y-71838285D01*
X110635916Y-71838285D02*
X110666392Y-71807809D01*
X110666392Y-71807809D02*
X110696868Y-71792571D01*
X110696868Y-71792571D02*
X110757820Y-71777333D01*
X110757820Y-71777333D02*
X110803535Y-71777333D01*
X110803535Y-71777333D02*
X110864487Y-71792571D01*
X110864487Y-71792571D02*
X110894963Y-71807809D01*
X110894963Y-71807809D02*
X110925440Y-71838285D01*
X110925440Y-71838285D02*
X110940678Y-71884000D01*
X110940678Y-71884000D02*
X110940678Y-71960190D01*
X110940678Y-71472571D02*
X110940678Y-71655428D01*
X110940678Y-71564000D02*
X110620678Y-71564000D01*
X110620678Y-71564000D02*
X110666392Y-71594476D01*
X110666392Y-71594476D02*
X110696868Y-71624952D01*
X110696868Y-71624952D02*
X110712106Y-71655428D01*
X127144285Y-48960201D02*
X127129047Y-48975440D01*
X127129047Y-48975440D02*
X127083333Y-48990678D01*
X127083333Y-48990678D02*
X127052857Y-48990678D01*
X127052857Y-48990678D02*
X127007142Y-48975440D01*
X127007142Y-48975440D02*
X126976666Y-48944963D01*
X126976666Y-48944963D02*
X126961428Y-48914487D01*
X126961428Y-48914487D02*
X126946190Y-48853535D01*
X126946190Y-48853535D02*
X126946190Y-48807820D01*
X126946190Y-48807820D02*
X126961428Y-48746868D01*
X126961428Y-48746868D02*
X126976666Y-48716392D01*
X126976666Y-48716392D02*
X127007142Y-48685916D01*
X127007142Y-48685916D02*
X127052857Y-48670678D01*
X127052857Y-48670678D02*
X127083333Y-48670678D01*
X127083333Y-48670678D02*
X127129047Y-48685916D01*
X127129047Y-48685916D02*
X127144285Y-48701154D01*
X127449047Y-48990678D02*
X127266190Y-48990678D01*
X127357618Y-48990678D02*
X127357618Y-48670678D01*
X127357618Y-48670678D02*
X127327142Y-48716392D01*
X127327142Y-48716392D02*
X127296666Y-48746868D01*
X127296666Y-48746868D02*
X127266190Y-48762106D01*
X127723333Y-48777344D02*
X127723333Y-48990678D01*
X127647142Y-48655440D02*
X127570952Y-48884011D01*
X127570952Y-48884011D02*
X127769047Y-48884011D01*
X124710201Y-54605714D02*
X124725440Y-54620952D01*
X124725440Y-54620952D02*
X124740678Y-54666666D01*
X124740678Y-54666666D02*
X124740678Y-54697142D01*
X124740678Y-54697142D02*
X124725440Y-54742857D01*
X124725440Y-54742857D02*
X124694963Y-54773333D01*
X124694963Y-54773333D02*
X124664487Y-54788571D01*
X124664487Y-54788571D02*
X124603535Y-54803809D01*
X124603535Y-54803809D02*
X124557820Y-54803809D01*
X124557820Y-54803809D02*
X124496868Y-54788571D01*
X124496868Y-54788571D02*
X124466392Y-54773333D01*
X124466392Y-54773333D02*
X124435916Y-54742857D01*
X124435916Y-54742857D02*
X124420678Y-54697142D01*
X124420678Y-54697142D02*
X124420678Y-54666666D01*
X124420678Y-54666666D02*
X124435916Y-54620952D01*
X124435916Y-54620952D02*
X124451154Y-54605714D01*
X124740678Y-54300952D02*
X124740678Y-54483809D01*
X124740678Y-54392381D02*
X124420678Y-54392381D01*
X124420678Y-54392381D02*
X124466392Y-54422857D01*
X124466392Y-54422857D02*
X124496868Y-54453333D01*
X124496868Y-54453333D02*
X124512106Y-54483809D01*
X124420678Y-54194285D02*
X124420678Y-53996190D01*
X124420678Y-53996190D02*
X124542582Y-54102857D01*
X124542582Y-54102857D02*
X124542582Y-54057142D01*
X124542582Y-54057142D02*
X124557820Y-54026666D01*
X124557820Y-54026666D02*
X124573059Y-54011428D01*
X124573059Y-54011428D02*
X124603535Y-53996190D01*
X124603535Y-53996190D02*
X124679725Y-53996190D01*
X124679725Y-53996190D02*
X124710201Y-54011428D01*
X124710201Y-54011428D02*
X124725440Y-54026666D01*
X124725440Y-54026666D02*
X124740678Y-54057142D01*
X124740678Y-54057142D02*
X124740678Y-54148571D01*
X124740678Y-54148571D02*
X124725440Y-54179047D01*
X124725440Y-54179047D02*
X124710201Y-54194285D01*
X127594285Y-71266601D02*
X127579047Y-71281840D01*
X127579047Y-71281840D02*
X127533333Y-71297078D01*
X127533333Y-71297078D02*
X127502857Y-71297078D01*
X127502857Y-71297078D02*
X127457142Y-71281840D01*
X127457142Y-71281840D02*
X127426666Y-71251363D01*
X127426666Y-71251363D02*
X127411428Y-71220887D01*
X127411428Y-71220887D02*
X127396190Y-71159935D01*
X127396190Y-71159935D02*
X127396190Y-71114220D01*
X127396190Y-71114220D02*
X127411428Y-71053268D01*
X127411428Y-71053268D02*
X127426666Y-71022792D01*
X127426666Y-71022792D02*
X127457142Y-70992316D01*
X127457142Y-70992316D02*
X127502857Y-70977078D01*
X127502857Y-70977078D02*
X127533333Y-70977078D01*
X127533333Y-70977078D02*
X127579047Y-70992316D01*
X127579047Y-70992316D02*
X127594285Y-71007554D01*
X127899047Y-71297078D02*
X127716190Y-71297078D01*
X127807618Y-71297078D02*
X127807618Y-70977078D01*
X127807618Y-70977078D02*
X127777142Y-71022792D01*
X127777142Y-71022792D02*
X127746666Y-71053268D01*
X127746666Y-71053268D02*
X127716190Y-71068506D01*
X128020952Y-71007554D02*
X128036190Y-70992316D01*
X128036190Y-70992316D02*
X128066666Y-70977078D01*
X128066666Y-70977078D02*
X128142857Y-70977078D01*
X128142857Y-70977078D02*
X128173333Y-70992316D01*
X128173333Y-70992316D02*
X128188571Y-71007554D01*
X128188571Y-71007554D02*
X128203809Y-71038030D01*
X128203809Y-71038030D02*
X128203809Y-71068506D01*
X128203809Y-71068506D02*
X128188571Y-71114220D01*
X128188571Y-71114220D02*
X128005714Y-71297078D01*
X128005714Y-71297078D02*
X128203809Y-71297078D01*
D13*
X126295714Y-67032651D02*
X126284286Y-67044080D01*
X126284286Y-67044080D02*
X126250000Y-67055508D01*
X126250000Y-67055508D02*
X126227143Y-67055508D01*
X126227143Y-67055508D02*
X126192857Y-67044080D01*
X126192857Y-67044080D02*
X126170000Y-67021222D01*
X126170000Y-67021222D02*
X126158571Y-66998365D01*
X126158571Y-66998365D02*
X126147143Y-66952651D01*
X126147143Y-66952651D02*
X126147143Y-66918365D01*
X126147143Y-66918365D02*
X126158571Y-66872651D01*
X126158571Y-66872651D02*
X126170000Y-66849794D01*
X126170000Y-66849794D02*
X126192857Y-66826937D01*
X126192857Y-66826937D02*
X126227143Y-66815508D01*
X126227143Y-66815508D02*
X126250000Y-66815508D01*
X126250000Y-66815508D02*
X126284286Y-66826937D01*
X126284286Y-66826937D02*
X126295714Y-66838365D01*
X126524286Y-67055508D02*
X126387143Y-67055508D01*
X126455714Y-67055508D02*
X126455714Y-66815508D01*
X126455714Y-66815508D02*
X126432857Y-66849794D01*
X126432857Y-66849794D02*
X126410000Y-66872651D01*
X126410000Y-66872651D02*
X126387143Y-66884080D01*
X126752857Y-67055508D02*
X126615714Y-67055508D01*
X126684285Y-67055508D02*
X126684285Y-66815508D01*
X126684285Y-66815508D02*
X126661428Y-66849794D01*
X126661428Y-66849794D02*
X126638571Y-66872651D01*
X126638571Y-66872651D02*
X126615714Y-66884080D01*
X115745714Y-65085051D02*
X115734286Y-65096480D01*
X115734286Y-65096480D02*
X115700000Y-65107908D01*
X115700000Y-65107908D02*
X115677143Y-65107908D01*
X115677143Y-65107908D02*
X115642857Y-65096480D01*
X115642857Y-65096480D02*
X115620000Y-65073622D01*
X115620000Y-65073622D02*
X115608571Y-65050765D01*
X115608571Y-65050765D02*
X115597143Y-65005051D01*
X115597143Y-65005051D02*
X115597143Y-64970765D01*
X115597143Y-64970765D02*
X115608571Y-64925051D01*
X115608571Y-64925051D02*
X115620000Y-64902194D01*
X115620000Y-64902194D02*
X115642857Y-64879337D01*
X115642857Y-64879337D02*
X115677143Y-64867908D01*
X115677143Y-64867908D02*
X115700000Y-64867908D01*
X115700000Y-64867908D02*
X115734286Y-64879337D01*
X115734286Y-64879337D02*
X115745714Y-64890765D01*
X115974286Y-65107908D02*
X115837143Y-65107908D01*
X115905714Y-65107908D02*
X115905714Y-64867908D01*
X115905714Y-64867908D02*
X115882857Y-64902194D01*
X115882857Y-64902194D02*
X115860000Y-64925051D01*
X115860000Y-64925051D02*
X115837143Y-64936480D01*
X116122857Y-64867908D02*
X116145714Y-64867908D01*
X116145714Y-64867908D02*
X116168571Y-64879337D01*
X116168571Y-64879337D02*
X116180000Y-64890765D01*
X116180000Y-64890765D02*
X116191428Y-64913622D01*
X116191428Y-64913622D02*
X116202857Y-64959337D01*
X116202857Y-64959337D02*
X116202857Y-65016480D01*
X116202857Y-65016480D02*
X116191428Y-65062194D01*
X116191428Y-65062194D02*
X116180000Y-65085051D01*
X116180000Y-65085051D02*
X116168571Y-65096480D01*
X116168571Y-65096480D02*
X116145714Y-65107908D01*
X116145714Y-65107908D02*
X116122857Y-65107908D01*
X116122857Y-65107908D02*
X116100000Y-65096480D01*
X116100000Y-65096480D02*
X116088571Y-65085051D01*
X116088571Y-65085051D02*
X116077142Y-65062194D01*
X116077142Y-65062194D02*
X116065714Y-65016480D01*
X116065714Y-65016480D02*
X116065714Y-64959337D01*
X116065714Y-64959337D02*
X116077142Y-64913622D01*
X116077142Y-64913622D02*
X116088571Y-64890765D01*
X116088571Y-64890765D02*
X116100000Y-64879337D01*
X116100000Y-64879337D02*
X116122857Y-64867908D01*
D12*
X116096666Y-62613401D02*
X116081428Y-62628640D01*
X116081428Y-62628640D02*
X116035714Y-62643878D01*
X116035714Y-62643878D02*
X116005238Y-62643878D01*
X116005238Y-62643878D02*
X115959523Y-62628640D01*
X115959523Y-62628640D02*
X115929047Y-62598163D01*
X115929047Y-62598163D02*
X115913809Y-62567687D01*
X115913809Y-62567687D02*
X115898571Y-62506735D01*
X115898571Y-62506735D02*
X115898571Y-62461020D01*
X115898571Y-62461020D02*
X115913809Y-62400068D01*
X115913809Y-62400068D02*
X115929047Y-62369592D01*
X115929047Y-62369592D02*
X115959523Y-62339116D01*
X115959523Y-62339116D02*
X116005238Y-62323878D01*
X116005238Y-62323878D02*
X116035714Y-62323878D01*
X116035714Y-62323878D02*
X116081428Y-62339116D01*
X116081428Y-62339116D02*
X116096666Y-62354354D01*
X116249047Y-62643878D02*
X116309999Y-62643878D01*
X116309999Y-62643878D02*
X116340476Y-62628640D01*
X116340476Y-62628640D02*
X116355714Y-62613401D01*
X116355714Y-62613401D02*
X116386190Y-62567687D01*
X116386190Y-62567687D02*
X116401428Y-62506735D01*
X116401428Y-62506735D02*
X116401428Y-62384830D01*
X116401428Y-62384830D02*
X116386190Y-62354354D01*
X116386190Y-62354354D02*
X116370952Y-62339116D01*
X116370952Y-62339116D02*
X116340476Y-62323878D01*
X116340476Y-62323878D02*
X116279523Y-62323878D01*
X116279523Y-62323878D02*
X116249047Y-62339116D01*
X116249047Y-62339116D02*
X116233809Y-62354354D01*
X116233809Y-62354354D02*
X116218571Y-62384830D01*
X116218571Y-62384830D02*
X116218571Y-62461020D01*
X116218571Y-62461020D02*
X116233809Y-62491497D01*
X116233809Y-62491497D02*
X116249047Y-62506735D01*
X116249047Y-62506735D02*
X116279523Y-62521973D01*
X116279523Y-62521973D02*
X116340476Y-62521973D01*
X116340476Y-62521973D02*
X116370952Y-62506735D01*
X116370952Y-62506735D02*
X116386190Y-62491497D01*
X116386190Y-62491497D02*
X116401428Y-62461020D01*
X127960201Y-54453333D02*
X127975440Y-54468571D01*
X127975440Y-54468571D02*
X127990678Y-54514285D01*
X127990678Y-54514285D02*
X127990678Y-54544761D01*
X127990678Y-54544761D02*
X127975440Y-54590476D01*
X127975440Y-54590476D02*
X127944963Y-54620952D01*
X127944963Y-54620952D02*
X127914487Y-54636190D01*
X127914487Y-54636190D02*
X127853535Y-54651428D01*
X127853535Y-54651428D02*
X127807820Y-54651428D01*
X127807820Y-54651428D02*
X127746868Y-54636190D01*
X127746868Y-54636190D02*
X127716392Y-54620952D01*
X127716392Y-54620952D02*
X127685916Y-54590476D01*
X127685916Y-54590476D02*
X127670678Y-54544761D01*
X127670678Y-54544761D02*
X127670678Y-54514285D01*
X127670678Y-54514285D02*
X127685916Y-54468571D01*
X127685916Y-54468571D02*
X127701154Y-54453333D01*
X127807820Y-54270476D02*
X127792582Y-54300952D01*
X127792582Y-54300952D02*
X127777344Y-54316190D01*
X127777344Y-54316190D02*
X127746868Y-54331428D01*
X127746868Y-54331428D02*
X127731630Y-54331428D01*
X127731630Y-54331428D02*
X127701154Y-54316190D01*
X127701154Y-54316190D02*
X127685916Y-54300952D01*
X127685916Y-54300952D02*
X127670678Y-54270476D01*
X127670678Y-54270476D02*
X127670678Y-54209523D01*
X127670678Y-54209523D02*
X127685916Y-54179047D01*
X127685916Y-54179047D02*
X127701154Y-54163809D01*
X127701154Y-54163809D02*
X127731630Y-54148571D01*
X127731630Y-54148571D02*
X127746868Y-54148571D01*
X127746868Y-54148571D02*
X127777344Y-54163809D01*
X127777344Y-54163809D02*
X127792582Y-54179047D01*
X127792582Y-54179047D02*
X127807820Y-54209523D01*
X127807820Y-54209523D02*
X127807820Y-54270476D01*
X127807820Y-54270476D02*
X127823059Y-54300952D01*
X127823059Y-54300952D02*
X127838297Y-54316190D01*
X127838297Y-54316190D02*
X127868773Y-54331428D01*
X127868773Y-54331428D02*
X127929725Y-54331428D01*
X127929725Y-54331428D02*
X127960201Y-54316190D01*
X127960201Y-54316190D02*
X127975440Y-54300952D01*
X127975440Y-54300952D02*
X127990678Y-54270476D01*
X127990678Y-54270476D02*
X127990678Y-54209523D01*
X127990678Y-54209523D02*
X127975440Y-54179047D01*
X127975440Y-54179047D02*
X127960201Y-54163809D01*
X127960201Y-54163809D02*
X127929725Y-54148571D01*
X127929725Y-54148571D02*
X127868773Y-54148571D01*
X127868773Y-54148571D02*
X127838297Y-54163809D01*
X127838297Y-54163809D02*
X127823059Y-54179047D01*
X127823059Y-54179047D02*
X127807820Y-54209523D01*
X105696666Y-67613401D02*
X105681428Y-67628640D01*
X105681428Y-67628640D02*
X105635714Y-67643878D01*
X105635714Y-67643878D02*
X105605238Y-67643878D01*
X105605238Y-67643878D02*
X105559523Y-67628640D01*
X105559523Y-67628640D02*
X105529047Y-67598163D01*
X105529047Y-67598163D02*
X105513809Y-67567687D01*
X105513809Y-67567687D02*
X105498571Y-67506735D01*
X105498571Y-67506735D02*
X105498571Y-67461020D01*
X105498571Y-67461020D02*
X105513809Y-67400068D01*
X105513809Y-67400068D02*
X105529047Y-67369592D01*
X105529047Y-67369592D02*
X105559523Y-67339116D01*
X105559523Y-67339116D02*
X105605238Y-67323878D01*
X105605238Y-67323878D02*
X105635714Y-67323878D01*
X105635714Y-67323878D02*
X105681428Y-67339116D01*
X105681428Y-67339116D02*
X105696666Y-67354354D01*
X105803333Y-67323878D02*
X106016666Y-67323878D01*
X106016666Y-67323878D02*
X105879523Y-67643878D01*
D14*
X96434383Y-76639519D02*
X96415635Y-76658267D01*
X96415635Y-76658267D02*
X96359392Y-76677014D01*
X96359392Y-76677014D02*
X96321897Y-76677014D01*
X96321897Y-76677014D02*
X96265654Y-76658267D01*
X96265654Y-76658267D02*
X96228159Y-76620771D01*
X96228159Y-76620771D02*
X96209411Y-76583276D01*
X96209411Y-76583276D02*
X96190663Y-76508285D01*
X96190663Y-76508285D02*
X96190663Y-76452042D01*
X96190663Y-76452042D02*
X96209411Y-76377052D01*
X96209411Y-76377052D02*
X96228159Y-76339556D01*
X96228159Y-76339556D02*
X96265654Y-76302061D01*
X96265654Y-76302061D02*
X96321897Y-76283313D01*
X96321897Y-76283313D02*
X96359392Y-76283313D01*
X96359392Y-76283313D02*
X96415635Y-76302061D01*
X96415635Y-76302061D02*
X96434383Y-76320809D01*
X96771841Y-76283313D02*
X96696850Y-76283313D01*
X96696850Y-76283313D02*
X96659355Y-76302061D01*
X96659355Y-76302061D02*
X96640607Y-76320809D01*
X96640607Y-76320809D02*
X96603112Y-76377052D01*
X96603112Y-76377052D02*
X96584364Y-76452042D01*
X96584364Y-76452042D02*
X96584364Y-76602024D01*
X96584364Y-76602024D02*
X96603112Y-76639519D01*
X96603112Y-76639519D02*
X96621860Y-76658267D01*
X96621860Y-76658267D02*
X96659355Y-76677014D01*
X96659355Y-76677014D02*
X96734346Y-76677014D01*
X96734346Y-76677014D02*
X96771841Y-76658267D01*
X96771841Y-76658267D02*
X96790589Y-76639519D01*
X96790589Y-76639519D02*
X96809336Y-76602024D01*
X96809336Y-76602024D02*
X96809336Y-76508285D01*
X96809336Y-76508285D02*
X96790589Y-76470790D01*
X96790589Y-76470790D02*
X96771841Y-76452042D01*
X96771841Y-76452042D02*
X96734346Y-76433295D01*
X96734346Y-76433295D02*
X96659355Y-76433295D01*
X96659355Y-76433295D02*
X96621860Y-76452042D01*
X96621860Y-76452042D02*
X96603112Y-76470790D01*
X96603112Y-76470790D02*
X96584364Y-76508285D01*
D13*
X95637451Y-71739999D02*
X95648880Y-71751427D01*
X95648880Y-71751427D02*
X95660308Y-71785713D01*
X95660308Y-71785713D02*
X95660308Y-71808570D01*
X95660308Y-71808570D02*
X95648880Y-71842856D01*
X95648880Y-71842856D02*
X95626022Y-71865713D01*
X95626022Y-71865713D02*
X95603165Y-71877142D01*
X95603165Y-71877142D02*
X95557451Y-71888570D01*
X95557451Y-71888570D02*
X95523165Y-71888570D01*
X95523165Y-71888570D02*
X95477451Y-71877142D01*
X95477451Y-71877142D02*
X95454594Y-71865713D01*
X95454594Y-71865713D02*
X95431737Y-71842856D01*
X95431737Y-71842856D02*
X95420308Y-71808570D01*
X95420308Y-71808570D02*
X95420308Y-71785713D01*
X95420308Y-71785713D02*
X95431737Y-71751427D01*
X95431737Y-71751427D02*
X95443165Y-71739999D01*
X95420308Y-71522856D02*
X95420308Y-71637142D01*
X95420308Y-71637142D02*
X95534594Y-71648570D01*
X95534594Y-71648570D02*
X95523165Y-71637142D01*
X95523165Y-71637142D02*
X95511737Y-71614285D01*
X95511737Y-71614285D02*
X95511737Y-71557142D01*
X95511737Y-71557142D02*
X95523165Y-71534285D01*
X95523165Y-71534285D02*
X95534594Y-71522856D01*
X95534594Y-71522856D02*
X95557451Y-71511427D01*
X95557451Y-71511427D02*
X95614594Y-71511427D01*
X95614594Y-71511427D02*
X95637451Y-71522856D01*
X95637451Y-71522856D02*
X95648880Y-71534285D01*
X95648880Y-71534285D02*
X95660308Y-71557142D01*
X95660308Y-71557142D02*
X95660308Y-71614285D01*
X95660308Y-71614285D02*
X95648880Y-71637142D01*
X95648880Y-71637142D02*
X95637451Y-71648570D01*
D12*
X92546666Y-75363401D02*
X92531428Y-75378640D01*
X92531428Y-75378640D02*
X92485714Y-75393878D01*
X92485714Y-75393878D02*
X92455238Y-75393878D01*
X92455238Y-75393878D02*
X92409523Y-75378640D01*
X92409523Y-75378640D02*
X92379047Y-75348163D01*
X92379047Y-75348163D02*
X92363809Y-75317687D01*
X92363809Y-75317687D02*
X92348571Y-75256735D01*
X92348571Y-75256735D02*
X92348571Y-75211020D01*
X92348571Y-75211020D02*
X92363809Y-75150068D01*
X92363809Y-75150068D02*
X92379047Y-75119592D01*
X92379047Y-75119592D02*
X92409523Y-75089116D01*
X92409523Y-75089116D02*
X92455238Y-75073878D01*
X92455238Y-75073878D02*
X92485714Y-75073878D01*
X92485714Y-75073878D02*
X92531428Y-75089116D01*
X92531428Y-75089116D02*
X92546666Y-75104354D01*
X92820952Y-75180544D02*
X92820952Y-75393878D01*
X92744761Y-75058640D02*
X92668571Y-75287211D01*
X92668571Y-75287211D02*
X92866666Y-75287211D01*
X105796666Y-64960201D02*
X105781428Y-64975440D01*
X105781428Y-64975440D02*
X105735714Y-64990678D01*
X105735714Y-64990678D02*
X105705238Y-64990678D01*
X105705238Y-64990678D02*
X105659523Y-64975440D01*
X105659523Y-64975440D02*
X105629047Y-64944963D01*
X105629047Y-64944963D02*
X105613809Y-64914487D01*
X105613809Y-64914487D02*
X105598571Y-64853535D01*
X105598571Y-64853535D02*
X105598571Y-64807820D01*
X105598571Y-64807820D02*
X105613809Y-64746868D01*
X105613809Y-64746868D02*
X105629047Y-64716392D01*
X105629047Y-64716392D02*
X105659523Y-64685916D01*
X105659523Y-64685916D02*
X105705238Y-64670678D01*
X105705238Y-64670678D02*
X105735714Y-64670678D01*
X105735714Y-64670678D02*
X105781428Y-64685916D01*
X105781428Y-64685916D02*
X105796666Y-64701154D01*
X105903333Y-64670678D02*
X106101428Y-64670678D01*
X106101428Y-64670678D02*
X105994761Y-64792582D01*
X105994761Y-64792582D02*
X106040476Y-64792582D01*
X106040476Y-64792582D02*
X106070952Y-64807820D01*
X106070952Y-64807820D02*
X106086190Y-64823059D01*
X106086190Y-64823059D02*
X106101428Y-64853535D01*
X106101428Y-64853535D02*
X106101428Y-64929725D01*
X106101428Y-64929725D02*
X106086190Y-64960201D01*
X106086190Y-64960201D02*
X106070952Y-64975440D01*
X106070952Y-64975440D02*
X106040476Y-64990678D01*
X106040476Y-64990678D02*
X105949047Y-64990678D01*
X105949047Y-64990678D02*
X105918571Y-64975440D01*
X105918571Y-64975440D02*
X105903333Y-64960201D01*
X105796666Y-62210201D02*
X105781428Y-62225440D01*
X105781428Y-62225440D02*
X105735714Y-62240678D01*
X105735714Y-62240678D02*
X105705238Y-62240678D01*
X105705238Y-62240678D02*
X105659523Y-62225440D01*
X105659523Y-62225440D02*
X105629047Y-62194963D01*
X105629047Y-62194963D02*
X105613809Y-62164487D01*
X105613809Y-62164487D02*
X105598571Y-62103535D01*
X105598571Y-62103535D02*
X105598571Y-62057820D01*
X105598571Y-62057820D02*
X105613809Y-61996868D01*
X105613809Y-61996868D02*
X105629047Y-61966392D01*
X105629047Y-61966392D02*
X105659523Y-61935916D01*
X105659523Y-61935916D02*
X105705238Y-61920678D01*
X105705238Y-61920678D02*
X105735714Y-61920678D01*
X105735714Y-61920678D02*
X105781428Y-61935916D01*
X105781428Y-61935916D02*
X105796666Y-61951154D01*
X105918571Y-61951154D02*
X105933809Y-61935916D01*
X105933809Y-61935916D02*
X105964285Y-61920678D01*
X105964285Y-61920678D02*
X106040476Y-61920678D01*
X106040476Y-61920678D02*
X106070952Y-61935916D01*
X106070952Y-61935916D02*
X106086190Y-61951154D01*
X106086190Y-61951154D02*
X106101428Y-61981630D01*
X106101428Y-61981630D02*
X106101428Y-62012106D01*
X106101428Y-62012106D02*
X106086190Y-62057820D01*
X106086190Y-62057820D02*
X105903333Y-62240678D01*
X105903333Y-62240678D02*
X106101428Y-62240678D01*
D11*
X116103333Y-68509580D02*
X116055714Y-68557200D01*
X116055714Y-68557200D02*
X115912857Y-68604819D01*
X115912857Y-68604819D02*
X115817619Y-68604819D01*
X115817619Y-68604819D02*
X115674762Y-68557200D01*
X115674762Y-68557200D02*
X115579524Y-68461961D01*
X115579524Y-68461961D02*
X115531905Y-68366723D01*
X115531905Y-68366723D02*
X115484286Y-68176247D01*
X115484286Y-68176247D02*
X115484286Y-68033390D01*
X115484286Y-68033390D02*
X115531905Y-67842914D01*
X115531905Y-67842914D02*
X115579524Y-67747676D01*
X115579524Y-67747676D02*
X115674762Y-67652438D01*
X115674762Y-67652438D02*
X115817619Y-67604819D01*
X115817619Y-67604819D02*
X115912857Y-67604819D01*
X115912857Y-67604819D02*
X116055714Y-67652438D01*
X116055714Y-67652438D02*
X116103333Y-67700057D01*
X117055714Y-68604819D02*
X116484286Y-68604819D01*
X116770000Y-68604819D02*
X116770000Y-67604819D01*
X116770000Y-67604819D02*
X116674762Y-67747676D01*
X116674762Y-67747676D02*
X116579524Y-67842914D01*
X116579524Y-67842914D02*
X116484286Y-67890533D01*
X93694819Y-70603333D02*
X94409104Y-70603333D01*
X94409104Y-70603333D02*
X94551961Y-70650952D01*
X94551961Y-70650952D02*
X94647200Y-70746190D01*
X94647200Y-70746190D02*
X94694819Y-70889047D01*
X94694819Y-70889047D02*
X94694819Y-70984285D01*
X94028152Y-69698571D02*
X94694819Y-69698571D01*
X93647200Y-69936666D02*
X94361485Y-70174761D01*
X94361485Y-70174761D02*
X94361485Y-69555714D01*
D15*
X123998600Y-63160600D02*
X124910515Y-63160600D01*
X123998600Y-63444024D02*
X123998600Y-63160600D01*
X123998600Y-66513400D02*
X123998600Y-66229976D01*
X126439485Y-63160600D02*
X127351400Y-63160600D01*
X127351400Y-63160600D02*
X127351400Y-63444024D01*
X127351400Y-66229976D02*
X127351400Y-66513400D01*
X127351400Y-66513400D02*
X123998600Y-66513400D01*
D16*
X101200000Y-41125000D02*
X116600000Y-41125000D01*
X101200000Y-46175000D02*
X101200000Y-41125000D01*
X116600000Y-41125000D02*
X116600000Y-46175000D01*
X116600000Y-61625000D02*
X101200000Y-61625000D01*
D17*
X100550000Y-47950000D02*
G75*
G03*
X100550000Y-47950000I-100000J0D01*
G01*
D15*
X97371100Y-68871100D02*
X97371100Y-69540260D01*
X97371100Y-73459740D02*
X97371100Y-74128900D01*
X97371100Y-74128900D02*
X98040260Y-74128900D01*
X98040260Y-68871100D02*
X97371100Y-68871100D01*
X101959740Y-74128900D02*
X102628900Y-74128900D01*
X102628900Y-68871100D02*
X101959740Y-68871100D01*
X102628900Y-69540260D02*
X102628900Y-68871100D01*
X102628900Y-74128900D02*
X102628900Y-73459740D01*
G36*
X99690501Y-74814700D02*
G01*
X99309501Y-74814700D01*
X99309501Y-74560700D01*
X99690501Y-74560700D01*
X99690501Y-74814700D01*
G37*
G36*
X103314700Y-70690499D02*
G01*
X103060700Y-70690499D01*
X103060700Y-70309499D01*
X103314700Y-70309499D01*
X103314700Y-70690499D01*
G37*
D16*
X118475000Y-49130000D02*
X122675000Y-49130000D01*
X118475000Y-51250000D02*
X118475000Y-50250000D01*
X122675000Y-51250000D02*
X122675000Y-50250000D01*
X122675000Y-52370000D02*
X118475000Y-52370000D01*
D17*
X117575000Y-49650000D02*
G75*
G03*
X117575000Y-49650000I-100000J0D01*
G01*
D16*
X118400000Y-41880000D02*
X122600000Y-41880000D01*
X118400000Y-44000000D02*
X118400000Y-43000000D01*
X122600000Y-44000000D02*
X122600000Y-43000000D01*
X122600000Y-45120000D02*
X118400000Y-45120000D01*
D17*
X117500000Y-42400000D02*
G75*
G03*
X117500000Y-42400000I-100000J0D01*
G01*
D18*
X118237258Y-77772500D02*
X117762742Y-77772500D01*
X118237258Y-76727500D02*
X117762742Y-76727500D01*
X122572742Y-60977500D02*
X123047258Y-60977500D01*
X122572742Y-62022500D02*
X123047258Y-62022500D01*
X122572742Y-57022500D02*
X123047258Y-57022500D01*
X122572742Y-55977500D02*
X123047258Y-55977500D01*
X92837258Y-72272500D02*
X92362742Y-72272500D01*
X92837258Y-71227500D02*
X92362742Y-71227500D01*
X128977500Y-58762742D02*
X128977500Y-59237258D01*
X130022500Y-58762742D02*
X130022500Y-59237258D01*
X125727500Y-58762742D02*
X125727500Y-59237258D01*
X126772500Y-58762742D02*
X126772500Y-59237258D01*
X102700000Y-65477064D02*
X102700000Y-64022936D01*
X100880000Y-65477064D02*
X100880000Y-64022936D01*
X99660000Y-65439564D02*
X99660000Y-63985436D01*
X97840000Y-65439564D02*
X97840000Y-63985436D01*
X128515000Y-66074741D02*
X128515000Y-66549257D01*
X129560000Y-66074741D02*
X129560000Y-66549257D01*
X129560000Y-62824741D02*
X129560000Y-63299257D01*
X128515000Y-62824741D02*
X128515000Y-63299257D01*
X122772500Y-64737258D02*
X122772500Y-64262742D01*
X121727500Y-64737258D02*
X121727500Y-64262742D01*
X109012742Y-65522500D02*
X109487258Y-65522500D01*
X109012742Y-64477500D02*
X109487258Y-64477500D01*
X98822936Y-77290000D02*
X103177064Y-77290000D01*
X98822936Y-80710000D02*
X103177064Y-80710000D01*
X113477500Y-71352742D02*
X113477500Y-71827258D01*
X114522500Y-71352742D02*
X114522500Y-71827258D01*
X105977500Y-71352742D02*
X105977500Y-71827258D01*
X107022500Y-71352742D02*
X107022500Y-71827258D01*
X115010000Y-81960000D02*
X105850000Y-81960000D01*
X105850000Y-81960000D02*
X105850000Y-80255000D01*
X115010000Y-80255000D02*
X115010000Y-81960000D01*
X105850000Y-76325000D02*
X105850000Y-78245000D01*
X115010000Y-78245000D02*
X115010000Y-76325000D01*
X118325000Y-57235000D02*
X120610000Y-57235000D01*
X118325000Y-55765000D02*
X118325000Y-57235000D01*
X120610000Y-55765000D02*
X118325000Y-55765000D01*
X118325000Y-62235000D02*
X120610000Y-62235000D01*
X118325000Y-60765000D02*
X118325000Y-62235000D01*
X120610000Y-60765000D02*
X118325000Y-60765000D01*
X116477500Y-80235000D02*
X118762500Y-80235000D01*
X116477500Y-78765000D02*
X116477500Y-80235000D01*
X118762500Y-78765000D02*
X116477500Y-78765000D01*
D16*
X109230000Y-72190000D02*
X109230000Y-70990000D01*
X110270000Y-70990000D02*
X110270000Y-72190000D01*
D17*
X109850000Y-73090000D02*
G75*
G03*
X109850000Y-73090000I-100000J0D01*
G01*
D16*
X111230000Y-72190000D02*
X111230000Y-70990000D01*
X112270000Y-70990000D02*
X112270000Y-72190000D01*
D17*
X111850000Y-73090000D02*
G75*
G03*
X111850000Y-73090000I-100000J0D01*
G01*
X126850000Y-49525000D02*
X127650000Y-49525000D01*
X127650000Y-50975000D02*
X126850000Y-50975000D01*
X125275000Y-54900000D02*
X125275000Y-54100000D01*
X126725000Y-54100000D02*
X126725000Y-54900000D01*
X128300000Y-70475000D02*
X127500000Y-70475000D01*
X127500000Y-69025000D02*
X128300000Y-69025000D01*
D16*
X125525000Y-67275000D02*
X127475000Y-67275000D01*
X125525000Y-68225000D02*
X125525000Y-67275000D01*
X127475000Y-67275000D02*
X127475000Y-68225000D01*
X127475000Y-68225000D02*
X125525000Y-68225000D01*
X116875000Y-66225000D02*
X114925000Y-66225000D01*
X116875000Y-65275000D02*
X116875000Y-66225000D01*
X114925000Y-66225000D02*
X114925000Y-65275000D01*
X114925000Y-65275000D02*
X116875000Y-65275000D01*
D17*
X116400000Y-64475000D02*
X115600000Y-64475000D01*
X115600000Y-63025000D02*
X116400000Y-63025000D01*
X128525000Y-54900000D02*
X128525000Y-54100000D01*
X129975000Y-54100000D02*
X129975000Y-54900000D01*
X106150000Y-69475000D02*
X105350000Y-69475000D01*
X105350000Y-68025000D02*
X106150000Y-68025000D01*
D16*
X95225000Y-70775000D02*
X95225000Y-72725000D01*
X94275000Y-70775000D02*
X95225000Y-70775000D01*
X95225000Y-72725000D02*
X94275000Y-72725000D01*
X94275000Y-72725000D02*
X94275000Y-70775000D01*
D17*
X93000000Y-74475000D02*
X92200000Y-74475000D01*
X92200000Y-73025000D02*
X93000000Y-73025000D01*
X105350000Y-65525000D02*
X106150000Y-65525000D01*
X106150000Y-66975000D02*
X105350000Y-66975000D01*
X105350000Y-62775000D02*
X106150000Y-62775000D01*
X106150000Y-64225000D02*
X105350000Y-64225000D01*
D18*
X117390000Y-73595563D02*
X118454437Y-74660000D01*
X116362500Y-69402500D02*
X117150000Y-69402500D01*
X124210000Y-67840000D02*
X124210000Y-70190000D01*
X116756250Y-69008750D02*
X116756250Y-69796250D01*
X117390000Y-68904437D02*
X117390000Y-70190000D01*
X118454437Y-67840000D02*
X124210000Y-67840000D01*
X124210000Y-74660000D02*
X124210000Y-72310000D01*
X118454437Y-74660000D02*
X124210000Y-74660000D01*
X117390000Y-68904437D02*
X118454437Y-67840000D01*
X117390000Y-73595563D02*
X117390000Y-72310000D01*
X93110000Y-68910000D02*
X95610000Y-68910000D01*
X95610000Y-68910000D02*
X95610000Y-66410000D01*
X91290000Y-68610000D02*
X95310000Y-68610000D01*
X93000000Y-68610000D02*
X93000000Y-68110000D01*
X93810000Y-68610000D02*
X93810000Y-67610000D01*
X95310000Y-68610000D02*
X95310000Y-55890000D01*
X91790000Y-68110000D02*
X91790000Y-56390000D01*
X93000000Y-68110000D02*
X91790000Y-68110000D01*
X93810000Y-67610000D02*
X95310000Y-67610000D01*
X93810000Y-56890000D02*
X95310000Y-56890000D01*
X91790000Y-56390000D02*
X93000000Y-56390000D01*
X93000000Y-56390000D02*
X93000000Y-55890000D01*
X91290000Y-55890000D02*
X91290000Y-68610000D01*
X93810000Y-55890000D02*
X93810000Y-56890000D01*
X95310000Y-55890000D02*
X91290000Y-55890000D01*
%LPC*%
G36*
X126250000Y-63737000D02*
G01*
X125100000Y-63737000D01*
X125100000Y-63337000D01*
X126250000Y-63337000D01*
X126250000Y-63737000D01*
G37*
D19*
X107950000Y-52950000D02*
X106550000Y-52950000D01*
X106550000Y-52200000D01*
X107200000Y-51550000D01*
X107950000Y-51550000D01*
X107950000Y-52950000D01*
G36*
X107950000Y-52950000D02*
G01*
X106550000Y-52950000D01*
X106550000Y-52200000D01*
X107200000Y-51550000D01*
X107950000Y-51550000D01*
X107950000Y-52950000D01*
G37*
D20*
X124562500Y-63862001D03*
X124562500Y-64511999D03*
X124562500Y-65162001D03*
X124562500Y-65811999D03*
X126787500Y-65811999D03*
X126787500Y-65162001D03*
X126787500Y-64511999D03*
X126787500Y-63862001D03*
D21*
X126000000Y-63500000D03*
X125350000Y-63500000D03*
D22*
X125675000Y-64837000D03*
D23*
X101900000Y-47950000D03*
X101900000Y-48800000D03*
X101900000Y-49650000D03*
X101900000Y-50500000D03*
X101900000Y-51350000D03*
X101900000Y-52200000D03*
X101900000Y-53050000D03*
X101900000Y-53900000D03*
X101900000Y-54750000D03*
X101900000Y-55600000D03*
X101900000Y-56450000D03*
X101900000Y-57300000D03*
X101900000Y-58150000D03*
X101900000Y-59000000D03*
X101900000Y-59850000D03*
D24*
X102950000Y-60900000D03*
X103800000Y-60900000D03*
X104650000Y-60900000D03*
X105500000Y-60900000D03*
X106350000Y-60900000D03*
X107200000Y-60900000D03*
X108050000Y-60900000D03*
X108900000Y-60900000D03*
X109750000Y-60900000D03*
X110600000Y-60900000D03*
X111450000Y-60900000D03*
X112300000Y-60900000D03*
X113150000Y-60900000D03*
X114000000Y-60900000D03*
X114850000Y-60900000D03*
D23*
X115900000Y-59850000D03*
X115900000Y-59000000D03*
X115900000Y-58150000D03*
X115900000Y-57300000D03*
X115900000Y-56450000D03*
X115900000Y-55600000D03*
X115900000Y-54750000D03*
X115900000Y-53900000D03*
X115900000Y-53050000D03*
X115900000Y-52200000D03*
X115900000Y-51350000D03*
X115900000Y-50500000D03*
X115900000Y-49650000D03*
X115900000Y-48800000D03*
X115900000Y-47950000D03*
D24*
X114850000Y-46900000D03*
X114000000Y-46900000D03*
X113150000Y-46900000D03*
X112300000Y-46900000D03*
X111450000Y-46900000D03*
X110600000Y-46900000D03*
X109750000Y-46900000D03*
X108900000Y-46900000D03*
X108050000Y-46900000D03*
X107200000Y-46900000D03*
X106350000Y-46900000D03*
X105500000Y-46900000D03*
X104650000Y-46900000D03*
X103800000Y-46900000D03*
X102950000Y-46900000D03*
D25*
X108900000Y-53900000D03*
X108900000Y-52250000D03*
X110550000Y-52250000D03*
X110550000Y-53900000D03*
X110550000Y-55550000D03*
X108900000Y-55550000D03*
X107250000Y-55550000D03*
X107250000Y-53900000D03*
D26*
X101900000Y-46900000D03*
X101900000Y-60900000D03*
X115900000Y-60900000D03*
X115900000Y-46900000D03*
D27*
X97574300Y-70000000D03*
X97574300Y-70499999D03*
X97574300Y-71000001D03*
X97574300Y-71500000D03*
X97574300Y-71999999D03*
X97574300Y-72500001D03*
X97574300Y-73000000D03*
D28*
X98500000Y-73925700D03*
X98999999Y-73925700D03*
X99500001Y-73925700D03*
X100000000Y-73925700D03*
X100499999Y-73925700D03*
X101000001Y-73925700D03*
X101500000Y-73925700D03*
D27*
X102425700Y-73000000D03*
X102425700Y-72500001D03*
X102425700Y-71999999D03*
X102425700Y-71500000D03*
X102425700Y-71000001D03*
X102425700Y-70499999D03*
X102425700Y-70000000D03*
D28*
X101500000Y-69074300D03*
X101000001Y-69074300D03*
X100499999Y-69074300D03*
X100000000Y-69074300D03*
X99500001Y-69074300D03*
X98999999Y-69074300D03*
X98500000Y-69074300D03*
D29*
X100000000Y-71500000D03*
D30*
X118500000Y-49675000D03*
X122650000Y-49675000D03*
X118500000Y-51825000D03*
X122650000Y-51825000D03*
X118425000Y-42425000D03*
X122575000Y-42425000D03*
X118425000Y-44575000D03*
X122575000Y-44575000D03*
D31*
X117175000Y-77250000D03*
X118825000Y-77250000D03*
D32*
X123635000Y-61500000D03*
X121985000Y-61500000D03*
X121985000Y-56500000D03*
X123635000Y-56500000D03*
D31*
X91775000Y-71750000D03*
X93425000Y-71750000D03*
D33*
X129500000Y-58175000D03*
X129500000Y-59825000D03*
X126250000Y-58175000D03*
X126250000Y-59825000D03*
D34*
X101790000Y-66212500D03*
X101790000Y-63287500D03*
X98750000Y-66175000D03*
X98750000Y-63250000D03*
D33*
X129037500Y-65486999D03*
X129037500Y-67136999D03*
X129037500Y-63886999D03*
X129037500Y-62236999D03*
D35*
X122250000Y-65325000D03*
X122250000Y-63675000D03*
D32*
X108425000Y-65000000D03*
X110075000Y-65000000D03*
D36*
X98037500Y-79000000D03*
X103962500Y-79000000D03*
D33*
X114000000Y-70765000D03*
X114000000Y-72415000D03*
X106500000Y-70765000D03*
X106500000Y-72415000D03*
D37*
X107540000Y-75570000D03*
X113320000Y-75570000D03*
D38*
X107230000Y-74450000D03*
X108030000Y-74450000D03*
D39*
X109180000Y-74450000D03*
X110180000Y-74450000D03*
X110680000Y-74450000D03*
X111680000Y-74450000D03*
D38*
X112830000Y-74450000D03*
X113630000Y-74450000D03*
X113630000Y-74450000D03*
X112830000Y-74450000D03*
D39*
X112180000Y-74450000D03*
X111180000Y-74450000D03*
X109680000Y-74450000D03*
X108680000Y-74450000D03*
D38*
X108030000Y-74450000D03*
X107230000Y-74450000D03*
D40*
X106110000Y-79250000D03*
D41*
X106110000Y-75050000D03*
X114750000Y-75050000D03*
D40*
X114750000Y-79250000D03*
D42*
X119022500Y-56500000D03*
X120597500Y-56500000D03*
X119022500Y-61500000D03*
X120597500Y-61500000D03*
X117175000Y-79500000D03*
X118750000Y-79500000D03*
D43*
X109750000Y-72250000D03*
X109750000Y-70930000D03*
X111750000Y-72250000D03*
X111750000Y-70930000D03*
D44*
X126100000Y-50250000D03*
X128400000Y-50250000D03*
D45*
X126000000Y-55650000D03*
X126000000Y-53350000D03*
D46*
X129050000Y-69750000D03*
X126750000Y-69750000D03*
D47*
X127000000Y-67750000D03*
X126000000Y-67750000D03*
X115400000Y-65750000D03*
X116400000Y-65750000D03*
D46*
X117150000Y-63750000D03*
X114850000Y-63750000D03*
D45*
X129250000Y-55650000D03*
X129250000Y-53350000D03*
D46*
X106900000Y-68750000D03*
X104600000Y-68750000D03*
D48*
X97719000Y-76500000D03*
X98281000Y-76500000D03*
D49*
X94750000Y-72250000D03*
X94750000Y-71250000D03*
D46*
X93750000Y-73750000D03*
X91450000Y-73750000D03*
D44*
X104600000Y-66250000D03*
X106900000Y-66250000D03*
X104600000Y-63500000D03*
X106900000Y-63500000D03*
D50*
X118100000Y-71250000D03*
X123500000Y-71250000D03*
D51*
X93000000Y-66000000D03*
D52*
X93000000Y-63500000D03*
X93000000Y-61000000D03*
X93000000Y-58500000D03*
%LPD*%
M02*
