M48
; DRILL file {KiCad 7.0.6} date Tue Mar 25 12:27:33 2025
; FORMAT={-:-/ absolute / metric / decimal}
; #@! TF.CreationDate,2025-03-25T12:27:33+01:00
; #@! TF.GenerationSoftware,Kicad,Pcbnew,7.0.6
; #@! TF.FileFunction,Plated,1,2,PTH
FMAT,2
METRIC
; #@! TA.AperFunction,Plated,PTH,ViaDrill
T1C0.100
; #@! TA.AperFunction,Plated,PTH,ViaDrill
T2C0.400
; #@! TA.AperFunction,Plated,PTH,ComponentDrill
T3C0.600
; #@! TA.AperFunction,Plated,PTH,ComponentDrill
T4C0.950
%
G90
G05
T1
X95.25Y-70.0
X95.586Y-68.664
X96.0Y-66.25
X96.329Y-68.599
X96.5Y-52.25
X96.5Y-59.75
X96.5Y-65.799
X97.0Y-51.5
X97.0Y-59.5
X97.0Y-65.799
X97.0Y-68.599
X97.5Y-65.799
X97.5Y-68.599
X98.5Y-75.0
X98.5Y-75.5
X98.849Y-51.5
X98.849Y-52.25
X99.0Y-60.0
X100.586Y-75.164
X103.25Y-59.5
X103.5Y-72.5
X103.75Y-54.25
X103.854Y-70.508
X105.099Y-72.0
X105.574Y-72.5
X106.5Y-62.25
X108.25Y-59.974
X109.5Y-63.5
X110.0Y-66.5
X110.75Y-71.5
X111.0Y-66.5
X112.25Y-63.25
X113.0Y-71.0
X117.75Y-54.25
X123.5Y-58.0
X123.5Y-60.25
T2
X91.0Y-70.0
X91.5Y-68.25
X91.5Y-75.0
X92.5Y-70.5
X98.275Y-68.0
X99.375Y-53.375
X99.75Y-54.75
X99.762Y-55.762
X100.412Y-49.589
X101.25Y-79.0
X101.75Y-68.0
X103.25Y-64.25
X103.5Y-73.25
X103.715Y-67.5
X104.5Y-71.5
X105.25Y-76.25
X107.478Y-73.139
X109.0Y-70.0
X114.75Y-69.75
X116.5Y-76.25
X117.0Y-67.5
X122.25Y-67.0
X124.5Y-67.25
T4
X93.0Y-58.5
X93.0Y-61.0
X93.0Y-63.5
X93.0Y-66.0
T3
X106.11Y-74.5G85X106.11Y-75.6
G05
X106.11Y-78.85G85X106.11Y-79.65
G05
X114.75Y-74.5G85X114.75Y-75.6
G05
X114.75Y-78.85G85X114.75Y-79.65
G05
T0
M30
