G04 #@! TF.GenerationSoftware,KiCad,Pcbnew,7.0.6*
G04 #@! TF.CreationDate,2025-04-22T09:08:53+02:00*
G04 #@! TF.ProjectId,Stepper ESPother3v3reg,53746570-7065-4722-9045-53506f746865,rev?*
G04 #@! TF.SameCoordinates,Original*
G04 #@! TF.FileFunction,Soldermask,Top*
G04 #@! TF.FilePolarity,Negative*
%FSLAX46Y46*%
G04 Gerber Fmt 4.6, Leading zero omitted, Abs format (unit mm)*
G04 Created by KiCad (PCBNEW 7.0.6) date 2025-04-22 09:08:53*
%MOMM*%
%LPD*%
G01*
G04 APERTURE LIST*
G04 Aperture macros list*
%AMRoundRect*
0 Rectangle with rounded corners*
0 $1 Rounding radius*
0 $2 $3 $4 $5 $6 $7 $8 $9 X,Y pos of 4 corners*
0 Add a 4 corners polygon primitive as box body*
4,1,4,$2,$3,$4,$5,$6,$7,$8,$9,$2,$3,0*
0 Add four circle primitives for the rounded corners*
1,1,$1+$1,$2,$3*
1,1,$1+$1,$4,$5*
1,1,$1+$1,$6,$7*
1,1,$1+$1,$8,$9*
0 Add four rect primitives between the rounded corners*
20,1,$1+$1,$2,$3,$4,$5,0*
20,1,$1+$1,$4,$5,$6,$7,0*
20,1,$1+$1,$6,$7,$8,$9,0*
20,1,$1+$1,$8,$9,$2,$3,0*%
G04 Aperture macros list end*
%ADD10C,0.010000*%
%ADD11R,0.762000X0.254000*%
%ADD12R,0.254000X0.762000*%
%ADD13R,3.800000X3.800000*%
%ADD14R,1.500000X2.000000*%
%ADD15R,3.800000X2.000000*%
%ADD16RoundRect,0.102000X0.450000X0.650000X-0.450000X0.650000X-0.450000X-0.650000X0.450000X-0.650000X0*%
%ADD17RoundRect,0.200000X0.200000X0.275000X-0.200000X0.275000X-0.200000X-0.275000X0.200000X-0.275000X0*%
%ADD18RoundRect,0.250000X0.625000X-0.312500X0.625000X0.312500X-0.625000X0.312500X-0.625000X-0.312500X0*%
%ADD19RoundRect,0.102000X-0.190000X-0.200000X0.190000X-0.200000X0.190000X0.200000X-0.190000X0.200000X0*%
%ADD20RoundRect,0.102000X-0.450000X-0.650000X0.450000X-0.650000X0.450000X0.650000X-0.450000X0.650000X0*%
%ADD21RoundRect,0.200000X-0.275000X0.200000X-0.275000X-0.200000X0.275000X-0.200000X0.275000X0.200000X0*%
%ADD22RoundRect,0.250000X0.725000X-0.600000X0.725000X0.600000X-0.725000X0.600000X-0.725000X-0.600000X0*%
%ADD23O,1.950000X1.700000*%
%ADD24RoundRect,0.102000X0.650000X-0.450000X0.650000X0.450000X-0.650000X0.450000X-0.650000X-0.450000X0*%
%ADD25RoundRect,0.218750X-0.218750X-0.256250X0.218750X-0.256250X0.218750X0.256250X-0.218750X0.256250X0*%
%ADD26RoundRect,0.102000X-0.400000X-0.200000X0.400000X-0.200000X0.400000X0.200000X-0.400000X0.200000X0*%
%ADD27RoundRect,0.102000X-0.200000X-0.400000X0.200000X-0.400000X0.200000X0.400000X-0.200000X0.400000X0*%
%ADD28RoundRect,0.102000X-0.600000X-0.600000X0.600000X-0.600000X0.600000X0.600000X-0.600000X0.600000X0*%
%ADD29RoundRect,0.102000X-0.400000X-0.400000X0.400000X-0.400000X0.400000X0.400000X-0.400000X0.400000X0*%
%ADD30RoundRect,0.102000X-0.525000X-0.325000X0.525000X-0.325000X0.525000X0.325000X-0.525000X0.325000X0*%
%ADD31RoundRect,0.250000X-0.362500X-1.425000X0.362500X-1.425000X0.362500X1.425000X-0.362500X1.425000X0*%
%ADD32RoundRect,0.200000X-0.200000X-0.275000X0.200000X-0.275000X0.200000X0.275000X-0.200000X0.275000X0*%
%ADD33C,0.650000*%
%ADD34R,0.600000X1.240000*%
%ADD35R,0.300000X1.240000*%
%ADD36O,1.000000X2.100000*%
%ADD37O,1.000000X1.800000*%
%ADD38RoundRect,0.102000X0.200000X-0.240000X0.200000X0.240000X-0.200000X0.240000X-0.200000X-0.240000X0*%
%ADD39RoundRect,0.250000X1.500000X0.550000X-1.500000X0.550000X-1.500000X-0.550000X1.500000X-0.550000X0*%
%ADD40RoundRect,0.102000X-0.250000X0.250000X-0.250000X-0.250000X0.250000X-0.250000X0.250000X0.250000X0*%
G04 APERTURE END LIST*
D10*
X107950000Y-52950000D02*
X106550000Y-52950000D01*
X106550000Y-52200000D01*
X107200000Y-51550000D01*
X107950000Y-51550000D01*
X107950000Y-52950000D01*
G36*
X107950000Y-52950000D02*
G01*
X106550000Y-52950000D01*
X106550000Y-52200000D01*
X107200000Y-51550000D01*
X107950000Y-51550000D01*
X107950000Y-52950000D01*
G37*
D11*
X97574300Y-70000000D03*
X97574300Y-70499999D03*
X97574300Y-71000001D03*
X97574300Y-71500000D03*
X97574300Y-71999999D03*
X97574300Y-72500001D03*
X97574300Y-73000000D03*
D12*
X98500000Y-73925700D03*
X98999999Y-73925700D03*
X99500001Y-73925700D03*
X100000000Y-73925700D03*
X100499999Y-73925700D03*
X101000001Y-73925700D03*
X101500000Y-73925700D03*
D11*
X102425700Y-73000000D03*
X102425700Y-72500001D03*
X102425700Y-71999999D03*
X102425700Y-71500000D03*
X102425700Y-71000001D03*
X102425700Y-70499999D03*
X102425700Y-70000000D03*
D12*
X101500000Y-69074300D03*
X101000001Y-69074300D03*
X100499999Y-69074300D03*
X100000000Y-69074300D03*
X99500001Y-69074300D03*
X98999999Y-69074300D03*
X98500000Y-69074300D03*
D13*
X100000000Y-71500000D03*
D14*
X129050000Y-65350000D03*
D15*
X126750000Y-71650000D03*
D14*
X126750000Y-65350000D03*
X124450000Y-65350000D03*
D16*
X106900000Y-68750000D03*
X104600000Y-68750000D03*
D17*
X93425000Y-70750000D03*
X91775000Y-70750000D03*
D18*
X101790000Y-66212500D03*
X101790000Y-63287500D03*
D19*
X97719000Y-76500000D03*
X98281000Y-76500000D03*
D20*
X126100000Y-50250000D03*
X128400000Y-50250000D03*
D21*
X126250000Y-58175000D03*
X126250000Y-59825000D03*
D22*
X93000000Y-66000000D03*
D23*
X93000000Y-63500000D03*
X93000000Y-61000000D03*
X93000000Y-58500000D03*
D21*
X129500000Y-58175000D03*
X129500000Y-59825000D03*
D24*
X126000000Y-55650000D03*
X126000000Y-53350000D03*
D21*
X114000000Y-70765000D03*
X114000000Y-72415000D03*
D25*
X119022500Y-56500000D03*
X120597500Y-56500000D03*
D26*
X101900000Y-47950000D03*
X101900000Y-48800000D03*
X101900000Y-49650000D03*
X101900000Y-50500000D03*
X101900000Y-51350000D03*
X101900000Y-52200000D03*
X101900000Y-53050000D03*
X101900000Y-53900000D03*
X101900000Y-54750000D03*
X101900000Y-55600000D03*
X101900000Y-56450000D03*
X101900000Y-57300000D03*
X101900000Y-58150000D03*
X101900000Y-59000000D03*
X101900000Y-59850000D03*
D27*
X102950000Y-60900000D03*
X103800000Y-60900000D03*
X104650000Y-60900000D03*
X105500000Y-60900000D03*
X106350000Y-60900000D03*
X107200000Y-60900000D03*
X108050000Y-60900000D03*
X108900000Y-60900000D03*
X109750000Y-60900000D03*
X110600000Y-60900000D03*
X111450000Y-60900000D03*
X112300000Y-60900000D03*
X113150000Y-60900000D03*
X114000000Y-60900000D03*
X114850000Y-60900000D03*
D26*
X115900000Y-59850000D03*
X115900000Y-59000000D03*
X115900000Y-58150000D03*
X115900000Y-57300000D03*
X115900000Y-56450000D03*
X115900000Y-55600000D03*
X115900000Y-54750000D03*
X115900000Y-53900000D03*
X115900000Y-53050000D03*
X115900000Y-52200000D03*
X115900000Y-51350000D03*
X115900000Y-50500000D03*
X115900000Y-49650000D03*
X115900000Y-48800000D03*
X115900000Y-47950000D03*
D27*
X114850000Y-46900000D03*
X114000000Y-46900000D03*
X113150000Y-46900000D03*
X112300000Y-46900000D03*
X111450000Y-46900000D03*
X110600000Y-46900000D03*
X109750000Y-46900000D03*
X108900000Y-46900000D03*
X108050000Y-46900000D03*
X107200000Y-46900000D03*
X106350000Y-46900000D03*
X105500000Y-46900000D03*
X104650000Y-46900000D03*
X103800000Y-46900000D03*
X102950000Y-46900000D03*
D28*
X108900000Y-53900000D03*
X108900000Y-52250000D03*
X110550000Y-52250000D03*
X110550000Y-53900000D03*
X110550000Y-55550000D03*
X108900000Y-55550000D03*
X107250000Y-55550000D03*
X107250000Y-53900000D03*
D29*
X101900000Y-46900000D03*
X101900000Y-60900000D03*
X115900000Y-60900000D03*
X115900000Y-46900000D03*
D30*
X118500000Y-49675000D03*
X122650000Y-49675000D03*
X118500000Y-51825000D03*
X122650000Y-51825000D03*
D31*
X98037500Y-79000000D03*
X103962500Y-79000000D03*
D17*
X118825000Y-77250000D03*
X117175000Y-77250000D03*
D25*
X117175000Y-79500000D03*
X118750000Y-79500000D03*
X119022500Y-61500000D03*
X120597500Y-61500000D03*
D32*
X121985000Y-61500000D03*
X123635000Y-61500000D03*
D33*
X107540000Y-75570000D03*
X113320000Y-75570000D03*
D34*
X107230000Y-74450000D03*
X108030000Y-74450000D03*
D35*
X109180000Y-74450000D03*
X110180000Y-74450000D03*
X110680000Y-74450000D03*
X111680000Y-74450000D03*
D34*
X112830000Y-74450000D03*
X113630000Y-74450000D03*
X113630000Y-74450000D03*
X112830000Y-74450000D03*
D35*
X112180000Y-74450000D03*
X111180000Y-74450000D03*
X109680000Y-74450000D03*
X108680000Y-74450000D03*
D34*
X108030000Y-74450000D03*
X107230000Y-74450000D03*
D36*
X106110000Y-75050000D03*
D37*
X106110000Y-79250000D03*
D36*
X114750000Y-75050000D03*
D37*
X114750000Y-79250000D03*
D18*
X98750000Y-66175000D03*
X98750000Y-63250000D03*
D38*
X109750000Y-72250000D03*
X109750000Y-70930000D03*
D16*
X93400000Y-72500000D03*
X91100000Y-72500000D03*
D39*
X120200000Y-66000000D03*
X114800000Y-66000000D03*
D30*
X118425000Y-42425000D03*
X122575000Y-42425000D03*
X118425000Y-44575000D03*
X122575000Y-44575000D03*
D20*
X104600000Y-66250000D03*
X106900000Y-66250000D03*
D24*
X129250000Y-55650000D03*
X129250000Y-53350000D03*
D32*
X121985000Y-56500000D03*
X123635000Y-56500000D03*
D38*
X111750000Y-72250000D03*
X111750000Y-70930000D03*
D20*
X104600000Y-63500000D03*
X106900000Y-63500000D03*
D21*
X108500000Y-64675000D03*
X108500000Y-66325000D03*
D40*
X94750000Y-72250000D03*
X94750000Y-71250000D03*
D21*
X106500000Y-70765000D03*
X106500000Y-72415000D03*
M02*
