M48
; DRILL file {KiCad 7.0.6} date Tue Apr 22 09:09:17 2025
; FORMAT={-:-/ absolute / metric / decimal}
; #@! TF.CreationDate,2025-04-22T09:09:17+02:00
; #@! TF.GenerationSoftware,Kicad,Pcbnew,7.0.6
; #@! TF.FileFunction,Plated,1,2,PTH
FMAT,2
METRIC
; #@! TA.AperFunction,Plated,PTH,ViaDrill
T1C0.100
; #@! TA.AperFunction,Plated,PTH,ViaDrill
T2C0.400
; #@! TA.AperFunction,Plated,PTH,ComponentDrill
T3C0.600
; #@! TA.AperFunction,Plated,PTH,ComponentDrill
T4C0.950
; #@! TA.AperFunction,Plated,PTH,ViaDrill
T5C4.000
%
G90
G05
T1
X95.25Y-70.0
X95.586Y-68.664
X96.0Y-66.25
X96.329Y-68.599
X96.5Y-52.25
X96.5Y-59.75
X96.5Y-65.799
X97.0Y-51.5
X97.0Y-59.5
X97.0Y-65.799
X97.0Y-68.599
X97.0Y-71.0
X97.5Y-65.799
X97.5Y-68.599
X97.5Y-73.75
X98.5Y-75.0
X98.5Y-75.5
X98.849Y-51.5
X98.849Y-52.25
X99.0Y-60.0
X99.5Y-76.25
X99.75Y-54.75
X99.75Y-55.75
X100.586Y-75.164
X101.25Y-75.5
X103.25Y-59.5
X103.5Y-72.5
X103.75Y-54.25
X103.854Y-70.508
X105.099Y-72.0
X105.574Y-72.5
X106.5Y-62.25
X108.25Y-59.974
X109.0Y-63.393
X109.25Y-67.25
X109.774Y-66.75
X110.75Y-71.5
X111.0Y-66.0
X112.25Y-63.25
X112.603Y-63.603
X113.0Y-71.0
X117.75Y-54.25
X123.5Y-58.0
X123.5Y-60.25
X127.6Y-51.75
X127.75Y-55.5
T2
X91.0Y-70.0
X91.5Y-68.25
X92.0Y-74.0
X92.601Y-69.601
X98.275Y-68.0
X99.375Y-53.375
X100.412Y-49.589
X101.25Y-79.0
X101.75Y-68.0
X103.25Y-64.25
X103.5Y-73.25
X104.277Y-71.373
X105.25Y-76.25
X107.459Y-73.139
X109.0Y-70.0
X115.5Y-70.5
X116.5Y-76.25
X117.25Y-70.5
X120.5Y-70.5
X124.75Y-60.0
X126.75Y-63.0
T4
X93.0Y-58.5
X93.0Y-61.0
X93.0Y-63.5
X93.0Y-66.0
T5
X94.75Y-45.5
X94.75Y-77.5
X126.75Y-45.5
X126.75Y-77.5
T3
X106.11Y-74.5G85X106.11Y-75.6
G05
X106.11Y-78.85G85X106.11Y-79.65
G05
X114.75Y-74.5G85X114.75Y-75.6
G05
X114.75Y-78.85G85X114.75Y-79.65
G05
T0
M30
