G04 #@! TF.GenerationSoftware,KiCad,Pcbnew,7.0.6*
G04 #@! TF.CreationDate,2025-03-26T20:14:53+01:00*
G04 #@! TF.ProjectId,Stepper ESP,53746570-7065-4722-9045-53502e6b6963,rev?*
G04 #@! TF.SameCoordinates,Original*
G04 #@! TF.FileFunction,Legend,Top*
G04 #@! TF.FilePolarity,Positive*
%FSLAX46Y46*%
G04 Gerber Fmt 4.6, Leading zero omitted, Abs format (unit mm)*
G04 Created by KiCad (PCBNEW 7.0.6) date 2025-03-26 20:14:53*
%MOMM*%
%LPD*%
G01*
G04 APERTURE LIST*
G04 Aperture macros list*
%AMRoundRect*
0 Rectangle with rounded corners*
0 $1 Rounding radius*
0 $2 $3 $4 $5 $6 $7 $8 $9 X,Y pos of 4 corners*
0 Add a 4 corners polygon primitive as box body*
4,1,4,$2,$3,$4,$5,$6,$7,$8,$9,$2,$3,0*
0 Add four circle primitives for the rounded corners*
1,1,$1+$1,$2,$3*
1,1,$1+$1,$4,$5*
1,1,$1+$1,$6,$7*
1,1,$1+$1,$8,$9*
0 Add four rect primitives between the rounded corners*
20,1,$1+$1,$2,$3,$4,$5,0*
20,1,$1+$1,$4,$5,$6,$7,0*
20,1,$1+$1,$6,$7,$8,$9,0*
20,1,$1+$1,$8,$9,$2,$3,0*%
G04 Aperture macros list end*
%ADD10C,0.062500*%
%ADD11C,0.150000*%
%ADD12C,0.125000*%
%ADD13C,0.080000*%
%ADD14C,0.060000*%
%ADD15C,0.098425*%
%ADD16C,0.152400*%
%ADD17C,0.127000*%
%ADD18C,0.200000*%
%ADD19C,0.120000*%
%ADD20C,0.010000*%
%ADD21R,0.625000X0.400000*%
%ADD22R,0.350000X0.275000*%
%ADD23R,1.100000X1.900000*%
%ADD24R,0.762000X0.254000*%
%ADD25R,0.254000X0.762000*%
%ADD26R,3.800000X3.800000*%
%ADD27RoundRect,0.102000X-0.400000X-0.200000X0.400000X-0.200000X0.400000X0.200000X-0.400000X0.200000X0*%
%ADD28RoundRect,0.102000X-0.200000X-0.400000X0.200000X-0.400000X0.200000X0.400000X-0.200000X0.400000X0*%
%ADD29RoundRect,0.102000X-0.600000X-0.600000X0.600000X-0.600000X0.600000X0.600000X-0.600000X0.600000X0*%
%ADD30RoundRect,0.102000X-0.400000X-0.400000X0.400000X-0.400000X0.400000X0.400000X-0.400000X0.400000X0*%
%ADD31RoundRect,0.102000X-0.525000X-0.325000X0.525000X-0.325000X0.525000X0.325000X-0.525000X0.325000X0*%
%ADD32RoundRect,0.200000X0.200000X0.275000X-0.200000X0.275000X-0.200000X-0.275000X0.200000X-0.275000X0*%
%ADD33RoundRect,0.200000X-0.200000X-0.275000X0.200000X-0.275000X0.200000X0.275000X-0.200000X0.275000X0*%
%ADD34RoundRect,0.200000X-0.275000X0.200000X-0.275000X-0.200000X0.275000X-0.200000X0.275000X0.200000X0*%
%ADD35RoundRect,0.250000X0.625000X-0.312500X0.625000X0.312500X-0.625000X0.312500X-0.625000X-0.312500X0*%
%ADD36RoundRect,0.200000X0.275000X-0.200000X0.275000X0.200000X-0.275000X0.200000X-0.275000X-0.200000X0*%
%ADD37RoundRect,0.250000X-0.362500X-1.425000X0.362500X-1.425000X0.362500X1.425000X-0.362500X1.425000X0*%
%ADD38O,1.000000X1.800000*%
%ADD39O,1.000000X2.100000*%
%ADD40R,0.600000X1.240000*%
%ADD41R,0.300000X1.240000*%
%ADD42C,0.650000*%
%ADD43RoundRect,0.218750X-0.218750X-0.256250X0.218750X-0.256250X0.218750X0.256250X-0.218750X0.256250X0*%
%ADD44RoundRect,0.102000X0.200000X-0.240000X0.200000X0.240000X-0.200000X0.240000X-0.200000X-0.240000X0*%
%ADD45RoundRect,0.102000X-0.450000X-0.650000X0.450000X-0.650000X0.450000X0.650000X-0.450000X0.650000X0*%
%ADD46RoundRect,0.102000X0.650000X-0.450000X0.650000X0.450000X-0.650000X0.450000X-0.650000X-0.450000X0*%
%ADD47RoundRect,0.102000X0.450000X0.650000X-0.450000X0.650000X-0.450000X-0.650000X0.450000X-0.650000X0*%
%ADD48RoundRect,0.102000X-0.250000X-0.250000X0.250000X-0.250000X0.250000X0.250000X-0.250000X0.250000X0*%
%ADD49RoundRect,0.102000X-0.190000X-0.200000X0.190000X-0.200000X0.190000X0.200000X-0.190000X0.200000X0*%
%ADD50RoundRect,0.102000X-0.250000X0.250000X-0.250000X-0.250000X0.250000X-0.250000X0.250000X0.250000X0*%
%ADD51RoundRect,0.250000X-1.500000X-0.550000X1.500000X-0.550000X1.500000X0.550000X-1.500000X0.550000X0*%
%ADD52RoundRect,0.250000X0.725000X-0.600000X0.725000X0.600000X-0.725000X0.600000X-0.725000X-0.600000X0*%
%ADD53O,1.950000X1.700000*%
G04 APERTURE END LIST*
D10*
X99674440Y-42410165D02*
X100174440Y-42410165D01*
X100174440Y-42410165D02*
X99817297Y-42576832D01*
X99817297Y-42576832D02*
X100174440Y-42743498D01*
X100174440Y-42743498D02*
X99674440Y-42743498D01*
X99626821Y-43314927D02*
X99650630Y-43267308D01*
X99650630Y-43267308D02*
X99698250Y-43219689D01*
X99698250Y-43219689D02*
X99769678Y-43148261D01*
X99769678Y-43148261D02*
X99793488Y-43100642D01*
X99793488Y-43100642D02*
X99793488Y-43053023D01*
X99674440Y-43076832D02*
X99698250Y-43029213D01*
X99698250Y-43029213D02*
X99745869Y-42981594D01*
X99745869Y-42981594D02*
X99841107Y-42957785D01*
X99841107Y-42957785D02*
X100007773Y-42957785D01*
X100007773Y-42957785D02*
X100103011Y-42981594D01*
X100103011Y-42981594D02*
X100150630Y-43029213D01*
X100150630Y-43029213D02*
X100174440Y-43076832D01*
X100174440Y-43076832D02*
X100174440Y-43172070D01*
X100174440Y-43172070D02*
X100150630Y-43219689D01*
X100150630Y-43219689D02*
X100103011Y-43267308D01*
X100103011Y-43267308D02*
X100007773Y-43291118D01*
X100007773Y-43291118D02*
X99841107Y-43291118D01*
X99841107Y-43291118D02*
X99745869Y-43267308D01*
X99745869Y-43267308D02*
X99698250Y-43219689D01*
X99698250Y-43219689D02*
X99674440Y-43172070D01*
X99674440Y-43172070D02*
X99674440Y-43076832D01*
X100174440Y-43433976D02*
X100174440Y-43719690D01*
X99674440Y-43576833D02*
X100174440Y-43576833D01*
X100174440Y-43814928D02*
X100174440Y-44100642D01*
X99674440Y-43957785D02*
X100174440Y-43957785D01*
X99698250Y-44624451D02*
X99674440Y-44695879D01*
X99674440Y-44695879D02*
X99674440Y-44814927D01*
X99674440Y-44814927D02*
X99698250Y-44862546D01*
X99698250Y-44862546D02*
X99722059Y-44886355D01*
X99722059Y-44886355D02*
X99769678Y-44910165D01*
X99769678Y-44910165D02*
X99817297Y-44910165D01*
X99817297Y-44910165D02*
X99864916Y-44886355D01*
X99864916Y-44886355D02*
X99888726Y-44862546D01*
X99888726Y-44862546D02*
X99912535Y-44814927D01*
X99912535Y-44814927D02*
X99936345Y-44719689D01*
X99936345Y-44719689D02*
X99960154Y-44672070D01*
X99960154Y-44672070D02*
X99983964Y-44648260D01*
X99983964Y-44648260D02*
X100031583Y-44624451D01*
X100031583Y-44624451D02*
X100079202Y-44624451D01*
X100079202Y-44624451D02*
X100126821Y-44648260D01*
X100126821Y-44648260D02*
X100150630Y-44672070D01*
X100150630Y-44672070D02*
X100174440Y-44719689D01*
X100174440Y-44719689D02*
X100174440Y-44838736D01*
X100174440Y-44838736D02*
X100150630Y-44910165D01*
X100007773Y-45053022D02*
X100007773Y-45243498D01*
X100174440Y-45124450D02*
X99745869Y-45124450D01*
X99745869Y-45124450D02*
X99698250Y-45148260D01*
X99698250Y-45148260D02*
X99674440Y-45195879D01*
X99674440Y-45195879D02*
X99674440Y-45243498D01*
X99698250Y-45600640D02*
X99674440Y-45553021D01*
X99674440Y-45553021D02*
X99674440Y-45457783D01*
X99674440Y-45457783D02*
X99698250Y-45410164D01*
X99698250Y-45410164D02*
X99745869Y-45386355D01*
X99745869Y-45386355D02*
X99936345Y-45386355D01*
X99936345Y-45386355D02*
X99983964Y-45410164D01*
X99983964Y-45410164D02*
X100007773Y-45457783D01*
X100007773Y-45457783D02*
X100007773Y-45553021D01*
X100007773Y-45553021D02*
X99983964Y-45600640D01*
X99983964Y-45600640D02*
X99936345Y-45624450D01*
X99936345Y-45624450D02*
X99888726Y-45624450D01*
X99888726Y-45624450D02*
X99841107Y-45386355D01*
X100007773Y-45838735D02*
X99507773Y-45838735D01*
X99983964Y-45838735D02*
X100007773Y-45886354D01*
X100007773Y-45886354D02*
X100007773Y-45981592D01*
X100007773Y-45981592D02*
X99983964Y-46029211D01*
X99983964Y-46029211D02*
X99960154Y-46053021D01*
X99960154Y-46053021D02*
X99912535Y-46076830D01*
X99912535Y-46076830D02*
X99769678Y-46076830D01*
X99769678Y-46076830D02*
X99722059Y-46053021D01*
X99722059Y-46053021D02*
X99698250Y-46029211D01*
X99698250Y-46029211D02*
X99674440Y-45981592D01*
X99674440Y-45981592D02*
X99674440Y-45886354D01*
X99674440Y-45886354D02*
X99698250Y-45838735D01*
X100007773Y-46291116D02*
X99507773Y-46291116D01*
X99983964Y-46291116D02*
X100007773Y-46338735D01*
X100007773Y-46338735D02*
X100007773Y-46433973D01*
X100007773Y-46433973D02*
X99983964Y-46481592D01*
X99983964Y-46481592D02*
X99960154Y-46505402D01*
X99960154Y-46505402D02*
X99912535Y-46529211D01*
X99912535Y-46529211D02*
X99769678Y-46529211D01*
X99769678Y-46529211D02*
X99722059Y-46505402D01*
X99722059Y-46505402D02*
X99698250Y-46481592D01*
X99698250Y-46481592D02*
X99674440Y-46433973D01*
X99674440Y-46433973D02*
X99674440Y-46338735D01*
X99674440Y-46338735D02*
X99698250Y-46291116D01*
X99698250Y-46933973D02*
X99674440Y-46886354D01*
X99674440Y-46886354D02*
X99674440Y-46791116D01*
X99674440Y-46791116D02*
X99698250Y-46743497D01*
X99698250Y-46743497D02*
X99745869Y-46719688D01*
X99745869Y-46719688D02*
X99936345Y-46719688D01*
X99936345Y-46719688D02*
X99983964Y-46743497D01*
X99983964Y-46743497D02*
X100007773Y-46791116D01*
X100007773Y-46791116D02*
X100007773Y-46886354D01*
X100007773Y-46886354D02*
X99983964Y-46933973D01*
X99983964Y-46933973D02*
X99936345Y-46957783D01*
X99936345Y-46957783D02*
X99888726Y-46957783D01*
X99888726Y-46957783D02*
X99841107Y-46719688D01*
X99674440Y-47172068D02*
X100007773Y-47172068D01*
X99912535Y-47172068D02*
X99960154Y-47195878D01*
X99960154Y-47195878D02*
X99983964Y-47219687D01*
X99983964Y-47219687D02*
X100007773Y-47267306D01*
X100007773Y-47267306D02*
X100007773Y-47314925D01*
X99202773Y-42362546D02*
X98869440Y-42481594D01*
X98869440Y-42481594D02*
X99202773Y-42600641D01*
X98869440Y-43433974D02*
X98869440Y-43148260D01*
X98869440Y-43291117D02*
X99369440Y-43291117D01*
X99369440Y-43291117D02*
X99298011Y-43243498D01*
X99298011Y-43243498D02*
X99250392Y-43195879D01*
X99250392Y-43195879D02*
X99226583Y-43148260D01*
X98917059Y-43648259D02*
X98893250Y-43672069D01*
X98893250Y-43672069D02*
X98869440Y-43648259D01*
X98869440Y-43648259D02*
X98893250Y-43624450D01*
X98893250Y-43624450D02*
X98917059Y-43648259D01*
X98917059Y-43648259D02*
X98869440Y-43648259D01*
X98869440Y-44148259D02*
X98869440Y-43862545D01*
X98869440Y-44005402D02*
X99369440Y-44005402D01*
X99369440Y-44005402D02*
X99298011Y-43957783D01*
X99298011Y-43957783D02*
X99250392Y-43910164D01*
X99250392Y-43910164D02*
X99226583Y-43862545D01*
X99321821Y-44719687D02*
X99345630Y-44743496D01*
X99345630Y-44743496D02*
X99369440Y-44791115D01*
X99369440Y-44791115D02*
X99369440Y-44910163D01*
X99369440Y-44910163D02*
X99345630Y-44957782D01*
X99345630Y-44957782D02*
X99321821Y-44981591D01*
X99321821Y-44981591D02*
X99274202Y-45005401D01*
X99274202Y-45005401D02*
X99226583Y-45005401D01*
X99226583Y-45005401D02*
X99155154Y-44981591D01*
X99155154Y-44981591D02*
X98869440Y-44695877D01*
X98869440Y-44695877D02*
X98869440Y-45005401D01*
X99369440Y-45314924D02*
X99369440Y-45362543D01*
X99369440Y-45362543D02*
X99345630Y-45410162D01*
X99345630Y-45410162D02*
X99321821Y-45433972D01*
X99321821Y-45433972D02*
X99274202Y-45457781D01*
X99274202Y-45457781D02*
X99178964Y-45481591D01*
X99178964Y-45481591D02*
X99059916Y-45481591D01*
X99059916Y-45481591D02*
X98964678Y-45457781D01*
X98964678Y-45457781D02*
X98917059Y-45433972D01*
X98917059Y-45433972D02*
X98893250Y-45410162D01*
X98893250Y-45410162D02*
X98869440Y-45362543D01*
X98869440Y-45362543D02*
X98869440Y-45314924D01*
X98869440Y-45314924D02*
X98893250Y-45267305D01*
X98893250Y-45267305D02*
X98917059Y-45243496D01*
X98917059Y-45243496D02*
X98964678Y-45219686D01*
X98964678Y-45219686D02*
X99059916Y-45195877D01*
X99059916Y-45195877D02*
X99178964Y-45195877D01*
X99178964Y-45195877D02*
X99274202Y-45219686D01*
X99274202Y-45219686D02*
X99321821Y-45243496D01*
X99321821Y-45243496D02*
X99345630Y-45267305D01*
X99345630Y-45267305D02*
X99369440Y-45314924D01*
X99321821Y-45672067D02*
X99345630Y-45695876D01*
X99345630Y-45695876D02*
X99369440Y-45743495D01*
X99369440Y-45743495D02*
X99369440Y-45862543D01*
X99369440Y-45862543D02*
X99345630Y-45910162D01*
X99345630Y-45910162D02*
X99321821Y-45933971D01*
X99321821Y-45933971D02*
X99274202Y-45957781D01*
X99274202Y-45957781D02*
X99226583Y-45957781D01*
X99226583Y-45957781D02*
X99155154Y-45933971D01*
X99155154Y-45933971D02*
X98869440Y-45648257D01*
X98869440Y-45648257D02*
X98869440Y-45957781D01*
X99369440Y-46410161D02*
X99369440Y-46172066D01*
X99369440Y-46172066D02*
X99131345Y-46148257D01*
X99131345Y-46148257D02*
X99155154Y-46172066D01*
X99155154Y-46172066D02*
X99178964Y-46219685D01*
X99178964Y-46219685D02*
X99178964Y-46338733D01*
X99178964Y-46338733D02*
X99155154Y-46386352D01*
X99155154Y-46386352D02*
X99131345Y-46410161D01*
X99131345Y-46410161D02*
X99083726Y-46433971D01*
X99083726Y-46433971D02*
X98964678Y-46433971D01*
X98964678Y-46433971D02*
X98917059Y-46410161D01*
X98917059Y-46410161D02*
X98893250Y-46386352D01*
X98893250Y-46386352D02*
X98869440Y-46338733D01*
X98869440Y-46338733D02*
X98869440Y-46219685D01*
X98869440Y-46219685D02*
X98893250Y-46172066D01*
X98893250Y-46172066D02*
X98917059Y-46148257D01*
X98564440Y-42505403D02*
X98564440Y-42600641D01*
X98564440Y-42600641D02*
X98540630Y-42648260D01*
X98540630Y-42648260D02*
X98493011Y-42695879D01*
X98493011Y-42695879D02*
X98397773Y-42719689D01*
X98397773Y-42719689D02*
X98231107Y-42719689D01*
X98231107Y-42719689D02*
X98135869Y-42695879D01*
X98135869Y-42695879D02*
X98088250Y-42648260D01*
X98088250Y-42648260D02*
X98064440Y-42600641D01*
X98064440Y-42600641D02*
X98064440Y-42505403D01*
X98064440Y-42505403D02*
X98088250Y-42457784D01*
X98088250Y-42457784D02*
X98135869Y-42410165D01*
X98135869Y-42410165D02*
X98231107Y-42386356D01*
X98231107Y-42386356D02*
X98397773Y-42386356D01*
X98397773Y-42386356D02*
X98493011Y-42410165D01*
X98493011Y-42410165D02*
X98540630Y-42457784D01*
X98540630Y-42457784D02*
X98564440Y-42505403D01*
X98064440Y-43005404D02*
X98088250Y-42957785D01*
X98088250Y-42957785D02*
X98135869Y-42933975D01*
X98135869Y-42933975D02*
X98564440Y-42933975D01*
X98064440Y-43195880D02*
X98397773Y-43195880D01*
X98564440Y-43195880D02*
X98540630Y-43172071D01*
X98540630Y-43172071D02*
X98516821Y-43195880D01*
X98516821Y-43195880D02*
X98540630Y-43219690D01*
X98540630Y-43219690D02*
X98564440Y-43195880D01*
X98564440Y-43195880D02*
X98516821Y-43195880D01*
X98397773Y-43386356D02*
X98064440Y-43505404D01*
X98064440Y-43505404D02*
X98397773Y-43624451D01*
X98088250Y-44005403D02*
X98064440Y-43957784D01*
X98064440Y-43957784D02*
X98064440Y-43862546D01*
X98064440Y-43862546D02*
X98088250Y-43814927D01*
X98088250Y-43814927D02*
X98135869Y-43791118D01*
X98135869Y-43791118D02*
X98326345Y-43791118D01*
X98326345Y-43791118D02*
X98373964Y-43814927D01*
X98373964Y-43814927D02*
X98397773Y-43862546D01*
X98397773Y-43862546D02*
X98397773Y-43957784D01*
X98397773Y-43957784D02*
X98373964Y-44005403D01*
X98373964Y-44005403D02*
X98326345Y-44029213D01*
X98326345Y-44029213D02*
X98278726Y-44029213D01*
X98278726Y-44029213D02*
X98231107Y-43791118D01*
X98064440Y-44243498D02*
X98397773Y-44243498D01*
X98302535Y-44243498D02*
X98350154Y-44267308D01*
X98350154Y-44267308D02*
X98373964Y-44291117D01*
X98373964Y-44291117D02*
X98397773Y-44338736D01*
X98397773Y-44338736D02*
X98397773Y-44386355D01*
X98564440Y-44910165D02*
X98469202Y-44910165D01*
X98564440Y-45100641D02*
X98469202Y-45100641D01*
X98088250Y-45291117D02*
X98064440Y-45362545D01*
X98064440Y-45362545D02*
X98064440Y-45481593D01*
X98064440Y-45481593D02*
X98088250Y-45529212D01*
X98088250Y-45529212D02*
X98112059Y-45553021D01*
X98112059Y-45553021D02*
X98159678Y-45576831D01*
X98159678Y-45576831D02*
X98207297Y-45576831D01*
X98207297Y-45576831D02*
X98254916Y-45553021D01*
X98254916Y-45553021D02*
X98278726Y-45529212D01*
X98278726Y-45529212D02*
X98302535Y-45481593D01*
X98302535Y-45481593D02*
X98326345Y-45386355D01*
X98326345Y-45386355D02*
X98350154Y-45338736D01*
X98350154Y-45338736D02*
X98373964Y-45314926D01*
X98373964Y-45314926D02*
X98421583Y-45291117D01*
X98421583Y-45291117D02*
X98469202Y-45291117D01*
X98469202Y-45291117D02*
X98516821Y-45314926D01*
X98516821Y-45314926D02*
X98540630Y-45338736D01*
X98540630Y-45338736D02*
X98564440Y-45386355D01*
X98564440Y-45386355D02*
X98564440Y-45505402D01*
X98564440Y-45505402D02*
X98540630Y-45576831D01*
X98397773Y-45791116D02*
X97897773Y-45791116D01*
X98373964Y-45791116D02*
X98397773Y-45838735D01*
X98397773Y-45838735D02*
X98397773Y-45933973D01*
X98397773Y-45933973D02*
X98373964Y-45981592D01*
X98373964Y-45981592D02*
X98350154Y-46005402D01*
X98350154Y-46005402D02*
X98302535Y-46029211D01*
X98302535Y-46029211D02*
X98159678Y-46029211D01*
X98159678Y-46029211D02*
X98112059Y-46005402D01*
X98112059Y-46005402D02*
X98088250Y-45981592D01*
X98088250Y-45981592D02*
X98064440Y-45933973D01*
X98064440Y-45933973D02*
X98064440Y-45838735D01*
X98064440Y-45838735D02*
X98088250Y-45791116D01*
X98064440Y-46243497D02*
X98397773Y-46243497D01*
X98302535Y-46243497D02*
X98350154Y-46267307D01*
X98350154Y-46267307D02*
X98373964Y-46291116D01*
X98373964Y-46291116D02*
X98397773Y-46338735D01*
X98397773Y-46338735D02*
X98397773Y-46386354D01*
X98064440Y-46624450D02*
X98088250Y-46576831D01*
X98088250Y-46576831D02*
X98112059Y-46553021D01*
X98112059Y-46553021D02*
X98159678Y-46529212D01*
X98159678Y-46529212D02*
X98302535Y-46529212D01*
X98302535Y-46529212D02*
X98350154Y-46553021D01*
X98350154Y-46553021D02*
X98373964Y-46576831D01*
X98373964Y-46576831D02*
X98397773Y-46624450D01*
X98397773Y-46624450D02*
X98397773Y-46695878D01*
X98397773Y-46695878D02*
X98373964Y-46743497D01*
X98373964Y-46743497D02*
X98350154Y-46767307D01*
X98350154Y-46767307D02*
X98302535Y-46791116D01*
X98302535Y-46791116D02*
X98159678Y-46791116D01*
X98159678Y-46791116D02*
X98112059Y-46767307D01*
X98112059Y-46767307D02*
X98088250Y-46743497D01*
X98088250Y-46743497D02*
X98064440Y-46695878D01*
X98064440Y-46695878D02*
X98064440Y-46624450D01*
X98064440Y-46957783D02*
X98397773Y-47219688D01*
X98397773Y-46957783D02*
X98064440Y-47219688D01*
X98064440Y-47362545D02*
X98397773Y-47624450D01*
X98397773Y-47362545D02*
X98064440Y-47624450D01*
X98397773Y-47767307D02*
X98064440Y-47886355D01*
X98397773Y-48005402D02*
X98064440Y-47886355D01*
X98064440Y-47886355D02*
X97945392Y-47838736D01*
X97945392Y-47838736D02*
X97921583Y-47814926D01*
X97921583Y-47814926D02*
X97897773Y-47767307D01*
X98564440Y-48172069D02*
X98469202Y-48172069D01*
X98564440Y-48362545D02*
X98469202Y-48362545D01*
X98064440Y-48957782D02*
X98564440Y-48957782D01*
X98326345Y-48957782D02*
X98326345Y-49243496D01*
X98064440Y-49243496D02*
X98564440Y-49243496D01*
X98088250Y-49672068D02*
X98064440Y-49624449D01*
X98064440Y-49624449D02*
X98064440Y-49529211D01*
X98064440Y-49529211D02*
X98088250Y-49481592D01*
X98088250Y-49481592D02*
X98135869Y-49457783D01*
X98135869Y-49457783D02*
X98326345Y-49457783D01*
X98326345Y-49457783D02*
X98373964Y-49481592D01*
X98373964Y-49481592D02*
X98397773Y-49529211D01*
X98397773Y-49529211D02*
X98397773Y-49624449D01*
X98397773Y-49624449D02*
X98373964Y-49672068D01*
X98373964Y-49672068D02*
X98326345Y-49695878D01*
X98326345Y-49695878D02*
X98278726Y-49695878D01*
X98278726Y-49695878D02*
X98231107Y-49457783D01*
X98064440Y-49910163D02*
X98397773Y-49910163D01*
X98302535Y-49910163D02*
X98350154Y-49933973D01*
X98350154Y-49933973D02*
X98373964Y-49957782D01*
X98373964Y-49957782D02*
X98397773Y-50005401D01*
X98397773Y-50005401D02*
X98397773Y-50053020D01*
X98088250Y-50195878D02*
X98064440Y-50243497D01*
X98064440Y-50243497D02*
X98064440Y-50338735D01*
X98064440Y-50338735D02*
X98088250Y-50386354D01*
X98088250Y-50386354D02*
X98135869Y-50410163D01*
X98135869Y-50410163D02*
X98159678Y-50410163D01*
X98159678Y-50410163D02*
X98207297Y-50386354D01*
X98207297Y-50386354D02*
X98231107Y-50338735D01*
X98231107Y-50338735D02*
X98231107Y-50267306D01*
X98231107Y-50267306D02*
X98254916Y-50219687D01*
X98254916Y-50219687D02*
X98302535Y-50195878D01*
X98302535Y-50195878D02*
X98326345Y-50195878D01*
X98326345Y-50195878D02*
X98373964Y-50219687D01*
X98373964Y-50219687D02*
X98397773Y-50267306D01*
X98397773Y-50267306D02*
X98397773Y-50338735D01*
X98397773Y-50338735D02*
X98373964Y-50386354D01*
X98088250Y-50600640D02*
X98064440Y-50648259D01*
X98064440Y-50648259D02*
X98064440Y-50743497D01*
X98064440Y-50743497D02*
X98088250Y-50791116D01*
X98088250Y-50791116D02*
X98135869Y-50814925D01*
X98135869Y-50814925D02*
X98159678Y-50814925D01*
X98159678Y-50814925D02*
X98207297Y-50791116D01*
X98207297Y-50791116D02*
X98231107Y-50743497D01*
X98231107Y-50743497D02*
X98231107Y-50672068D01*
X98231107Y-50672068D02*
X98254916Y-50624449D01*
X98254916Y-50624449D02*
X98302535Y-50600640D01*
X98302535Y-50600640D02*
X98326345Y-50600640D01*
X98326345Y-50600640D02*
X98373964Y-50624449D01*
X98373964Y-50624449D02*
X98397773Y-50672068D01*
X98397773Y-50672068D02*
X98397773Y-50743497D01*
X98397773Y-50743497D02*
X98373964Y-50791116D01*
D11*
X124913095Y-64291819D02*
X124913095Y-65101342D01*
X124913095Y-65101342D02*
X124960714Y-65196580D01*
X124960714Y-65196580D02*
X125008333Y-65244200D01*
X125008333Y-65244200D02*
X125103571Y-65291819D01*
X125103571Y-65291819D02*
X125294047Y-65291819D01*
X125294047Y-65291819D02*
X125389285Y-65244200D01*
X125389285Y-65244200D02*
X125436904Y-65196580D01*
X125436904Y-65196580D02*
X125484523Y-65101342D01*
X125484523Y-65101342D02*
X125484523Y-64291819D01*
X126389285Y-64625152D02*
X126389285Y-65291819D01*
X126151190Y-64244200D02*
X125913095Y-64958485D01*
X125913095Y-64958485D02*
X126532142Y-64958485D01*
X123615000Y-63316819D02*
X123615000Y-63554914D01*
X123376905Y-63459676D02*
X123615000Y-63554914D01*
X123615000Y-63554914D02*
X123853095Y-63459676D01*
X123472143Y-63745390D02*
X123615000Y-63554914D01*
X123615000Y-63554914D02*
X123757857Y-63745390D01*
X123615000Y-63316819D02*
X123615000Y-63554914D01*
X123376905Y-63459676D02*
X123615000Y-63554914D01*
X123615000Y-63554914D02*
X123853095Y-63459676D01*
X123472143Y-63745390D02*
X123615000Y-63554914D01*
X123615000Y-63554914D02*
X123757857Y-63745390D01*
X99238095Y-70954819D02*
X99238095Y-71764342D01*
X99238095Y-71764342D02*
X99285714Y-71859580D01*
X99285714Y-71859580D02*
X99333333Y-71907200D01*
X99333333Y-71907200D02*
X99428571Y-71954819D01*
X99428571Y-71954819D02*
X99619047Y-71954819D01*
X99619047Y-71954819D02*
X99714285Y-71907200D01*
X99714285Y-71907200D02*
X99761904Y-71859580D01*
X99761904Y-71859580D02*
X99809523Y-71764342D01*
X99809523Y-71764342D02*
X99809523Y-70954819D01*
X100238095Y-71050057D02*
X100285714Y-71002438D01*
X100285714Y-71002438D02*
X100380952Y-70954819D01*
X100380952Y-70954819D02*
X100619047Y-70954819D01*
X100619047Y-70954819D02*
X100714285Y-71002438D01*
X100714285Y-71002438D02*
X100761904Y-71050057D01*
X100761904Y-71050057D02*
X100809523Y-71145295D01*
X100809523Y-71145295D02*
X100809523Y-71240533D01*
X100809523Y-71240533D02*
X100761904Y-71383390D01*
X100761904Y-71383390D02*
X100190476Y-71954819D01*
X100190476Y-71954819D02*
X100809523Y-71954819D01*
X96558300Y-69454819D02*
X96558300Y-69692914D01*
X96320205Y-69597676D02*
X96558300Y-69692914D01*
X96558300Y-69692914D02*
X96796395Y-69597676D01*
X96415443Y-69883390D02*
X96558300Y-69692914D01*
X96558300Y-69692914D02*
X96701157Y-69883390D01*
X96558300Y-69454819D02*
X96558300Y-69692914D01*
X96320205Y-69597676D02*
X96558300Y-69692914D01*
X96558300Y-69692914D02*
X96796395Y-69597676D01*
X96415443Y-69883390D02*
X96558300Y-69692914D01*
X96558300Y-69692914D02*
X96701157Y-69883390D01*
X98238095Y-59454819D02*
X98238095Y-60264342D01*
X98238095Y-60264342D02*
X98285714Y-60359580D01*
X98285714Y-60359580D02*
X98333333Y-60407200D01*
X98333333Y-60407200D02*
X98428571Y-60454819D01*
X98428571Y-60454819D02*
X98619047Y-60454819D01*
X98619047Y-60454819D02*
X98714285Y-60407200D01*
X98714285Y-60407200D02*
X98761904Y-60359580D01*
X98761904Y-60359580D02*
X98809523Y-60264342D01*
X98809523Y-60264342D02*
X98809523Y-59454819D01*
X99190476Y-59454819D02*
X99809523Y-59454819D01*
X99809523Y-59454819D02*
X99476190Y-59835771D01*
X99476190Y-59835771D02*
X99619047Y-59835771D01*
X99619047Y-59835771D02*
X99714285Y-59883390D01*
X99714285Y-59883390D02*
X99761904Y-59931009D01*
X99761904Y-59931009D02*
X99809523Y-60026247D01*
X99809523Y-60026247D02*
X99809523Y-60264342D01*
X99809523Y-60264342D02*
X99761904Y-60359580D01*
X99761904Y-60359580D02*
X99714285Y-60407200D01*
X99714285Y-60407200D02*
X99619047Y-60454819D01*
X99619047Y-60454819D02*
X99333333Y-60454819D01*
X99333333Y-60454819D02*
X99238095Y-60407200D01*
X99238095Y-60407200D02*
X99190476Y-60359580D01*
X119816667Y-48522200D02*
X119959524Y-48569819D01*
X119959524Y-48569819D02*
X120197619Y-48569819D01*
X120197619Y-48569819D02*
X120292857Y-48522200D01*
X120292857Y-48522200D02*
X120340476Y-48474580D01*
X120340476Y-48474580D02*
X120388095Y-48379342D01*
X120388095Y-48379342D02*
X120388095Y-48284104D01*
X120388095Y-48284104D02*
X120340476Y-48188866D01*
X120340476Y-48188866D02*
X120292857Y-48141247D01*
X120292857Y-48141247D02*
X120197619Y-48093628D01*
X120197619Y-48093628D02*
X120007143Y-48046009D01*
X120007143Y-48046009D02*
X119911905Y-47998390D01*
X119911905Y-47998390D02*
X119864286Y-47950771D01*
X119864286Y-47950771D02*
X119816667Y-47855533D01*
X119816667Y-47855533D02*
X119816667Y-47760295D01*
X119816667Y-47760295D02*
X119864286Y-47665057D01*
X119864286Y-47665057D02*
X119911905Y-47617438D01*
X119911905Y-47617438D02*
X120007143Y-47569819D01*
X120007143Y-47569819D02*
X120245238Y-47569819D01*
X120245238Y-47569819D02*
X120388095Y-47617438D01*
X120721429Y-47569819D02*
X120959524Y-48569819D01*
X120959524Y-48569819D02*
X121150000Y-47855533D01*
X121150000Y-47855533D02*
X121340476Y-48569819D01*
X121340476Y-48569819D02*
X121578572Y-47569819D01*
X121911905Y-47665057D02*
X121959524Y-47617438D01*
X121959524Y-47617438D02*
X122054762Y-47569819D01*
X122054762Y-47569819D02*
X122292857Y-47569819D01*
X122292857Y-47569819D02*
X122388095Y-47617438D01*
X122388095Y-47617438D02*
X122435714Y-47665057D01*
X122435714Y-47665057D02*
X122483333Y-47760295D01*
X122483333Y-47760295D02*
X122483333Y-47855533D01*
X122483333Y-47855533D02*
X122435714Y-47998390D01*
X122435714Y-47998390D02*
X121864286Y-48569819D01*
X121864286Y-48569819D02*
X122483333Y-48569819D01*
X119741667Y-41272200D02*
X119884524Y-41319819D01*
X119884524Y-41319819D02*
X120122619Y-41319819D01*
X120122619Y-41319819D02*
X120217857Y-41272200D01*
X120217857Y-41272200D02*
X120265476Y-41224580D01*
X120265476Y-41224580D02*
X120313095Y-41129342D01*
X120313095Y-41129342D02*
X120313095Y-41034104D01*
X120313095Y-41034104D02*
X120265476Y-40938866D01*
X120265476Y-40938866D02*
X120217857Y-40891247D01*
X120217857Y-40891247D02*
X120122619Y-40843628D01*
X120122619Y-40843628D02*
X119932143Y-40796009D01*
X119932143Y-40796009D02*
X119836905Y-40748390D01*
X119836905Y-40748390D02*
X119789286Y-40700771D01*
X119789286Y-40700771D02*
X119741667Y-40605533D01*
X119741667Y-40605533D02*
X119741667Y-40510295D01*
X119741667Y-40510295D02*
X119789286Y-40415057D01*
X119789286Y-40415057D02*
X119836905Y-40367438D01*
X119836905Y-40367438D02*
X119932143Y-40319819D01*
X119932143Y-40319819D02*
X120170238Y-40319819D01*
X120170238Y-40319819D02*
X120313095Y-40367438D01*
X120646429Y-40319819D02*
X120884524Y-41319819D01*
X120884524Y-41319819D02*
X121075000Y-40605533D01*
X121075000Y-40605533D02*
X121265476Y-41319819D01*
X121265476Y-41319819D02*
X121503572Y-40319819D01*
X122408333Y-41319819D02*
X121836905Y-41319819D01*
X122122619Y-41319819D02*
X122122619Y-40319819D01*
X122122619Y-40319819D02*
X122027381Y-40462676D01*
X122027381Y-40462676D02*
X121932143Y-40557914D01*
X121932143Y-40557914D02*
X121836905Y-40605533D01*
X120607142Y-77704819D02*
X120273809Y-77228628D01*
X120035714Y-77704819D02*
X120035714Y-76704819D01*
X120035714Y-76704819D02*
X120416666Y-76704819D01*
X120416666Y-76704819D02*
X120511904Y-76752438D01*
X120511904Y-76752438D02*
X120559523Y-76800057D01*
X120559523Y-76800057D02*
X120607142Y-76895295D01*
X120607142Y-76895295D02*
X120607142Y-77038152D01*
X120607142Y-77038152D02*
X120559523Y-77133390D01*
X120559523Y-77133390D02*
X120511904Y-77181009D01*
X120511904Y-77181009D02*
X120416666Y-77228628D01*
X120416666Y-77228628D02*
X120035714Y-77228628D01*
X121559523Y-77704819D02*
X120988095Y-77704819D01*
X121273809Y-77704819D02*
X121273809Y-76704819D01*
X121273809Y-76704819D02*
X121178571Y-76847676D01*
X121178571Y-76847676D02*
X121083333Y-76942914D01*
X121083333Y-76942914D02*
X120988095Y-76990533D01*
X122464285Y-76704819D02*
X121988095Y-76704819D01*
X121988095Y-76704819D02*
X121940476Y-77181009D01*
X121940476Y-77181009D02*
X121988095Y-77133390D01*
X121988095Y-77133390D02*
X122083333Y-77085771D01*
X122083333Y-77085771D02*
X122321428Y-77085771D01*
X122321428Y-77085771D02*
X122416666Y-77133390D01*
X122416666Y-77133390D02*
X122464285Y-77181009D01*
X122464285Y-77181009D02*
X122511904Y-77276247D01*
X122511904Y-77276247D02*
X122511904Y-77514342D01*
X122511904Y-77514342D02*
X122464285Y-77609580D01*
X122464285Y-77609580D02*
X122416666Y-77657200D01*
X122416666Y-77657200D02*
X122321428Y-77704819D01*
X122321428Y-77704819D02*
X122083333Y-77704819D01*
X122083333Y-77704819D02*
X121988095Y-77657200D01*
X121988095Y-77657200D02*
X121940476Y-77609580D01*
X122167142Y-60524819D02*
X121833809Y-60048628D01*
X121595714Y-60524819D02*
X121595714Y-59524819D01*
X121595714Y-59524819D02*
X121976666Y-59524819D01*
X121976666Y-59524819D02*
X122071904Y-59572438D01*
X122071904Y-59572438D02*
X122119523Y-59620057D01*
X122119523Y-59620057D02*
X122167142Y-59715295D01*
X122167142Y-59715295D02*
X122167142Y-59858152D01*
X122167142Y-59858152D02*
X122119523Y-59953390D01*
X122119523Y-59953390D02*
X122071904Y-60001009D01*
X122071904Y-60001009D02*
X121976666Y-60048628D01*
X121976666Y-60048628D02*
X121595714Y-60048628D01*
X123119523Y-60524819D02*
X122548095Y-60524819D01*
X122833809Y-60524819D02*
X122833809Y-59524819D01*
X122833809Y-59524819D02*
X122738571Y-59667676D01*
X122738571Y-59667676D02*
X122643333Y-59762914D01*
X122643333Y-59762914D02*
X122548095Y-59810533D01*
X123976666Y-59858152D02*
X123976666Y-60524819D01*
X123738571Y-59477200D02*
X123500476Y-60191485D01*
X123500476Y-60191485D02*
X124119523Y-60191485D01*
X122167142Y-55524819D02*
X121833809Y-55048628D01*
X121595714Y-55524819D02*
X121595714Y-54524819D01*
X121595714Y-54524819D02*
X121976666Y-54524819D01*
X121976666Y-54524819D02*
X122071904Y-54572438D01*
X122071904Y-54572438D02*
X122119523Y-54620057D01*
X122119523Y-54620057D02*
X122167142Y-54715295D01*
X122167142Y-54715295D02*
X122167142Y-54858152D01*
X122167142Y-54858152D02*
X122119523Y-54953390D01*
X122119523Y-54953390D02*
X122071904Y-55001009D01*
X122071904Y-55001009D02*
X121976666Y-55048628D01*
X121976666Y-55048628D02*
X121595714Y-55048628D01*
X123119523Y-55524819D02*
X122548095Y-55524819D01*
X122833809Y-55524819D02*
X122833809Y-54524819D01*
X122833809Y-54524819D02*
X122738571Y-54667676D01*
X122738571Y-54667676D02*
X122643333Y-54762914D01*
X122643333Y-54762914D02*
X122548095Y-54810533D01*
X123452857Y-54524819D02*
X124071904Y-54524819D01*
X124071904Y-54524819D02*
X123738571Y-54905771D01*
X123738571Y-54905771D02*
X123881428Y-54905771D01*
X123881428Y-54905771D02*
X123976666Y-54953390D01*
X123976666Y-54953390D02*
X124024285Y-55001009D01*
X124024285Y-55001009D02*
X124071904Y-55096247D01*
X124071904Y-55096247D02*
X124071904Y-55334342D01*
X124071904Y-55334342D02*
X124024285Y-55429580D01*
X124024285Y-55429580D02*
X123976666Y-55477200D01*
X123976666Y-55477200D02*
X123881428Y-55524819D01*
X123881428Y-55524819D02*
X123595714Y-55524819D01*
X123595714Y-55524819D02*
X123500476Y-55477200D01*
X123500476Y-55477200D02*
X123452857Y-55429580D01*
D12*
X93428571Y-69974809D02*
X93261905Y-69736714D01*
X93142857Y-69974809D02*
X93142857Y-69474809D01*
X93142857Y-69474809D02*
X93333333Y-69474809D01*
X93333333Y-69474809D02*
X93380952Y-69498619D01*
X93380952Y-69498619D02*
X93404762Y-69522428D01*
X93404762Y-69522428D02*
X93428571Y-69570047D01*
X93428571Y-69570047D02*
X93428571Y-69641476D01*
X93428571Y-69641476D02*
X93404762Y-69689095D01*
X93404762Y-69689095D02*
X93380952Y-69712904D01*
X93380952Y-69712904D02*
X93333333Y-69736714D01*
X93333333Y-69736714D02*
X93142857Y-69736714D01*
X93904762Y-69974809D02*
X93619048Y-69974809D01*
X93761905Y-69974809D02*
X93761905Y-69474809D01*
X93761905Y-69474809D02*
X93714286Y-69546238D01*
X93714286Y-69546238D02*
X93666667Y-69593857D01*
X93666667Y-69593857D02*
X93619048Y-69617666D01*
X94095238Y-69522428D02*
X94119047Y-69498619D01*
X94119047Y-69498619D02*
X94166666Y-69474809D01*
X94166666Y-69474809D02*
X94285714Y-69474809D01*
X94285714Y-69474809D02*
X94333333Y-69498619D01*
X94333333Y-69498619D02*
X94357142Y-69522428D01*
X94357142Y-69522428D02*
X94380952Y-69570047D01*
X94380952Y-69570047D02*
X94380952Y-69617666D01*
X94380952Y-69617666D02*
X94357142Y-69689095D01*
X94357142Y-69689095D02*
X94071428Y-69974809D01*
X94071428Y-69974809D02*
X94380952Y-69974809D01*
D11*
X131384819Y-59642857D02*
X130908628Y-59976190D01*
X131384819Y-60214285D02*
X130384819Y-60214285D01*
X130384819Y-60214285D02*
X130384819Y-59833333D01*
X130384819Y-59833333D02*
X130432438Y-59738095D01*
X130432438Y-59738095D02*
X130480057Y-59690476D01*
X130480057Y-59690476D02*
X130575295Y-59642857D01*
X130575295Y-59642857D02*
X130718152Y-59642857D01*
X130718152Y-59642857D02*
X130813390Y-59690476D01*
X130813390Y-59690476D02*
X130861009Y-59738095D01*
X130861009Y-59738095D02*
X130908628Y-59833333D01*
X130908628Y-59833333D02*
X130908628Y-60214285D01*
X131384819Y-58690476D02*
X131384819Y-59261904D01*
X131384819Y-58976190D02*
X130384819Y-58976190D01*
X130384819Y-58976190D02*
X130527676Y-59071428D01*
X130527676Y-59071428D02*
X130622914Y-59166666D01*
X130622914Y-59166666D02*
X130670533Y-59261904D01*
X131384819Y-57738095D02*
X131384819Y-58309523D01*
X131384819Y-58023809D02*
X130384819Y-58023809D01*
X130384819Y-58023809D02*
X130527676Y-58119047D01*
X130527676Y-58119047D02*
X130622914Y-58214285D01*
X130622914Y-58214285D02*
X130670533Y-58309523D01*
X128134819Y-59642857D02*
X127658628Y-59976190D01*
X128134819Y-60214285D02*
X127134819Y-60214285D01*
X127134819Y-60214285D02*
X127134819Y-59833333D01*
X127134819Y-59833333D02*
X127182438Y-59738095D01*
X127182438Y-59738095D02*
X127230057Y-59690476D01*
X127230057Y-59690476D02*
X127325295Y-59642857D01*
X127325295Y-59642857D02*
X127468152Y-59642857D01*
X127468152Y-59642857D02*
X127563390Y-59690476D01*
X127563390Y-59690476D02*
X127611009Y-59738095D01*
X127611009Y-59738095D02*
X127658628Y-59833333D01*
X127658628Y-59833333D02*
X127658628Y-60214285D01*
X128134819Y-58690476D02*
X128134819Y-59261904D01*
X128134819Y-58976190D02*
X127134819Y-58976190D01*
X127134819Y-58976190D02*
X127277676Y-59071428D01*
X127277676Y-59071428D02*
X127372914Y-59166666D01*
X127372914Y-59166666D02*
X127420533Y-59261904D01*
X127134819Y-58071428D02*
X127134819Y-57976190D01*
X127134819Y-57976190D02*
X127182438Y-57880952D01*
X127182438Y-57880952D02*
X127230057Y-57833333D01*
X127230057Y-57833333D02*
X127325295Y-57785714D01*
X127325295Y-57785714D02*
X127515771Y-57738095D01*
X127515771Y-57738095D02*
X127753866Y-57738095D01*
X127753866Y-57738095D02*
X127944342Y-57785714D01*
X127944342Y-57785714D02*
X128039580Y-57833333D01*
X128039580Y-57833333D02*
X128087200Y-57880952D01*
X128087200Y-57880952D02*
X128134819Y-57976190D01*
X128134819Y-57976190D02*
X128134819Y-58071428D01*
X128134819Y-58071428D02*
X128087200Y-58166666D01*
X128087200Y-58166666D02*
X128039580Y-58214285D01*
X128039580Y-58214285D02*
X127944342Y-58261904D01*
X127944342Y-58261904D02*
X127753866Y-58309523D01*
X127753866Y-58309523D02*
X127515771Y-58309523D01*
X127515771Y-58309523D02*
X127325295Y-58261904D01*
X127325295Y-58261904D02*
X127230057Y-58214285D01*
X127230057Y-58214285D02*
X127182438Y-58166666D01*
X127182438Y-58166666D02*
X127134819Y-58071428D01*
X100424819Y-64916666D02*
X99948628Y-65249999D01*
X100424819Y-65488094D02*
X99424819Y-65488094D01*
X99424819Y-65488094D02*
X99424819Y-65107142D01*
X99424819Y-65107142D02*
X99472438Y-65011904D01*
X99472438Y-65011904D02*
X99520057Y-64964285D01*
X99520057Y-64964285D02*
X99615295Y-64916666D01*
X99615295Y-64916666D02*
X99758152Y-64916666D01*
X99758152Y-64916666D02*
X99853390Y-64964285D01*
X99853390Y-64964285D02*
X99901009Y-65011904D01*
X99901009Y-65011904D02*
X99948628Y-65107142D01*
X99948628Y-65107142D02*
X99948628Y-65488094D01*
X100424819Y-64440475D02*
X100424819Y-64249999D01*
X100424819Y-64249999D02*
X100377200Y-64154761D01*
X100377200Y-64154761D02*
X100329580Y-64107142D01*
X100329580Y-64107142D02*
X100186723Y-64011904D01*
X100186723Y-64011904D02*
X99996247Y-63964285D01*
X99996247Y-63964285D02*
X99615295Y-63964285D01*
X99615295Y-63964285D02*
X99520057Y-64011904D01*
X99520057Y-64011904D02*
X99472438Y-64059523D01*
X99472438Y-64059523D02*
X99424819Y-64154761D01*
X99424819Y-64154761D02*
X99424819Y-64345237D01*
X99424819Y-64345237D02*
X99472438Y-64440475D01*
X99472438Y-64440475D02*
X99520057Y-64488094D01*
X99520057Y-64488094D02*
X99615295Y-64535713D01*
X99615295Y-64535713D02*
X99853390Y-64535713D01*
X99853390Y-64535713D02*
X99948628Y-64488094D01*
X99948628Y-64488094D02*
X99996247Y-64440475D01*
X99996247Y-64440475D02*
X100043866Y-64345237D01*
X100043866Y-64345237D02*
X100043866Y-64154761D01*
X100043866Y-64154761D02*
X99996247Y-64059523D01*
X99996247Y-64059523D02*
X99948628Y-64011904D01*
X99948628Y-64011904D02*
X99853390Y-63964285D01*
X97384819Y-64879166D02*
X96908628Y-65212499D01*
X97384819Y-65450594D02*
X96384819Y-65450594D01*
X96384819Y-65450594D02*
X96384819Y-65069642D01*
X96384819Y-65069642D02*
X96432438Y-64974404D01*
X96432438Y-64974404D02*
X96480057Y-64926785D01*
X96480057Y-64926785D02*
X96575295Y-64879166D01*
X96575295Y-64879166D02*
X96718152Y-64879166D01*
X96718152Y-64879166D02*
X96813390Y-64926785D01*
X96813390Y-64926785D02*
X96861009Y-64974404D01*
X96861009Y-64974404D02*
X96908628Y-65069642D01*
X96908628Y-65069642D02*
X96908628Y-65450594D01*
X96813390Y-64307737D02*
X96765771Y-64402975D01*
X96765771Y-64402975D02*
X96718152Y-64450594D01*
X96718152Y-64450594D02*
X96622914Y-64498213D01*
X96622914Y-64498213D02*
X96575295Y-64498213D01*
X96575295Y-64498213D02*
X96480057Y-64450594D01*
X96480057Y-64450594D02*
X96432438Y-64402975D01*
X96432438Y-64402975D02*
X96384819Y-64307737D01*
X96384819Y-64307737D02*
X96384819Y-64117261D01*
X96384819Y-64117261D02*
X96432438Y-64022023D01*
X96432438Y-64022023D02*
X96480057Y-63974404D01*
X96480057Y-63974404D02*
X96575295Y-63926785D01*
X96575295Y-63926785D02*
X96622914Y-63926785D01*
X96622914Y-63926785D02*
X96718152Y-63974404D01*
X96718152Y-63974404D02*
X96765771Y-64022023D01*
X96765771Y-64022023D02*
X96813390Y-64117261D01*
X96813390Y-64117261D02*
X96813390Y-64307737D01*
X96813390Y-64307737D02*
X96861009Y-64402975D01*
X96861009Y-64402975D02*
X96908628Y-64450594D01*
X96908628Y-64450594D02*
X97003866Y-64498213D01*
X97003866Y-64498213D02*
X97194342Y-64498213D01*
X97194342Y-64498213D02*
X97289580Y-64450594D01*
X97289580Y-64450594D02*
X97337200Y-64402975D01*
X97337200Y-64402975D02*
X97384819Y-64307737D01*
X97384819Y-64307737D02*
X97384819Y-64117261D01*
X97384819Y-64117261D02*
X97337200Y-64022023D01*
X97337200Y-64022023D02*
X97289580Y-63974404D01*
X97289580Y-63974404D02*
X97194342Y-63926785D01*
X97194342Y-63926785D02*
X97003866Y-63926785D01*
X97003866Y-63926785D02*
X96908628Y-63974404D01*
X96908628Y-63974404D02*
X96861009Y-64022023D01*
X96861009Y-64022023D02*
X96813390Y-64117261D01*
X130922319Y-66478665D02*
X130446128Y-66811998D01*
X130922319Y-67050093D02*
X129922319Y-67050093D01*
X129922319Y-67050093D02*
X129922319Y-66669141D01*
X129922319Y-66669141D02*
X129969938Y-66573903D01*
X129969938Y-66573903D02*
X130017557Y-66526284D01*
X130017557Y-66526284D02*
X130112795Y-66478665D01*
X130112795Y-66478665D02*
X130255652Y-66478665D01*
X130255652Y-66478665D02*
X130350890Y-66526284D01*
X130350890Y-66526284D02*
X130398509Y-66573903D01*
X130398509Y-66573903D02*
X130446128Y-66669141D01*
X130446128Y-66669141D02*
X130446128Y-67050093D01*
X129922319Y-66145331D02*
X129922319Y-65478665D01*
X129922319Y-65478665D02*
X130922319Y-65907236D01*
X130922319Y-63228665D02*
X130446128Y-63561998D01*
X130922319Y-63800093D02*
X129922319Y-63800093D01*
X129922319Y-63800093D02*
X129922319Y-63419141D01*
X129922319Y-63419141D02*
X129969938Y-63323903D01*
X129969938Y-63323903D02*
X130017557Y-63276284D01*
X130017557Y-63276284D02*
X130112795Y-63228665D01*
X130112795Y-63228665D02*
X130255652Y-63228665D01*
X130255652Y-63228665D02*
X130350890Y-63276284D01*
X130350890Y-63276284D02*
X130398509Y-63323903D01*
X130398509Y-63323903D02*
X130446128Y-63419141D01*
X130446128Y-63419141D02*
X130446128Y-63800093D01*
X129922319Y-62371522D02*
X129922319Y-62561998D01*
X129922319Y-62561998D02*
X129969938Y-62657236D01*
X129969938Y-62657236D02*
X130017557Y-62704855D01*
X130017557Y-62704855D02*
X130160414Y-62800093D01*
X130160414Y-62800093D02*
X130350890Y-62847712D01*
X130350890Y-62847712D02*
X130731842Y-62847712D01*
X130731842Y-62847712D02*
X130827080Y-62800093D01*
X130827080Y-62800093D02*
X130874700Y-62752474D01*
X130874700Y-62752474D02*
X130922319Y-62657236D01*
X130922319Y-62657236D02*
X130922319Y-62466760D01*
X130922319Y-62466760D02*
X130874700Y-62371522D01*
X130874700Y-62371522D02*
X130827080Y-62323903D01*
X130827080Y-62323903D02*
X130731842Y-62276284D01*
X130731842Y-62276284D02*
X130493747Y-62276284D01*
X130493747Y-62276284D02*
X130398509Y-62323903D01*
X130398509Y-62323903D02*
X130350890Y-62371522D01*
X130350890Y-62371522D02*
X130303271Y-62466760D01*
X130303271Y-62466760D02*
X130303271Y-62657236D01*
X130303271Y-62657236D02*
X130350890Y-62752474D01*
X130350890Y-62752474D02*
X130398509Y-62800093D01*
X130398509Y-62800093D02*
X130493747Y-62847712D01*
X121274819Y-65416666D02*
X120798628Y-65749999D01*
X121274819Y-65988094D02*
X120274819Y-65988094D01*
X120274819Y-65988094D02*
X120274819Y-65607142D01*
X120274819Y-65607142D02*
X120322438Y-65511904D01*
X120322438Y-65511904D02*
X120370057Y-65464285D01*
X120370057Y-65464285D02*
X120465295Y-65416666D01*
X120465295Y-65416666D02*
X120608152Y-65416666D01*
X120608152Y-65416666D02*
X120703390Y-65464285D01*
X120703390Y-65464285D02*
X120751009Y-65511904D01*
X120751009Y-65511904D02*
X120798628Y-65607142D01*
X120798628Y-65607142D02*
X120798628Y-65988094D01*
X120274819Y-64511904D02*
X120274819Y-64988094D01*
X120274819Y-64988094D02*
X120751009Y-65035713D01*
X120751009Y-65035713D02*
X120703390Y-64988094D01*
X120703390Y-64988094D02*
X120655771Y-64892856D01*
X120655771Y-64892856D02*
X120655771Y-64654761D01*
X120655771Y-64654761D02*
X120703390Y-64559523D01*
X120703390Y-64559523D02*
X120751009Y-64511904D01*
X120751009Y-64511904D02*
X120846247Y-64464285D01*
X120846247Y-64464285D02*
X121084342Y-64464285D01*
X121084342Y-64464285D02*
X121179580Y-64511904D01*
X121179580Y-64511904D02*
X121227200Y-64559523D01*
X121227200Y-64559523D02*
X121274819Y-64654761D01*
X121274819Y-64654761D02*
X121274819Y-64892856D01*
X121274819Y-64892856D02*
X121227200Y-64988094D01*
X121227200Y-64988094D02*
X121179580Y-65035713D01*
X107454819Y-65666666D02*
X106978628Y-65999999D01*
X107454819Y-66238094D02*
X106454819Y-66238094D01*
X106454819Y-66238094D02*
X106454819Y-65857142D01*
X106454819Y-65857142D02*
X106502438Y-65761904D01*
X106502438Y-65761904D02*
X106550057Y-65714285D01*
X106550057Y-65714285D02*
X106645295Y-65666666D01*
X106645295Y-65666666D02*
X106788152Y-65666666D01*
X106788152Y-65666666D02*
X106883390Y-65714285D01*
X106883390Y-65714285D02*
X106931009Y-65761904D01*
X106931009Y-65761904D02*
X106978628Y-65857142D01*
X106978628Y-65857142D02*
X106978628Y-66238094D01*
X106788152Y-64809523D02*
X107454819Y-64809523D01*
X106407200Y-65047618D02*
X107121485Y-65285713D01*
X107121485Y-65285713D02*
X107121485Y-64666666D01*
X100833333Y-76834819D02*
X100500000Y-76358628D01*
X100261905Y-76834819D02*
X100261905Y-75834819D01*
X100261905Y-75834819D02*
X100642857Y-75834819D01*
X100642857Y-75834819D02*
X100738095Y-75882438D01*
X100738095Y-75882438D02*
X100785714Y-75930057D01*
X100785714Y-75930057D02*
X100833333Y-76025295D01*
X100833333Y-76025295D02*
X100833333Y-76168152D01*
X100833333Y-76168152D02*
X100785714Y-76263390D01*
X100785714Y-76263390D02*
X100738095Y-76311009D01*
X100738095Y-76311009D02*
X100642857Y-76358628D01*
X100642857Y-76358628D02*
X100261905Y-76358628D01*
X101166667Y-75834819D02*
X101785714Y-75834819D01*
X101785714Y-75834819D02*
X101452381Y-76215771D01*
X101452381Y-76215771D02*
X101595238Y-76215771D01*
X101595238Y-76215771D02*
X101690476Y-76263390D01*
X101690476Y-76263390D02*
X101738095Y-76311009D01*
X101738095Y-76311009D02*
X101785714Y-76406247D01*
X101785714Y-76406247D02*
X101785714Y-76644342D01*
X101785714Y-76644342D02*
X101738095Y-76739580D01*
X101738095Y-76739580D02*
X101690476Y-76787200D01*
X101690476Y-76787200D02*
X101595238Y-76834819D01*
X101595238Y-76834819D02*
X101309524Y-76834819D01*
X101309524Y-76834819D02*
X101214286Y-76787200D01*
X101214286Y-76787200D02*
X101166667Y-76739580D01*
X115884819Y-71756666D02*
X115408628Y-72089999D01*
X115884819Y-72328094D02*
X114884819Y-72328094D01*
X114884819Y-72328094D02*
X114884819Y-71947142D01*
X114884819Y-71947142D02*
X114932438Y-71851904D01*
X114932438Y-71851904D02*
X114980057Y-71804285D01*
X114980057Y-71804285D02*
X115075295Y-71756666D01*
X115075295Y-71756666D02*
X115218152Y-71756666D01*
X115218152Y-71756666D02*
X115313390Y-71804285D01*
X115313390Y-71804285D02*
X115361009Y-71851904D01*
X115361009Y-71851904D02*
X115408628Y-71947142D01*
X115408628Y-71947142D02*
X115408628Y-72328094D01*
X114980057Y-71375713D02*
X114932438Y-71328094D01*
X114932438Y-71328094D02*
X114884819Y-71232856D01*
X114884819Y-71232856D02*
X114884819Y-70994761D01*
X114884819Y-70994761D02*
X114932438Y-70899523D01*
X114932438Y-70899523D02*
X114980057Y-70851904D01*
X114980057Y-70851904D02*
X115075295Y-70804285D01*
X115075295Y-70804285D02*
X115170533Y-70804285D01*
X115170533Y-70804285D02*
X115313390Y-70851904D01*
X115313390Y-70851904D02*
X115884819Y-71423332D01*
X115884819Y-71423332D02*
X115884819Y-70804285D01*
X108384819Y-71756666D02*
X107908628Y-72089999D01*
X108384819Y-72328094D02*
X107384819Y-72328094D01*
X107384819Y-72328094D02*
X107384819Y-71947142D01*
X107384819Y-71947142D02*
X107432438Y-71851904D01*
X107432438Y-71851904D02*
X107480057Y-71804285D01*
X107480057Y-71804285D02*
X107575295Y-71756666D01*
X107575295Y-71756666D02*
X107718152Y-71756666D01*
X107718152Y-71756666D02*
X107813390Y-71804285D01*
X107813390Y-71804285D02*
X107861009Y-71851904D01*
X107861009Y-71851904D02*
X107908628Y-71947142D01*
X107908628Y-71947142D02*
X107908628Y-72328094D01*
X108384819Y-70804285D02*
X108384819Y-71375713D01*
X108384819Y-71089999D02*
X107384819Y-71089999D01*
X107384819Y-71089999D02*
X107527676Y-71185237D01*
X107527676Y-71185237D02*
X107622914Y-71280475D01*
X107622914Y-71280475D02*
X107670533Y-71375713D01*
X116666666Y-74954819D02*
X116666666Y-75669104D01*
X116666666Y-75669104D02*
X116619047Y-75811961D01*
X116619047Y-75811961D02*
X116523809Y-75907200D01*
X116523809Y-75907200D02*
X116380952Y-75954819D01*
X116380952Y-75954819D02*
X116285714Y-75954819D01*
X117666666Y-75954819D02*
X117095238Y-75954819D01*
X117380952Y-75954819D02*
X117380952Y-74954819D01*
X117380952Y-74954819D02*
X117285714Y-75097676D01*
X117285714Y-75097676D02*
X117190476Y-75192914D01*
X117190476Y-75192914D02*
X117095238Y-75240533D01*
X119071905Y-55524819D02*
X119071905Y-54524819D01*
X119071905Y-54524819D02*
X119310000Y-54524819D01*
X119310000Y-54524819D02*
X119452857Y-54572438D01*
X119452857Y-54572438D02*
X119548095Y-54667676D01*
X119548095Y-54667676D02*
X119595714Y-54762914D01*
X119595714Y-54762914D02*
X119643333Y-54953390D01*
X119643333Y-54953390D02*
X119643333Y-55096247D01*
X119643333Y-55096247D02*
X119595714Y-55286723D01*
X119595714Y-55286723D02*
X119548095Y-55381961D01*
X119548095Y-55381961D02*
X119452857Y-55477200D01*
X119452857Y-55477200D02*
X119310000Y-55524819D01*
X119310000Y-55524819D02*
X119071905Y-55524819D01*
X120548095Y-54524819D02*
X120071905Y-54524819D01*
X120071905Y-54524819D02*
X120024286Y-55001009D01*
X120024286Y-55001009D02*
X120071905Y-54953390D01*
X120071905Y-54953390D02*
X120167143Y-54905771D01*
X120167143Y-54905771D02*
X120405238Y-54905771D01*
X120405238Y-54905771D02*
X120500476Y-54953390D01*
X120500476Y-54953390D02*
X120548095Y-55001009D01*
X120548095Y-55001009D02*
X120595714Y-55096247D01*
X120595714Y-55096247D02*
X120595714Y-55334342D01*
X120595714Y-55334342D02*
X120548095Y-55429580D01*
X120548095Y-55429580D02*
X120500476Y-55477200D01*
X120500476Y-55477200D02*
X120405238Y-55524819D01*
X120405238Y-55524819D02*
X120167143Y-55524819D01*
X120167143Y-55524819D02*
X120071905Y-55477200D01*
X120071905Y-55477200D02*
X120024286Y-55429580D01*
X119071905Y-60524819D02*
X119071905Y-59524819D01*
X119071905Y-59524819D02*
X119310000Y-59524819D01*
X119310000Y-59524819D02*
X119452857Y-59572438D01*
X119452857Y-59572438D02*
X119548095Y-59667676D01*
X119548095Y-59667676D02*
X119595714Y-59762914D01*
X119595714Y-59762914D02*
X119643333Y-59953390D01*
X119643333Y-59953390D02*
X119643333Y-60096247D01*
X119643333Y-60096247D02*
X119595714Y-60286723D01*
X119595714Y-60286723D02*
X119548095Y-60381961D01*
X119548095Y-60381961D02*
X119452857Y-60477200D01*
X119452857Y-60477200D02*
X119310000Y-60524819D01*
X119310000Y-60524819D02*
X119071905Y-60524819D01*
X120500476Y-59858152D02*
X120500476Y-60524819D01*
X120262381Y-59477200D02*
X120024286Y-60191485D01*
X120024286Y-60191485D02*
X120643333Y-60191485D01*
X120011905Y-79954819D02*
X120011905Y-78954819D01*
X120011905Y-78954819D02*
X120250000Y-78954819D01*
X120250000Y-78954819D02*
X120392857Y-79002438D01*
X120392857Y-79002438D02*
X120488095Y-79097676D01*
X120488095Y-79097676D02*
X120535714Y-79192914D01*
X120535714Y-79192914D02*
X120583333Y-79383390D01*
X120583333Y-79383390D02*
X120583333Y-79526247D01*
X120583333Y-79526247D02*
X120535714Y-79716723D01*
X120535714Y-79716723D02*
X120488095Y-79811961D01*
X120488095Y-79811961D02*
X120392857Y-79907200D01*
X120392857Y-79907200D02*
X120250000Y-79954819D01*
X120250000Y-79954819D02*
X120011905Y-79954819D01*
X120916667Y-78954819D02*
X121535714Y-78954819D01*
X121535714Y-78954819D02*
X121202381Y-79335771D01*
X121202381Y-79335771D02*
X121345238Y-79335771D01*
X121345238Y-79335771D02*
X121440476Y-79383390D01*
X121440476Y-79383390D02*
X121488095Y-79431009D01*
X121488095Y-79431009D02*
X121535714Y-79526247D01*
X121535714Y-79526247D02*
X121535714Y-79764342D01*
X121535714Y-79764342D02*
X121488095Y-79859580D01*
X121488095Y-79859580D02*
X121440476Y-79907200D01*
X121440476Y-79907200D02*
X121345238Y-79954819D01*
X121345238Y-79954819D02*
X121059524Y-79954819D01*
X121059524Y-79954819D02*
X120964286Y-79907200D01*
X120964286Y-79907200D02*
X120916667Y-79859580D01*
D13*
X108940678Y-71960190D02*
X108620678Y-71960190D01*
X108620678Y-71960190D02*
X108620678Y-71884000D01*
X108620678Y-71884000D02*
X108635916Y-71838285D01*
X108635916Y-71838285D02*
X108666392Y-71807809D01*
X108666392Y-71807809D02*
X108696868Y-71792571D01*
X108696868Y-71792571D02*
X108757820Y-71777333D01*
X108757820Y-71777333D02*
X108803535Y-71777333D01*
X108803535Y-71777333D02*
X108864487Y-71792571D01*
X108864487Y-71792571D02*
X108894963Y-71807809D01*
X108894963Y-71807809D02*
X108925440Y-71838285D01*
X108925440Y-71838285D02*
X108940678Y-71884000D01*
X108940678Y-71884000D02*
X108940678Y-71960190D01*
X108651154Y-71655428D02*
X108635916Y-71640190D01*
X108635916Y-71640190D02*
X108620678Y-71609714D01*
X108620678Y-71609714D02*
X108620678Y-71533523D01*
X108620678Y-71533523D02*
X108635916Y-71503047D01*
X108635916Y-71503047D02*
X108651154Y-71487809D01*
X108651154Y-71487809D02*
X108681630Y-71472571D01*
X108681630Y-71472571D02*
X108712106Y-71472571D01*
X108712106Y-71472571D02*
X108757820Y-71487809D01*
X108757820Y-71487809D02*
X108940678Y-71670666D01*
X108940678Y-71670666D02*
X108940678Y-71472571D01*
X110940678Y-71960190D02*
X110620678Y-71960190D01*
X110620678Y-71960190D02*
X110620678Y-71884000D01*
X110620678Y-71884000D02*
X110635916Y-71838285D01*
X110635916Y-71838285D02*
X110666392Y-71807809D01*
X110666392Y-71807809D02*
X110696868Y-71792571D01*
X110696868Y-71792571D02*
X110757820Y-71777333D01*
X110757820Y-71777333D02*
X110803535Y-71777333D01*
X110803535Y-71777333D02*
X110864487Y-71792571D01*
X110864487Y-71792571D02*
X110894963Y-71807809D01*
X110894963Y-71807809D02*
X110925440Y-71838285D01*
X110925440Y-71838285D02*
X110940678Y-71884000D01*
X110940678Y-71884000D02*
X110940678Y-71960190D01*
X110940678Y-71472571D02*
X110940678Y-71655428D01*
X110940678Y-71564000D02*
X110620678Y-71564000D01*
X110620678Y-71564000D02*
X110666392Y-71594476D01*
X110666392Y-71594476D02*
X110696868Y-71624952D01*
X110696868Y-71624952D02*
X110712106Y-71655428D01*
X127144285Y-48960201D02*
X127129047Y-48975440D01*
X127129047Y-48975440D02*
X127083333Y-48990678D01*
X127083333Y-48990678D02*
X127052857Y-48990678D01*
X127052857Y-48990678D02*
X127007142Y-48975440D01*
X127007142Y-48975440D02*
X126976666Y-48944963D01*
X126976666Y-48944963D02*
X126961428Y-48914487D01*
X126961428Y-48914487D02*
X126946190Y-48853535D01*
X126946190Y-48853535D02*
X126946190Y-48807820D01*
X126946190Y-48807820D02*
X126961428Y-48746868D01*
X126961428Y-48746868D02*
X126976666Y-48716392D01*
X126976666Y-48716392D02*
X127007142Y-48685916D01*
X127007142Y-48685916D02*
X127052857Y-48670678D01*
X127052857Y-48670678D02*
X127083333Y-48670678D01*
X127083333Y-48670678D02*
X127129047Y-48685916D01*
X127129047Y-48685916D02*
X127144285Y-48701154D01*
X127449047Y-48990678D02*
X127266190Y-48990678D01*
X127357618Y-48990678D02*
X127357618Y-48670678D01*
X127357618Y-48670678D02*
X127327142Y-48716392D01*
X127327142Y-48716392D02*
X127296666Y-48746868D01*
X127296666Y-48746868D02*
X127266190Y-48762106D01*
X127723333Y-48777344D02*
X127723333Y-48990678D01*
X127647142Y-48655440D02*
X127570952Y-48884011D01*
X127570952Y-48884011D02*
X127769047Y-48884011D01*
X124710201Y-54605714D02*
X124725440Y-54620952D01*
X124725440Y-54620952D02*
X124740678Y-54666666D01*
X124740678Y-54666666D02*
X124740678Y-54697142D01*
X124740678Y-54697142D02*
X124725440Y-54742857D01*
X124725440Y-54742857D02*
X124694963Y-54773333D01*
X124694963Y-54773333D02*
X124664487Y-54788571D01*
X124664487Y-54788571D02*
X124603535Y-54803809D01*
X124603535Y-54803809D02*
X124557820Y-54803809D01*
X124557820Y-54803809D02*
X124496868Y-54788571D01*
X124496868Y-54788571D02*
X124466392Y-54773333D01*
X124466392Y-54773333D02*
X124435916Y-54742857D01*
X124435916Y-54742857D02*
X124420678Y-54697142D01*
X124420678Y-54697142D02*
X124420678Y-54666666D01*
X124420678Y-54666666D02*
X124435916Y-54620952D01*
X124435916Y-54620952D02*
X124451154Y-54605714D01*
X124740678Y-54300952D02*
X124740678Y-54483809D01*
X124740678Y-54392381D02*
X124420678Y-54392381D01*
X124420678Y-54392381D02*
X124466392Y-54422857D01*
X124466392Y-54422857D02*
X124496868Y-54453333D01*
X124496868Y-54453333D02*
X124512106Y-54483809D01*
X124420678Y-54194285D02*
X124420678Y-53996190D01*
X124420678Y-53996190D02*
X124542582Y-54102857D01*
X124542582Y-54102857D02*
X124542582Y-54057142D01*
X124542582Y-54057142D02*
X124557820Y-54026666D01*
X124557820Y-54026666D02*
X124573059Y-54011428D01*
X124573059Y-54011428D02*
X124603535Y-53996190D01*
X124603535Y-53996190D02*
X124679725Y-53996190D01*
X124679725Y-53996190D02*
X124710201Y-54011428D01*
X124710201Y-54011428D02*
X124725440Y-54026666D01*
X124725440Y-54026666D02*
X124740678Y-54057142D01*
X124740678Y-54057142D02*
X124740678Y-54148571D01*
X124740678Y-54148571D02*
X124725440Y-54179047D01*
X124725440Y-54179047D02*
X124710201Y-54194285D01*
X127594285Y-71266601D02*
X127579047Y-71281840D01*
X127579047Y-71281840D02*
X127533333Y-71297078D01*
X127533333Y-71297078D02*
X127502857Y-71297078D01*
X127502857Y-71297078D02*
X127457142Y-71281840D01*
X127457142Y-71281840D02*
X127426666Y-71251363D01*
X127426666Y-71251363D02*
X127411428Y-71220887D01*
X127411428Y-71220887D02*
X127396190Y-71159935D01*
X127396190Y-71159935D02*
X127396190Y-71114220D01*
X127396190Y-71114220D02*
X127411428Y-71053268D01*
X127411428Y-71053268D02*
X127426666Y-71022792D01*
X127426666Y-71022792D02*
X127457142Y-70992316D01*
X127457142Y-70992316D02*
X127502857Y-70977078D01*
X127502857Y-70977078D02*
X127533333Y-70977078D01*
X127533333Y-70977078D02*
X127579047Y-70992316D01*
X127579047Y-70992316D02*
X127594285Y-71007554D01*
X127899047Y-71297078D02*
X127716190Y-71297078D01*
X127807618Y-71297078D02*
X127807618Y-70977078D01*
X127807618Y-70977078D02*
X127777142Y-71022792D01*
X127777142Y-71022792D02*
X127746666Y-71053268D01*
X127746666Y-71053268D02*
X127716190Y-71068506D01*
X128020952Y-71007554D02*
X128036190Y-70992316D01*
X128036190Y-70992316D02*
X128066666Y-70977078D01*
X128066666Y-70977078D02*
X128142857Y-70977078D01*
X128142857Y-70977078D02*
X128173333Y-70992316D01*
X128173333Y-70992316D02*
X128188571Y-71007554D01*
X128188571Y-71007554D02*
X128203809Y-71038030D01*
X128203809Y-71038030D02*
X128203809Y-71068506D01*
X128203809Y-71068506D02*
X128188571Y-71114220D01*
X128188571Y-71114220D02*
X128005714Y-71297078D01*
X128005714Y-71297078D02*
X128203809Y-71297078D01*
D14*
X126295714Y-67032651D02*
X126284286Y-67044080D01*
X126284286Y-67044080D02*
X126250000Y-67055508D01*
X126250000Y-67055508D02*
X126227143Y-67055508D01*
X126227143Y-67055508D02*
X126192857Y-67044080D01*
X126192857Y-67044080D02*
X126170000Y-67021222D01*
X126170000Y-67021222D02*
X126158571Y-66998365D01*
X126158571Y-66998365D02*
X126147143Y-66952651D01*
X126147143Y-66952651D02*
X126147143Y-66918365D01*
X126147143Y-66918365D02*
X126158571Y-66872651D01*
X126158571Y-66872651D02*
X126170000Y-66849794D01*
X126170000Y-66849794D02*
X126192857Y-66826937D01*
X126192857Y-66826937D02*
X126227143Y-66815508D01*
X126227143Y-66815508D02*
X126250000Y-66815508D01*
X126250000Y-66815508D02*
X126284286Y-66826937D01*
X126284286Y-66826937D02*
X126295714Y-66838365D01*
X126524286Y-67055508D02*
X126387143Y-67055508D01*
X126455714Y-67055508D02*
X126455714Y-66815508D01*
X126455714Y-66815508D02*
X126432857Y-66849794D01*
X126432857Y-66849794D02*
X126410000Y-66872651D01*
X126410000Y-66872651D02*
X126387143Y-66884080D01*
X126752857Y-67055508D02*
X126615714Y-67055508D01*
X126684285Y-67055508D02*
X126684285Y-66815508D01*
X126684285Y-66815508D02*
X126661428Y-66849794D01*
X126661428Y-66849794D02*
X126638571Y-66872651D01*
X126638571Y-66872651D02*
X126615714Y-66884080D01*
X115745714Y-65085051D02*
X115734286Y-65096480D01*
X115734286Y-65096480D02*
X115700000Y-65107908D01*
X115700000Y-65107908D02*
X115677143Y-65107908D01*
X115677143Y-65107908D02*
X115642857Y-65096480D01*
X115642857Y-65096480D02*
X115620000Y-65073622D01*
X115620000Y-65073622D02*
X115608571Y-65050765D01*
X115608571Y-65050765D02*
X115597143Y-65005051D01*
X115597143Y-65005051D02*
X115597143Y-64970765D01*
X115597143Y-64970765D02*
X115608571Y-64925051D01*
X115608571Y-64925051D02*
X115620000Y-64902194D01*
X115620000Y-64902194D02*
X115642857Y-64879337D01*
X115642857Y-64879337D02*
X115677143Y-64867908D01*
X115677143Y-64867908D02*
X115700000Y-64867908D01*
X115700000Y-64867908D02*
X115734286Y-64879337D01*
X115734286Y-64879337D02*
X115745714Y-64890765D01*
X115974286Y-65107908D02*
X115837143Y-65107908D01*
X115905714Y-65107908D02*
X115905714Y-64867908D01*
X115905714Y-64867908D02*
X115882857Y-64902194D01*
X115882857Y-64902194D02*
X115860000Y-64925051D01*
X115860000Y-64925051D02*
X115837143Y-64936480D01*
X116122857Y-64867908D02*
X116145714Y-64867908D01*
X116145714Y-64867908D02*
X116168571Y-64879337D01*
X116168571Y-64879337D02*
X116180000Y-64890765D01*
X116180000Y-64890765D02*
X116191428Y-64913622D01*
X116191428Y-64913622D02*
X116202857Y-64959337D01*
X116202857Y-64959337D02*
X116202857Y-65016480D01*
X116202857Y-65016480D02*
X116191428Y-65062194D01*
X116191428Y-65062194D02*
X116180000Y-65085051D01*
X116180000Y-65085051D02*
X116168571Y-65096480D01*
X116168571Y-65096480D02*
X116145714Y-65107908D01*
X116145714Y-65107908D02*
X116122857Y-65107908D01*
X116122857Y-65107908D02*
X116100000Y-65096480D01*
X116100000Y-65096480D02*
X116088571Y-65085051D01*
X116088571Y-65085051D02*
X116077142Y-65062194D01*
X116077142Y-65062194D02*
X116065714Y-65016480D01*
X116065714Y-65016480D02*
X116065714Y-64959337D01*
X116065714Y-64959337D02*
X116077142Y-64913622D01*
X116077142Y-64913622D02*
X116088571Y-64890765D01*
X116088571Y-64890765D02*
X116100000Y-64879337D01*
X116100000Y-64879337D02*
X116122857Y-64867908D01*
D13*
X116096666Y-62613401D02*
X116081428Y-62628640D01*
X116081428Y-62628640D02*
X116035714Y-62643878D01*
X116035714Y-62643878D02*
X116005238Y-62643878D01*
X116005238Y-62643878D02*
X115959523Y-62628640D01*
X115959523Y-62628640D02*
X115929047Y-62598163D01*
X115929047Y-62598163D02*
X115913809Y-62567687D01*
X115913809Y-62567687D02*
X115898571Y-62506735D01*
X115898571Y-62506735D02*
X115898571Y-62461020D01*
X115898571Y-62461020D02*
X115913809Y-62400068D01*
X115913809Y-62400068D02*
X115929047Y-62369592D01*
X115929047Y-62369592D02*
X115959523Y-62339116D01*
X115959523Y-62339116D02*
X116005238Y-62323878D01*
X116005238Y-62323878D02*
X116035714Y-62323878D01*
X116035714Y-62323878D02*
X116081428Y-62339116D01*
X116081428Y-62339116D02*
X116096666Y-62354354D01*
X116249047Y-62643878D02*
X116309999Y-62643878D01*
X116309999Y-62643878D02*
X116340476Y-62628640D01*
X116340476Y-62628640D02*
X116355714Y-62613401D01*
X116355714Y-62613401D02*
X116386190Y-62567687D01*
X116386190Y-62567687D02*
X116401428Y-62506735D01*
X116401428Y-62506735D02*
X116401428Y-62384830D01*
X116401428Y-62384830D02*
X116386190Y-62354354D01*
X116386190Y-62354354D02*
X116370952Y-62339116D01*
X116370952Y-62339116D02*
X116340476Y-62323878D01*
X116340476Y-62323878D02*
X116279523Y-62323878D01*
X116279523Y-62323878D02*
X116249047Y-62339116D01*
X116249047Y-62339116D02*
X116233809Y-62354354D01*
X116233809Y-62354354D02*
X116218571Y-62384830D01*
X116218571Y-62384830D02*
X116218571Y-62461020D01*
X116218571Y-62461020D02*
X116233809Y-62491497D01*
X116233809Y-62491497D02*
X116249047Y-62506735D01*
X116249047Y-62506735D02*
X116279523Y-62521973D01*
X116279523Y-62521973D02*
X116340476Y-62521973D01*
X116340476Y-62521973D02*
X116370952Y-62506735D01*
X116370952Y-62506735D02*
X116386190Y-62491497D01*
X116386190Y-62491497D02*
X116401428Y-62461020D01*
X127960201Y-54453333D02*
X127975440Y-54468571D01*
X127975440Y-54468571D02*
X127990678Y-54514285D01*
X127990678Y-54514285D02*
X127990678Y-54544761D01*
X127990678Y-54544761D02*
X127975440Y-54590476D01*
X127975440Y-54590476D02*
X127944963Y-54620952D01*
X127944963Y-54620952D02*
X127914487Y-54636190D01*
X127914487Y-54636190D02*
X127853535Y-54651428D01*
X127853535Y-54651428D02*
X127807820Y-54651428D01*
X127807820Y-54651428D02*
X127746868Y-54636190D01*
X127746868Y-54636190D02*
X127716392Y-54620952D01*
X127716392Y-54620952D02*
X127685916Y-54590476D01*
X127685916Y-54590476D02*
X127670678Y-54544761D01*
X127670678Y-54544761D02*
X127670678Y-54514285D01*
X127670678Y-54514285D02*
X127685916Y-54468571D01*
X127685916Y-54468571D02*
X127701154Y-54453333D01*
X127807820Y-54270476D02*
X127792582Y-54300952D01*
X127792582Y-54300952D02*
X127777344Y-54316190D01*
X127777344Y-54316190D02*
X127746868Y-54331428D01*
X127746868Y-54331428D02*
X127731630Y-54331428D01*
X127731630Y-54331428D02*
X127701154Y-54316190D01*
X127701154Y-54316190D02*
X127685916Y-54300952D01*
X127685916Y-54300952D02*
X127670678Y-54270476D01*
X127670678Y-54270476D02*
X127670678Y-54209523D01*
X127670678Y-54209523D02*
X127685916Y-54179047D01*
X127685916Y-54179047D02*
X127701154Y-54163809D01*
X127701154Y-54163809D02*
X127731630Y-54148571D01*
X127731630Y-54148571D02*
X127746868Y-54148571D01*
X127746868Y-54148571D02*
X127777344Y-54163809D01*
X127777344Y-54163809D02*
X127792582Y-54179047D01*
X127792582Y-54179047D02*
X127807820Y-54209523D01*
X127807820Y-54209523D02*
X127807820Y-54270476D01*
X127807820Y-54270476D02*
X127823059Y-54300952D01*
X127823059Y-54300952D02*
X127838297Y-54316190D01*
X127838297Y-54316190D02*
X127868773Y-54331428D01*
X127868773Y-54331428D02*
X127929725Y-54331428D01*
X127929725Y-54331428D02*
X127960201Y-54316190D01*
X127960201Y-54316190D02*
X127975440Y-54300952D01*
X127975440Y-54300952D02*
X127990678Y-54270476D01*
X127990678Y-54270476D02*
X127990678Y-54209523D01*
X127990678Y-54209523D02*
X127975440Y-54179047D01*
X127975440Y-54179047D02*
X127960201Y-54163809D01*
X127960201Y-54163809D02*
X127929725Y-54148571D01*
X127929725Y-54148571D02*
X127868773Y-54148571D01*
X127868773Y-54148571D02*
X127838297Y-54163809D01*
X127838297Y-54163809D02*
X127823059Y-54179047D01*
X127823059Y-54179047D02*
X127807820Y-54209523D01*
X105696666Y-67613401D02*
X105681428Y-67628640D01*
X105681428Y-67628640D02*
X105635714Y-67643878D01*
X105635714Y-67643878D02*
X105605238Y-67643878D01*
X105605238Y-67643878D02*
X105559523Y-67628640D01*
X105559523Y-67628640D02*
X105529047Y-67598163D01*
X105529047Y-67598163D02*
X105513809Y-67567687D01*
X105513809Y-67567687D02*
X105498571Y-67506735D01*
X105498571Y-67506735D02*
X105498571Y-67461020D01*
X105498571Y-67461020D02*
X105513809Y-67400068D01*
X105513809Y-67400068D02*
X105529047Y-67369592D01*
X105529047Y-67369592D02*
X105559523Y-67339116D01*
X105559523Y-67339116D02*
X105605238Y-67323878D01*
X105605238Y-67323878D02*
X105635714Y-67323878D01*
X105635714Y-67323878D02*
X105681428Y-67339116D01*
X105681428Y-67339116D02*
X105696666Y-67354354D01*
X105803333Y-67323878D02*
X106016666Y-67323878D01*
X106016666Y-67323878D02*
X105879523Y-67643878D01*
D15*
X98934383Y-76389519D02*
X98915635Y-76408267D01*
X98915635Y-76408267D02*
X98859392Y-76427014D01*
X98859392Y-76427014D02*
X98821897Y-76427014D01*
X98821897Y-76427014D02*
X98765654Y-76408267D01*
X98765654Y-76408267D02*
X98728159Y-76370771D01*
X98728159Y-76370771D02*
X98709411Y-76333276D01*
X98709411Y-76333276D02*
X98690663Y-76258285D01*
X98690663Y-76258285D02*
X98690663Y-76202042D01*
X98690663Y-76202042D02*
X98709411Y-76127052D01*
X98709411Y-76127052D02*
X98728159Y-76089556D01*
X98728159Y-76089556D02*
X98765654Y-76052061D01*
X98765654Y-76052061D02*
X98821897Y-76033313D01*
X98821897Y-76033313D02*
X98859392Y-76033313D01*
X98859392Y-76033313D02*
X98915635Y-76052061D01*
X98915635Y-76052061D02*
X98934383Y-76070809D01*
X99271841Y-76033313D02*
X99196850Y-76033313D01*
X99196850Y-76033313D02*
X99159355Y-76052061D01*
X99159355Y-76052061D02*
X99140607Y-76070809D01*
X99140607Y-76070809D02*
X99103112Y-76127052D01*
X99103112Y-76127052D02*
X99084364Y-76202042D01*
X99084364Y-76202042D02*
X99084364Y-76352024D01*
X99084364Y-76352024D02*
X99103112Y-76389519D01*
X99103112Y-76389519D02*
X99121860Y-76408267D01*
X99121860Y-76408267D02*
X99159355Y-76427014D01*
X99159355Y-76427014D02*
X99234346Y-76427014D01*
X99234346Y-76427014D02*
X99271841Y-76408267D01*
X99271841Y-76408267D02*
X99290589Y-76389519D01*
X99290589Y-76389519D02*
X99309336Y-76352024D01*
X99309336Y-76352024D02*
X99309336Y-76258285D01*
X99309336Y-76258285D02*
X99290589Y-76220790D01*
X99290589Y-76220790D02*
X99271841Y-76202042D01*
X99271841Y-76202042D02*
X99234346Y-76183295D01*
X99234346Y-76183295D02*
X99159355Y-76183295D01*
X99159355Y-76183295D02*
X99121860Y-76202042D01*
X99121860Y-76202042D02*
X99103112Y-76220790D01*
X99103112Y-76220790D02*
X99084364Y-76258285D01*
D14*
X95637451Y-71739999D02*
X95648880Y-71751427D01*
X95648880Y-71751427D02*
X95660308Y-71785713D01*
X95660308Y-71785713D02*
X95660308Y-71808570D01*
X95660308Y-71808570D02*
X95648880Y-71842856D01*
X95648880Y-71842856D02*
X95626022Y-71865713D01*
X95626022Y-71865713D02*
X95603165Y-71877142D01*
X95603165Y-71877142D02*
X95557451Y-71888570D01*
X95557451Y-71888570D02*
X95523165Y-71888570D01*
X95523165Y-71888570D02*
X95477451Y-71877142D01*
X95477451Y-71877142D02*
X95454594Y-71865713D01*
X95454594Y-71865713D02*
X95431737Y-71842856D01*
X95431737Y-71842856D02*
X95420308Y-71808570D01*
X95420308Y-71808570D02*
X95420308Y-71785713D01*
X95420308Y-71785713D02*
X95431737Y-71751427D01*
X95431737Y-71751427D02*
X95443165Y-71739999D01*
X95420308Y-71522856D02*
X95420308Y-71637142D01*
X95420308Y-71637142D02*
X95534594Y-71648570D01*
X95534594Y-71648570D02*
X95523165Y-71637142D01*
X95523165Y-71637142D02*
X95511737Y-71614285D01*
X95511737Y-71614285D02*
X95511737Y-71557142D01*
X95511737Y-71557142D02*
X95523165Y-71534285D01*
X95523165Y-71534285D02*
X95534594Y-71522856D01*
X95534594Y-71522856D02*
X95557451Y-71511427D01*
X95557451Y-71511427D02*
X95614594Y-71511427D01*
X95614594Y-71511427D02*
X95637451Y-71522856D01*
X95637451Y-71522856D02*
X95648880Y-71534285D01*
X95648880Y-71534285D02*
X95660308Y-71557142D01*
X95660308Y-71557142D02*
X95660308Y-71614285D01*
X95660308Y-71614285D02*
X95648880Y-71637142D01*
X95648880Y-71637142D02*
X95637451Y-71648570D01*
D13*
X92946666Y-74113401D02*
X92931428Y-74128640D01*
X92931428Y-74128640D02*
X92885714Y-74143878D01*
X92885714Y-74143878D02*
X92855238Y-74143878D01*
X92855238Y-74143878D02*
X92809523Y-74128640D01*
X92809523Y-74128640D02*
X92779047Y-74098163D01*
X92779047Y-74098163D02*
X92763809Y-74067687D01*
X92763809Y-74067687D02*
X92748571Y-74006735D01*
X92748571Y-74006735D02*
X92748571Y-73961020D01*
X92748571Y-73961020D02*
X92763809Y-73900068D01*
X92763809Y-73900068D02*
X92779047Y-73869592D01*
X92779047Y-73869592D02*
X92809523Y-73839116D01*
X92809523Y-73839116D02*
X92855238Y-73823878D01*
X92855238Y-73823878D02*
X92885714Y-73823878D01*
X92885714Y-73823878D02*
X92931428Y-73839116D01*
X92931428Y-73839116D02*
X92946666Y-73854354D01*
X93220952Y-73930544D02*
X93220952Y-74143878D01*
X93144761Y-73808640D02*
X93068571Y-74037211D01*
X93068571Y-74037211D02*
X93266666Y-74037211D01*
X105796666Y-64960201D02*
X105781428Y-64975440D01*
X105781428Y-64975440D02*
X105735714Y-64990678D01*
X105735714Y-64990678D02*
X105705238Y-64990678D01*
X105705238Y-64990678D02*
X105659523Y-64975440D01*
X105659523Y-64975440D02*
X105629047Y-64944963D01*
X105629047Y-64944963D02*
X105613809Y-64914487D01*
X105613809Y-64914487D02*
X105598571Y-64853535D01*
X105598571Y-64853535D02*
X105598571Y-64807820D01*
X105598571Y-64807820D02*
X105613809Y-64746868D01*
X105613809Y-64746868D02*
X105629047Y-64716392D01*
X105629047Y-64716392D02*
X105659523Y-64685916D01*
X105659523Y-64685916D02*
X105705238Y-64670678D01*
X105705238Y-64670678D02*
X105735714Y-64670678D01*
X105735714Y-64670678D02*
X105781428Y-64685916D01*
X105781428Y-64685916D02*
X105796666Y-64701154D01*
X105903333Y-64670678D02*
X106101428Y-64670678D01*
X106101428Y-64670678D02*
X105994761Y-64792582D01*
X105994761Y-64792582D02*
X106040476Y-64792582D01*
X106040476Y-64792582D02*
X106070952Y-64807820D01*
X106070952Y-64807820D02*
X106086190Y-64823059D01*
X106086190Y-64823059D02*
X106101428Y-64853535D01*
X106101428Y-64853535D02*
X106101428Y-64929725D01*
X106101428Y-64929725D02*
X106086190Y-64960201D01*
X106086190Y-64960201D02*
X106070952Y-64975440D01*
X106070952Y-64975440D02*
X106040476Y-64990678D01*
X106040476Y-64990678D02*
X105949047Y-64990678D01*
X105949047Y-64990678D02*
X105918571Y-64975440D01*
X105918571Y-64975440D02*
X105903333Y-64960201D01*
X105796666Y-62210201D02*
X105781428Y-62225440D01*
X105781428Y-62225440D02*
X105735714Y-62240678D01*
X105735714Y-62240678D02*
X105705238Y-62240678D01*
X105705238Y-62240678D02*
X105659523Y-62225440D01*
X105659523Y-62225440D02*
X105629047Y-62194963D01*
X105629047Y-62194963D02*
X105613809Y-62164487D01*
X105613809Y-62164487D02*
X105598571Y-62103535D01*
X105598571Y-62103535D02*
X105598571Y-62057820D01*
X105598571Y-62057820D02*
X105613809Y-61996868D01*
X105613809Y-61996868D02*
X105629047Y-61966392D01*
X105629047Y-61966392D02*
X105659523Y-61935916D01*
X105659523Y-61935916D02*
X105705238Y-61920678D01*
X105705238Y-61920678D02*
X105735714Y-61920678D01*
X105735714Y-61920678D02*
X105781428Y-61935916D01*
X105781428Y-61935916D02*
X105796666Y-61951154D01*
X105918571Y-61951154D02*
X105933809Y-61935916D01*
X105933809Y-61935916D02*
X105964285Y-61920678D01*
X105964285Y-61920678D02*
X106040476Y-61920678D01*
X106040476Y-61920678D02*
X106070952Y-61935916D01*
X106070952Y-61935916D02*
X106086190Y-61951154D01*
X106086190Y-61951154D02*
X106101428Y-61981630D01*
X106101428Y-61981630D02*
X106101428Y-62012106D01*
X106101428Y-62012106D02*
X106086190Y-62057820D01*
X106086190Y-62057820D02*
X105903333Y-62240678D01*
X105903333Y-62240678D02*
X106101428Y-62240678D01*
D11*
X116103333Y-68509580D02*
X116055714Y-68557200D01*
X116055714Y-68557200D02*
X115912857Y-68604819D01*
X115912857Y-68604819D02*
X115817619Y-68604819D01*
X115817619Y-68604819D02*
X115674762Y-68557200D01*
X115674762Y-68557200D02*
X115579524Y-68461961D01*
X115579524Y-68461961D02*
X115531905Y-68366723D01*
X115531905Y-68366723D02*
X115484286Y-68176247D01*
X115484286Y-68176247D02*
X115484286Y-68033390D01*
X115484286Y-68033390D02*
X115531905Y-67842914D01*
X115531905Y-67842914D02*
X115579524Y-67747676D01*
X115579524Y-67747676D02*
X115674762Y-67652438D01*
X115674762Y-67652438D02*
X115817619Y-67604819D01*
X115817619Y-67604819D02*
X115912857Y-67604819D01*
X115912857Y-67604819D02*
X116055714Y-67652438D01*
X116055714Y-67652438D02*
X116103333Y-67700057D01*
X117055714Y-68604819D02*
X116484286Y-68604819D01*
X116770000Y-68604819D02*
X116770000Y-67604819D01*
X116770000Y-67604819D02*
X116674762Y-67747676D01*
X116674762Y-67747676D02*
X116579524Y-67842914D01*
X116579524Y-67842914D02*
X116484286Y-67890533D01*
X92704819Y-54833333D02*
X93419104Y-54833333D01*
X93419104Y-54833333D02*
X93561961Y-54880952D01*
X93561961Y-54880952D02*
X93657200Y-54976190D01*
X93657200Y-54976190D02*
X93704819Y-55119047D01*
X93704819Y-55119047D02*
X93704819Y-55214285D01*
X93038152Y-53928571D02*
X93704819Y-53928571D01*
X92657200Y-54166666D02*
X93371485Y-54404761D01*
X93371485Y-54404761D02*
X93371485Y-53785714D01*
D16*
X123998600Y-63160600D02*
X124910515Y-63160600D01*
X123998600Y-63444024D02*
X123998600Y-63160600D01*
X123998600Y-66513400D02*
X123998600Y-66229976D01*
X126439485Y-63160600D02*
X127351400Y-63160600D01*
X127351400Y-63160600D02*
X127351400Y-63444024D01*
X127351400Y-66229976D02*
X127351400Y-66513400D01*
X127351400Y-66513400D02*
X123998600Y-66513400D01*
X97371100Y-68871100D02*
X97371100Y-69540260D01*
X97371100Y-73459740D02*
X97371100Y-74128900D01*
X97371100Y-74128900D02*
X98040260Y-74128900D01*
X98040260Y-68871100D02*
X97371100Y-68871100D01*
X101959740Y-74128900D02*
X102628900Y-74128900D01*
X102628900Y-68871100D02*
X101959740Y-68871100D01*
X102628900Y-69540260D02*
X102628900Y-68871100D01*
X102628900Y-74128900D02*
X102628900Y-73459740D01*
G36*
X99690501Y-74814700D02*
G01*
X99309501Y-74814700D01*
X99309501Y-74560700D01*
X99690501Y-74560700D01*
X99690501Y-74814700D01*
G37*
G36*
X103314700Y-70690499D02*
G01*
X103060700Y-70690499D01*
X103060700Y-70309499D01*
X103314700Y-70309499D01*
X103314700Y-70690499D01*
G37*
D17*
X101200000Y-41125000D02*
X116600000Y-41125000D01*
X101200000Y-46175000D02*
X101200000Y-41125000D01*
X116600000Y-41125000D02*
X116600000Y-46175000D01*
X116600000Y-61625000D02*
X101200000Y-61625000D01*
D18*
X100550000Y-47950000D02*
G75*
G03*
X100550000Y-47950000I-100000J0D01*
G01*
X117575000Y-49650000D02*
G75*
G03*
X117575000Y-49650000I-100000J0D01*
G01*
D17*
X122675000Y-52370000D02*
X118475000Y-52370000D01*
X122675000Y-51250000D02*
X122675000Y-50250000D01*
X118475000Y-51250000D02*
X118475000Y-50250000D01*
X118475000Y-49130000D02*
X122675000Y-49130000D01*
D18*
X117500000Y-42400000D02*
G75*
G03*
X117500000Y-42400000I-100000J0D01*
G01*
D17*
X122600000Y-45120000D02*
X118400000Y-45120000D01*
X122600000Y-44000000D02*
X122600000Y-43000000D01*
X118400000Y-44000000D02*
X118400000Y-43000000D01*
X118400000Y-41880000D02*
X122600000Y-41880000D01*
D19*
X118237258Y-77772500D02*
X117762742Y-77772500D01*
X118237258Y-76727500D02*
X117762742Y-76727500D01*
X122572742Y-60977500D02*
X123047258Y-60977500D01*
X122572742Y-62022500D02*
X123047258Y-62022500D01*
X122572742Y-57022500D02*
X123047258Y-57022500D01*
X122572742Y-55977500D02*
X123047258Y-55977500D01*
X92837258Y-71272500D02*
X92362742Y-71272500D01*
X92837258Y-70227500D02*
X92362742Y-70227500D01*
X128977500Y-58762742D02*
X128977500Y-59237258D01*
X130022500Y-58762742D02*
X130022500Y-59237258D01*
X125727500Y-58762742D02*
X125727500Y-59237258D01*
X126772500Y-58762742D02*
X126772500Y-59237258D01*
X102700000Y-65477064D02*
X102700000Y-64022936D01*
X100880000Y-65477064D02*
X100880000Y-64022936D01*
X99660000Y-65439564D02*
X99660000Y-63985436D01*
X97840000Y-65439564D02*
X97840000Y-63985436D01*
X128515000Y-66074741D02*
X128515000Y-66549257D01*
X129560000Y-66074741D02*
X129560000Y-66549257D01*
X129560000Y-62824741D02*
X129560000Y-63299257D01*
X128515000Y-62824741D02*
X128515000Y-63299257D01*
X122772500Y-64737258D02*
X122772500Y-64262742D01*
X121727500Y-64737258D02*
X121727500Y-64262742D01*
X107977500Y-65262742D02*
X107977500Y-65737258D01*
X109022500Y-65262742D02*
X109022500Y-65737258D01*
X98822936Y-77290000D02*
X103177064Y-77290000D01*
X98822936Y-80710000D02*
X103177064Y-80710000D01*
X113477500Y-71352742D02*
X113477500Y-71827258D01*
X114522500Y-71352742D02*
X114522500Y-71827258D01*
X105977500Y-71352742D02*
X105977500Y-71827258D01*
X107022500Y-71352742D02*
X107022500Y-71827258D01*
X115010000Y-78245000D02*
X115010000Y-76325000D01*
X105850000Y-76325000D02*
X105850000Y-78245000D01*
X115010000Y-80255000D02*
X115010000Y-81960000D01*
X105850000Y-81960000D02*
X105850000Y-80255000D01*
X115010000Y-81960000D02*
X105850000Y-81960000D01*
X118325000Y-57235000D02*
X120610000Y-57235000D01*
X118325000Y-55765000D02*
X118325000Y-57235000D01*
X120610000Y-55765000D02*
X118325000Y-55765000D01*
X118325000Y-62235000D02*
X120610000Y-62235000D01*
X118325000Y-60765000D02*
X118325000Y-62235000D01*
X120610000Y-60765000D02*
X118325000Y-60765000D01*
X116477500Y-80235000D02*
X118762500Y-80235000D01*
X116477500Y-78765000D02*
X116477500Y-80235000D01*
X118762500Y-78765000D02*
X116477500Y-78765000D01*
D17*
X109230000Y-72190000D02*
X109230000Y-70990000D01*
X110270000Y-70990000D02*
X110270000Y-72190000D01*
D18*
X109850000Y-73090000D02*
G75*
G03*
X109850000Y-73090000I-100000J0D01*
G01*
D17*
X111230000Y-72190000D02*
X111230000Y-70990000D01*
X112270000Y-70990000D02*
X112270000Y-72190000D01*
D18*
X111850000Y-73090000D02*
G75*
G03*
X111850000Y-73090000I-100000J0D01*
G01*
X126850000Y-49525000D02*
X127650000Y-49525000D01*
X127650000Y-50975000D02*
X126850000Y-50975000D01*
X125275000Y-54900000D02*
X125275000Y-54100000D01*
X126725000Y-54100000D02*
X126725000Y-54900000D01*
X128300000Y-70475000D02*
X127500000Y-70475000D01*
X127500000Y-69025000D02*
X128300000Y-69025000D01*
D17*
X125525000Y-67275000D02*
X127475000Y-67275000D01*
X125525000Y-68225000D02*
X125525000Y-67275000D01*
X127475000Y-67275000D02*
X127475000Y-68225000D01*
X127475000Y-68225000D02*
X125525000Y-68225000D01*
X116875000Y-66225000D02*
X114925000Y-66225000D01*
X116875000Y-65275000D02*
X116875000Y-66225000D01*
X114925000Y-66225000D02*
X114925000Y-65275000D01*
X114925000Y-65275000D02*
X116875000Y-65275000D01*
D18*
X116400000Y-64475000D02*
X115600000Y-64475000D01*
X115600000Y-63025000D02*
X116400000Y-63025000D01*
X128525000Y-54900000D02*
X128525000Y-54100000D01*
X129975000Y-54100000D02*
X129975000Y-54900000D01*
X106150000Y-69475000D02*
X105350000Y-69475000D01*
X105350000Y-68025000D02*
X106150000Y-68025000D01*
D17*
X95225000Y-70775000D02*
X95225000Y-72725000D01*
X94275000Y-70775000D02*
X95225000Y-70775000D01*
X95225000Y-72725000D02*
X94275000Y-72725000D01*
X94275000Y-72725000D02*
X94275000Y-70775000D01*
D18*
X92650000Y-73225000D02*
X91850000Y-73225000D01*
X91850000Y-71775000D02*
X92650000Y-71775000D01*
X105350000Y-65525000D02*
X106150000Y-65525000D01*
X106150000Y-66975000D02*
X105350000Y-66975000D01*
X105350000Y-62775000D02*
X106150000Y-62775000D01*
X106150000Y-64225000D02*
X105350000Y-64225000D01*
D19*
X117390000Y-73595563D02*
X118454437Y-74660000D01*
X116362500Y-69402500D02*
X117150000Y-69402500D01*
X124210000Y-67840000D02*
X124210000Y-70190000D01*
X116756250Y-69008750D02*
X116756250Y-69796250D01*
X117390000Y-68904437D02*
X117390000Y-70190000D01*
X118454437Y-67840000D02*
X124210000Y-67840000D01*
X124210000Y-74660000D02*
X124210000Y-72310000D01*
X118454437Y-74660000D02*
X124210000Y-74660000D01*
X117390000Y-68904437D02*
X118454437Y-67840000D01*
X117390000Y-73595563D02*
X117390000Y-72310000D01*
X93110000Y-68910000D02*
X95610000Y-68910000D01*
X95610000Y-68910000D02*
X95610000Y-66410000D01*
X91290000Y-68610000D02*
X95310000Y-68610000D01*
X93000000Y-68610000D02*
X93000000Y-68110000D01*
X93810000Y-68610000D02*
X93810000Y-67610000D01*
X95310000Y-68610000D02*
X95310000Y-55890000D01*
X91790000Y-68110000D02*
X91790000Y-56390000D01*
X93000000Y-68110000D02*
X91790000Y-68110000D01*
X93810000Y-67610000D02*
X95310000Y-67610000D01*
X93810000Y-56890000D02*
X95310000Y-56890000D01*
X91790000Y-56390000D02*
X93000000Y-56390000D01*
X93000000Y-56390000D02*
X93000000Y-55890000D01*
X91290000Y-55890000D02*
X91290000Y-68610000D01*
X93810000Y-55890000D02*
X93810000Y-56890000D01*
X95310000Y-55890000D02*
X91290000Y-55890000D01*
%LPC*%
G36*
X126250000Y-63737000D02*
G01*
X125100000Y-63737000D01*
X125100000Y-63337000D01*
X126250000Y-63337000D01*
X126250000Y-63737000D01*
G37*
D20*
X107950000Y-52950000D02*
X106550000Y-52950000D01*
X106550000Y-52200000D01*
X107200000Y-51550000D01*
X107950000Y-51550000D01*
X107950000Y-52950000D01*
G36*
X107950000Y-52950000D02*
G01*
X106550000Y-52950000D01*
X106550000Y-52200000D01*
X107200000Y-51550000D01*
X107950000Y-51550000D01*
X107950000Y-52950000D01*
G37*
D21*
X124562500Y-63862001D03*
X124562500Y-64511999D03*
X124562500Y-65162001D03*
X124562500Y-65811999D03*
X126787500Y-65811999D03*
X126787500Y-65162001D03*
X126787500Y-64511999D03*
X126787500Y-63862001D03*
D22*
X126000000Y-63500000D03*
X125350000Y-63500000D03*
D23*
X125675000Y-64837000D03*
D24*
X97574300Y-70000000D03*
X97574300Y-70499999D03*
X97574300Y-71000001D03*
X97574300Y-71500000D03*
X97574300Y-71999999D03*
X97574300Y-72500001D03*
X97574300Y-73000000D03*
D25*
X98500000Y-73925700D03*
X98999999Y-73925700D03*
X99500001Y-73925700D03*
X100000000Y-73925700D03*
X100499999Y-73925700D03*
X101000001Y-73925700D03*
X101500000Y-73925700D03*
D24*
X102425700Y-73000000D03*
X102425700Y-72500001D03*
X102425700Y-71999999D03*
X102425700Y-71500000D03*
X102425700Y-71000001D03*
X102425700Y-70499999D03*
X102425700Y-70000000D03*
D25*
X101500000Y-69074300D03*
X101000001Y-69074300D03*
X100499999Y-69074300D03*
X100000000Y-69074300D03*
X99500001Y-69074300D03*
X98999999Y-69074300D03*
X98500000Y-69074300D03*
D26*
X100000000Y-71500000D03*
D27*
X101900000Y-47950000D03*
X101900000Y-48800000D03*
X101900000Y-49650000D03*
X101900000Y-50500000D03*
X101900000Y-51350000D03*
X101900000Y-52200000D03*
X101900000Y-53050000D03*
X101900000Y-53900000D03*
X101900000Y-54750000D03*
X101900000Y-55600000D03*
X101900000Y-56450000D03*
X101900000Y-57300000D03*
X101900000Y-58150000D03*
X101900000Y-59000000D03*
X101900000Y-59850000D03*
D28*
X102950000Y-60900000D03*
X103800000Y-60900000D03*
X104650000Y-60900000D03*
X105500000Y-60900000D03*
X106350000Y-60900000D03*
X107200000Y-60900000D03*
X108050000Y-60900000D03*
X108900000Y-60900000D03*
X109750000Y-60900000D03*
X110600000Y-60900000D03*
X111450000Y-60900000D03*
X112300000Y-60900000D03*
X113150000Y-60900000D03*
X114000000Y-60900000D03*
X114850000Y-60900000D03*
D27*
X115900000Y-59850000D03*
X115900000Y-59000000D03*
X115900000Y-58150000D03*
X115900000Y-57300000D03*
X115900000Y-56450000D03*
X115900000Y-55600000D03*
X115900000Y-54750000D03*
X115900000Y-53900000D03*
X115900000Y-53050000D03*
X115900000Y-52200000D03*
X115900000Y-51350000D03*
X115900000Y-50500000D03*
X115900000Y-49650000D03*
X115900000Y-48800000D03*
X115900000Y-47950000D03*
D28*
X114850000Y-46900000D03*
X114000000Y-46900000D03*
X113150000Y-46900000D03*
X112300000Y-46900000D03*
X111450000Y-46900000D03*
X110600000Y-46900000D03*
X109750000Y-46900000D03*
X108900000Y-46900000D03*
X108050000Y-46900000D03*
X107200000Y-46900000D03*
X106350000Y-46900000D03*
X105500000Y-46900000D03*
X104650000Y-46900000D03*
X103800000Y-46900000D03*
X102950000Y-46900000D03*
D29*
X108900000Y-53900000D03*
X108900000Y-52250000D03*
X110550000Y-52250000D03*
X110550000Y-53900000D03*
X110550000Y-55550000D03*
X108900000Y-55550000D03*
X107250000Y-55550000D03*
X107250000Y-53900000D03*
D30*
X101900000Y-46900000D03*
X101900000Y-60900000D03*
X115900000Y-60900000D03*
X115900000Y-46900000D03*
D31*
X122650000Y-51825000D03*
X118500000Y-51825000D03*
X122650000Y-49675000D03*
X118500000Y-49675000D03*
X122575000Y-44575000D03*
X118425000Y-44575000D03*
X122575000Y-42425000D03*
X118425000Y-42425000D03*
D32*
X117175000Y-77250000D03*
X118825000Y-77250000D03*
D33*
X123635000Y-61500000D03*
X121985000Y-61500000D03*
X121985000Y-56500000D03*
X123635000Y-56500000D03*
D32*
X91775000Y-70750000D03*
X93425000Y-70750000D03*
D34*
X129500000Y-58175000D03*
X129500000Y-59825000D03*
X126250000Y-58175000D03*
X126250000Y-59825000D03*
D35*
X101790000Y-66212500D03*
X101790000Y-63287500D03*
X98750000Y-66175000D03*
X98750000Y-63250000D03*
D34*
X129037500Y-65486999D03*
X129037500Y-67136999D03*
X129037500Y-63886999D03*
X129037500Y-62236999D03*
D36*
X122250000Y-65325000D03*
X122250000Y-63675000D03*
D34*
X108500000Y-64675000D03*
X108500000Y-66325000D03*
D37*
X98037500Y-79000000D03*
X103962500Y-79000000D03*
D34*
X114000000Y-70765000D03*
X114000000Y-72415000D03*
X106500000Y-70765000D03*
X106500000Y-72415000D03*
D38*
X114750000Y-79250000D03*
D39*
X114750000Y-75050000D03*
X106110000Y-75050000D03*
D38*
X106110000Y-79250000D03*
D40*
X107230000Y-74450000D03*
X108030000Y-74450000D03*
D41*
X108680000Y-74450000D03*
X109680000Y-74450000D03*
X111180000Y-74450000D03*
X112180000Y-74450000D03*
D40*
X112830000Y-74450000D03*
X113630000Y-74450000D03*
X113630000Y-74450000D03*
X112830000Y-74450000D03*
D41*
X111680000Y-74450000D03*
X110680000Y-74450000D03*
X110180000Y-74450000D03*
X109180000Y-74450000D03*
D40*
X108030000Y-74450000D03*
X107230000Y-74450000D03*
D42*
X113320000Y-75570000D03*
X107540000Y-75570000D03*
D43*
X119022500Y-56500000D03*
X120597500Y-56500000D03*
X119022500Y-61500000D03*
X120597500Y-61500000D03*
X117175000Y-79500000D03*
X118750000Y-79500000D03*
D44*
X109750000Y-72250000D03*
X109750000Y-70930000D03*
X111750000Y-72250000D03*
X111750000Y-70930000D03*
D45*
X126100000Y-50250000D03*
X128400000Y-50250000D03*
D46*
X126000000Y-55650000D03*
X126000000Y-53350000D03*
D47*
X129050000Y-69750000D03*
X126750000Y-69750000D03*
D48*
X127000000Y-67750000D03*
X126000000Y-67750000D03*
X115400000Y-65750000D03*
X116400000Y-65750000D03*
D47*
X117150000Y-63750000D03*
X114850000Y-63750000D03*
D46*
X129250000Y-55650000D03*
X129250000Y-53350000D03*
D47*
X106900000Y-68750000D03*
X104600000Y-68750000D03*
D49*
X97719000Y-76500000D03*
X98281000Y-76500000D03*
D50*
X94750000Y-72250000D03*
X94750000Y-71250000D03*
D47*
X93400000Y-72500000D03*
X91100000Y-72500000D03*
D45*
X104600000Y-66250000D03*
X106900000Y-66250000D03*
X104600000Y-63500000D03*
X106900000Y-63500000D03*
D51*
X118100000Y-71250000D03*
X123500000Y-71250000D03*
D52*
X93000000Y-66000000D03*
D53*
X93000000Y-63500000D03*
X93000000Y-61000000D03*
X93000000Y-58500000D03*
%LPD*%
M02*
